<?xml version="1.0" standalone="no"?>
<!DOCTYPE svg PUBLIC "-//W3C//DTD SVG 20010904//EN"
 "http://www.w3.org/TR/2001/REC-SVG-20010904/DTD/svg10.dtd">
<svg version="1.0" xmlns="http://www.w3.org/2000/svg"
 width="1420.000000pt" height="1420.000000pt" viewBox="0 0 1420.000000 1420.000000"
 preserveAspectRatio="xMidYMid meet">
<metadata>
Created by potrace 1.11, written by Peter Selinger 2001-2013
</metadata>
<g transform="translate(0.000000,1420.000000) scale(0.100000,-0.100000)"
fill="#000000" stroke="none">
<path d="M6905 12263 c-97 -22 -180 -70 -259 -148 -83 -84 -123 -154 -142
-250 -7 -34 -26 -139 -29 -160 -6 -33 -23 -209 -30 -305 -27 -361 -27 -1304 0
-1765 2 -38 7 -128 10 -200 3 -71 7 -159 10 -195 2 -36 7 -130 10 -210 4 -80
8 -172 11 -205 9 -135 11 -705 3 -765 -8 -52 -15 -71 -41 -97 -32 -34 -81 -50
-116 -39 -24 8 -90 70 -124 116 -30 42 -110 199 -139 273 -11 29 -26 66 -34
82 -105 232 -299 819 -375 1140 -10 42 -47 215 -54 250 -2 11 -9 40 -15 65
-12 53 -77 395 -87 460 -11 76 -14 94 -21 125 -3 17 -7 37 -8 45 -2 8 -5 29
-8 45 -6 31 -27 154 -32 190 -2 11 -10 61 -19 110 -9 50 -18 104 -21 120 -3
17 -10 53 -15 80 -5 28 -12 65 -15 83 -11 71 -16 96 -20 101 -2 4 -6 26 -10
51 -4 25 -8 47 -10 50 -2 3 -6 21 -9 41 -3 19 -13 62 -21 95 -9 32 -25 91 -35
129 -38 150 -93 256 -174 337 -207 207 -507 171 -632 -74 -26 -52 -54 -127
-60 -167 -3 -14 -11 -48 -18 -76 -36 -127 -90 -442 -101 -585 -3 -41 -8 -84
-10 -95 -23 -111 -22 -760 1 -878 2 -10 6 -46 9 -80 13 -131 77 -459 130 -662
47 -180 86 -328 111 -420 14 -49 26 -97 29 -105 2 -8 20 -76 40 -150 20 -74
39 -143 41 -153 1 -10 7 -32 13 -50 27 -88 65 -248 101 -422 41 -201 41 -199
47 -318 7 -126 -8 -197 -39 -197 -27 0 -188 163 -218 221 -7 13 -16 26 -20 29
-13 10 -91 130 -159 245 -175 295 -327 660 -412 990 -9 39 -45 176 -78 305
-50 190 -101 394 -126 500 -7 31 -85 346 -92 370 -3 14 -7 30 -8 35 -5 18
-116 470 -120 485 -2 8 -12 42 -21 75 -9 33 -17 65 -18 71 -4 28 -68 143 -99
179 -19 22 -59 54 -88 70 -49 27 -63 30 -144 30 -80 0 -97 -3 -155 -31 -84
-40 -160 -115 -198 -196 -31 -66 -67 -192 -76 -268 -3 -25 -8 -56 -11 -70 -3
-14 -8 -56 -11 -95 -3 -38 -7 -90 -10 -115 -6 -57 -6 -441 0 -540 9 -134 17
-254 21 -290 2 -19 7 -64 10 -100 3 -36 7 -76 10 -90 2 -14 7 -41 9 -60 14
-88 31 -178 46 -235 5 -22 21 -87 34 -145 27 -118 99 -376 152 -550 65 -212
85 -274 164 -515 328 -1003 327 -1000 286 -1031 -29 -20 -54 -17 -115 14 -68
34 -200 163 -262 258 -79 119 -176 307 -296 574 -14 30 -33 73 -43 95 -35 78
-110 254 -275 645 -195 463 -176 418 -256 595 -34 77 -75 159 -91 183 -15 24
-28 45 -28 48 0 5 -62 75 -95 106 -34 32 -119 68 -170 72 -56 4 -137 -17 -177
-45 -14 -11 -30 -19 -35 -19 -17 0 -91 -86 -121 -140 -32 -57 -58 -138 -70
-212 -14 -91 -7 -377 12 -473 6 -33 17 -98 21 -130 4 -33 41 -203 49 -226 3
-8 8 -25 10 -39 24 -129 174 -559 266 -765 10 -22 32 -74 50 -115 172 -396
555 -1091 878 -1590 180 -278 262 -402 338 -510 100 -144 206 -297 219 -318 6
-9 15 -21 20 -28 6 -6 75 -101 155 -209 118 -162 397 -525 468 -610 9 -11 33
-40 52 -65 33 -43 239 -290 250 -300 3 -3 37 -43 76 -90 39 -47 80 -94 90
-106 229 -257 266 -297 519 -550 366 -366 554 -523 875 -730 29 -19 153 -79
235 -114 27 -11 100 -28 166 -37 106 -16 426 -8 524 12 11 2 38 6 60 9 22 3
50 8 63 11 27 6 57 13 97 21 131 26 433 126 567 188 31 14 59 26 63 26 8 0
247 120 333 167 336 184 714 456 1046 753 91 81 431 423 517 520 177 199 417
495 500 617 18 26 36 50 39 53 23 18 279 404 405 610 208 342 465 835 625
1200 39 91 80 184 91 207 10 24 19 45 19 48 0 4 8 25 19 48 151 337 353 972
407 1282 4 22 8 49 10 60 13 70 44 301 48 360 7 89 7 343 1 414 -24 297 -109
482 -247 541 -265 114 -467 19 -682 -324 -41 -64 -176 -303 -176 -311 0 -2
-13 -32 -29 -67 -16 -35 -53 -119 -81 -188 -223 -542 -475 -815 -860 -933
-466 -142 -892 102 -1235 707 -57 101 -136 269 -185 391 -101 252 -198 607
-237 860 -2 17 -11 66 -18 110 -19 105 -21 119 -40 257 -9 65 -18 125 -19 135
-5 22 -14 91 -21 158 -3 28 -8 61 -10 75 -2 14 -7 50 -10 80 -3 30 -8 66 -10
80 -2 14 -7 52 -10 85 -3 33 -8 71 -10 85 -2 14 -7 50 -10 80 -7 67 -14 123
-20 170 -2 19 -7 63 -10 97 -3 34 -7 70 -9 80 -2 10 -7 56 -11 103 -4 47 -8
87 -10 90 -2 3 -6 41 -10 85 -3 44 -8 91 -10 105 -2 14 -6 54 -9 90 -3 36 -8
74 -10 85 -2 11 -7 55 -11 98 -3 43 -8 86 -10 95 -1 9 -6 51 -10 92 -3 41 -8
89 -10 105 -2 17 -7 55 -10 85 -3 30 -8 66 -10 80 -2 14 -7 47 -10 74 -12 103
-32 149 -97 216 -94 99 -242 161 -393 165 -49 1 -99 0 -110 -2z"/>
<path d="M12176 12019 c-70 -17 -181 -82 -241 -144 -83 -84 -190 -231 -253
-346 -38 -69 -130 -284 -137 -320 -2 -9 -12 -47 -23 -85 -25 -84 -59 -257 -67
-339 -36 -362 -13 -509 102 -635 145 -159 427 -171 699 -30 91 48 118 68 190
140 139 140 276 433 320 685 2 17 7 38 10 47 8 28 14 61 20 123 3 33 8 62 9
65 7 11 18 196 17 270 -2 119 -11 160 -55 250 -112 229 -373 370 -591 319z"/>
</g>
</svg>
