<?xml version="1.0" standalone="no"?>
<!DOCTYPE svg PUBLIC "-//W3C//DTD SVG 1.1//EN" "http://www.w3.org/Graphics/SVG/1.1/DTD/svg11.dtd" >
<svg xmlns="http://www.w3.org/2000/svg" xmlns:xlink="http://www.w3.org/1999/xlink" version="1.1">
<metadata></metadata>
<defs>
<font id="adlibregular" horiz-adv-x="624" >
<font-face units-per-em="2048" ascent="1638" descent="-410" />
<missing-glyph horiz-adv-x="491" />
<glyph horiz-adv-x="0" />
<glyph unicode="&#xd;" horiz-adv-x="0" />
<glyph unicode=" "  horiz-adv-x="491" />
<glyph unicode="&#x09;" horiz-adv-x="491" />
<glyph unicode="&#xa0;" horiz-adv-x="491" />
<glyph unicode="!" horiz-adv-x="571" d="M84 156v4q0 80 60 135q62 57 140 57q86 0 146 -47q58 -47 58 -137q-6 -184 -179 -184h-12q-65 4 -109 22q-48 18 -74 58q-28 40 -30 92zM112 1592l384 -32q0 -170 -12 -348q-14 -180 -35 -340t-53 -336q-121 -22 -265 -61q13 188 13 377q0 170 -7 332q-9 162 -25 408z " />
<glyph unicode="&#x22;" horiz-adv-x="784" d="M76 1520h268q-39 -282 -55 -631q-25 -1 -45 -5q-26 2 -50 5h-63h-39q8 135 8 203q0 150 -24 428zM436 1520h264q-18 -240 -57 -631q-15 -1 -31 -5q-27 2 -49 5h-67h-44q2 49 4 90v109q0 192 -20 432z" />
<glyph unicode="#" horiz-adv-x="1308" d="M72 744l16 100h308l65 256h-305l24 92h299l80 332h101l-80 -332h260l80 332h100l-76 -332h308l-19 -92h-313l-64 -256h308l-24 -100h-308l-72 -304h-100l71 304h-260l-71 -304h-101l73 304h-300zM496 844h260l63 256h-260z" />
<glyph unicode="$" horiz-adv-x="1321" d="M76 540h320v-6q0 -6 -5 -26q8 -56 36.5 -70t88.5 -14v200q-47 0 -172 41q-124 41 -184 115q-72 98 -80 277q6 131 32 195q37 90 193 128q154 40 215 40v112h236v-121q43 -1 137 -19q93 -20 151 -65q72 -51 99 -112.5t33 -147.5l-296 -27l-4 109q-66 43 -151 43v-244h19 q166 0 340 -76q174 -78 184 -309v-29q0 -209 -162 -284q-174 -82 -342 -90l-8 4h-4v-205h-248v217q-168 0 -291 102q-123 100 -137 262zM364 948l164 8v240q-24 4 -67 4q-31 0 -93 -16zM735 391h181v209l-181 12v-221z" />
<glyph unicode="%" horiz-adv-x="1616" d="M80 1184v12q4 144 92 246q88 100 272 102q106 0 180 -49q74 -51 103 -86h19q12 -2 24 -2q12 -2 43 -4q27 -5 55 -7q274 26 416 168l196 -65q-212 -257 -400 -493q-190 -238 -414 -537q-223 -299 -373 -516l-168 88q347 402 539 639q254 318 382 479q130 163 134 177l4 8 v12q0 24 -29 24h-6q-5 -2 -9 -4l-36 -20q-56 -36 -74 -46t-66 -18q-14 -2 -26 -2q-14 -2 -39 -6q-37 4 -57 6t-33 4t-21 2q2 -24 4 -46v-74q-2 -108 -54 -201q-56 -91 -144 -143q-78 -46 -166 -46q-14 0 -28 2q-102 6 -174 64q-74 58 -112 152q-34 88 -34 180zM328 1040 l252 -12l8 328l-256 16zM856 324v20q10 182 115 295q97 105 245 105h21q164 -10 256 -107q76 -83 76 -199q-1 -25 -5 -51q-28 -249 -114 -329q-80 -74 -234 -74h-24q-152 6 -246 98q-90 86 -90 242zM1080 219l264 -19l24 279l-284 21z" />
<glyph unicode="&#x26;" horiz-adv-x="1380" d="M47 420q0 124 43 200q42 74 104 120q62 43 118 67q52 25 52 29t-52 48q-54 46 -95 114t-41 174q0 180 129 262q127 82 315 86q118 0 222 -42q102 -42 168 -124q62 -80 61 -178v-8q0 -117 -41 -186.5t-90 -103.5q-48 -32 -112 -59q-66 -29 -68 -39v-2q0 -24 47 -61 q47 -41 57 -53q34 -45 49 -65.5t33 -41.5q14 -17 22 -17h5q23 10 23 56v24l4 144l280 -8v-56q0 -102 -35 -204t-109 -152l220 -307q-174 1 -400 -49l-84 96q-142 -108 -323 -108q-207 0 -351 114q-146 113 -151 330zM440 608l4 -340l392 4l-273 365zM508 996l276 8v288 l-272 4z" />
<glyph unicode="'" horiz-adv-x="583" d="M60 1288q4 4 4 6v2q4 94 67 162q57 62 141 62h12q240 -6 240 -316v-24q0 -90 -26 -182q-32 -106 -111 -154q-22 -14 -92 -33q-70 -21 -131 -23q-42 8 -52 8v140h191q3 -2 11 24q10 28 10 52q0 54 -27 88h-17q-92 0 -153 45q-65 49 -67 143z" />
<glyph unicode="(" horiz-adv-x="563" d="M92 584v44q16 450 276 924l84 -36v2q-4 0 -86 -388q-86 -408 -86 -522q0 -142 86 -550q84 -412 90 -418l-88 -36q-32 66 -96 224q-66 158 -126 383q-54 197 -54 373z" />
<glyph unicode=")" horiz-adv-x="520" d="M92 1520l88 44q236 -402 256 -904q2 -33 2 -66q0 -244 -82 -510q-94 -300 -160 -448l-88 36q2 2 45 217t75 427q22 162 22 268q0 31 -2 57q-2 37 -22 164q-22 127 -56 309q-35 182 -51.5 270t-26.5 136z" />
<glyph unicode="*" horiz-adv-x="823" d="M64 1040l317 119l-293 88l43 158l260 -213l-43 348l136 8l-40 -344l224 201l104 -109l-311 -116l299 -132l-84 -116l-236 208l39 -331l-143 -4l68 340l-252 -209z" />
<glyph unicode="+" horiz-adv-x="1360" d="M104 559v149h508v508l140 4v-516h512v-145h-516v-512h-132v512h-512z" />
<glyph unicode="," horiz-adv-x="633" d="M64 209q6 89 67 155q59 66 145 68q144 0 215.5 -86t71.5 -234q-1 -133 -23 -233q-24 -99 -108 -155q-36 -20 -112 -36q-78 -16 -128 -16q-45 0 -61 4v156l209 8q0 6 4 16q2 10 4 25q2 13 4 23v28q0 44 -12 88q-42 -8 -68 -12q-86 4 -147 64t-61 137z" />
<glyph unicode="-" d="M60 512v272l495 -20v-272z" />
<glyph unicode="." horiz-adv-x="616" d="M60 219q0 104 71 160q63 49 151 49h21q104 -10 172 -68q65 -60 65 -155q0 -102 -61 -162q-61 -59 -163 -59q-110 0 -183 63q-73 64 -73 172z" />
<glyph unicode="/" horiz-adv-x="903" d="M72 -8q82 186 164 380q82 192 149 362t153 394q86 220 166 436l140 -48q-336 -756 -644 -1576z" />
<glyph unicode="0" horiz-adv-x="1304" d="M60 723v21q4 215 65 411.5t193 312.5q127 114 321 115h8q197 -6 334 -98q137 -95 205 -269q57 -156 57 -366v-54q-6 -330 -55 -507q-50 -181 -172 -259q-119 -78 -336 -77h-12q-146 0 -260 41q-114 39 -194 131q-82 91 -118 245q-36 146 -36 353zM420 299l420 8v889 l-352 20z" />
<glyph unicode="1" horiz-adv-x="839" d="M76 1243l8 229q205 12 338 27q132 12 274 41q-22 -166 -34 -397q-12 -234 -15 -451q9 -462 9 -696q-186 16 -420 16q62 672 63 1227z" />
<glyph unicode="2" horiz-adv-x="1220" d="M68 964v156q0 126 82 225t208 154q116 49 234 49h16q254 -6 404 -120q150 -117 152 -353v-8q0 -211 -95 -313q-98 -104 -293 -170l-223 -76q-24 -8 -47 -14q-24 -6 -37 -12q-13 -8 -21 -21q-12 -16 -20 -76q4 -26 6 -43q2 -18 2 -26l719 28l-10 -364q-314 24 -545 24 q-190 0 -524 -20l8 319q2 39 6 84q2 45 16 107q14 60 42 102q74 118 292 192l328 96l-8 408h-308l4 -319z" />
<glyph unicode="3" horiz-adv-x="1300" d="M68 1061q6 180 118 352q110 170 447 170q229 -1 379 -111q148 -112 156 -336q2 -18 2 -34q0 -112 -50 -174q-58 -72 -135 -104q-80 -34 -82 -44h5q0 -8 92 -45t164 -113q70 -78 75 -226v-19q0 -201 -172 -313q-181 -120 -443 -120q-320 0 -434 130q-114 126 -118 290 q2 37 6 60q2 20 2 28h424l-20 -256h327l-15 396l-325 16v285h273l32 350l-328 41v-284l-376 32v6q0 2 -4 23z" />
<glyph unicode="4" horiz-adv-x="1388" d="M47 348v304q309 498 653 960l392 -48v-921h256l-8 -291l-240 8v-420h-453l17 408h-617zM391 700h389v600q-80 -80 -212 -284q-43 -70 -107 -186q-66 -120 -70 -130z" />
<glyph unicode="5" horiz-adv-x="1280" d="M88 432l416 8l-8 -248l332 13v471l-408 16l-24 -96l-288 12l52 952q264 -24 456 -24q92 0 132 -4q60 2 168 6t172 6l-31 -324l-672 13v-281q0 -12 -4 -20q9 -39 23 -39q10 1 40 21q28 20 62 38q30 18 86 33q53 15 135 15q157 0 271 -64q114 -66 176 -178q60 -113 65 -254 v-25q0 -92 -39 -184q-45 -107 -123 -181q-80 -76 -184 -120q-106 -45 -217 -45q-242 0 -414 127q-174 124 -174 356z" />
<glyph unicode="6" horiz-adv-x="1323" d="M68 748q4 224 57 409q53 184 187 303q132 117 352 117q290 0 390 -129q100 -131 101 -293v-57q-2 -14 -2 -23h-69q-130 0 -195 -10v191l-405 12v-352q0 -49 24 -60h4q12 0 49 28q39 31 92 53.5t143 22.5q202 0 334 -118q130 -118 130 -338q0 -158 -72 -283 q-74 -127 -207 -195q-135 -70 -305 -69q-250 1 -383 109q-136 106 -180.5 276t-44.5 406zM412 252l399 -16l21 411h-420v-395z" />
<glyph unicode="7" horiz-adv-x="1124" d="M64 1208l28 361l979 -49l-10 -300q-12 -18 -113 -226q-100 -212 -168 -386q-111 -280 -176 -628l-475 -8q16 41 117 286q100 244 154 383q43 108 116 246q72 137 96 193l35 79l7 15q6 14 6 18q0 16 -8 20q-8 2 -40 8h-284q-222 -8 -264 -12z" />
<glyph unicode="8" horiz-adv-x="1364" d="M60 356v29q0 94 32 166q38 82 92 125q51 44 109 78q57 35 59 47q0 18 -68 55q-72 37 -123 104.5t-53 203.5q0 208 160 312q160 102 400 103h16q156 0 284 -45q130 -47 208 -135q76 -89 76 -223v-8q0 -140 -56 -216q-60 -78 -146 -122q-88 -47 -90 -66q0 -6 58 -18 q56 -14 118 -46q60 -33 107 -106.5t49 -206.5v-21q0 -198 -164 -306q-172 -116 -436 -116h-20q-254 0 -422 101q-176 101 -190 311zM448 656l8 -404l404 12v383zM516 1288l16 -360h316v344z" />
<glyph unicode="9" horiz-adv-x="1339" d="M62 1006q0 18 2 38q12 258 166 408q139 135 376 135h41q251 -8 391 -100q139 -95 193 -269q43 -146 43 -352q0 -42 -2 -86q-16 -375 -150 -604q-132 -227 -498 -227h-8q-310 0 -420 141q-112 142 -116 310q4 38 6 52q2 12 2 19q170 -15 348 -15v-196h365v268q2 18 4 33 v39q-1 28 -9 28q-10 0 -38 -18q-31 -20 -76 -36q-47 -16 -137 -19q-5 4 -13 4q-220 4 -350 131q-120 118 -120 316zM488 856l396 -24v448l-396 12v-436z" />
<glyph unicode=":" horiz-adv-x="604" d="M56 215q0 106 71 160q63 45 151 45h21q104 -10 172 -68q65 -60 65 -156q0 -102 -61 -159t-163 -57q-111 0 -183 65q-73 64 -73 170zM60 836q0 106 71 160q61 44 151 44h21q100 -10 168 -67q65 -60 65 -158q0 -101 -59 -157q-61 -58 -165 -58q-111 0 -181 66 q-71 64 -71 170z" />
<glyph unicode=";" horiz-adv-x="641" d="M64 215q0 96 65 160q63 61 155 65q146 0 220 -88q72 -90 72 -231q0 -137 -23 -231q-25 -96 -113 -158q-25 -18 -96.5 -35t-143.5 -17q-44 0 -60 4v160l216 4q24 36 25 92q-1 42 -21 80h-8q-10 -2 -63 -12q-86 4 -156 68q-69 61 -69 139zM68 811v4q6 102 71.5 157.5 t159.5 59.5h8q62 0 117 -24q58 -28 94 -82q35 -53 35 -121q0 -102 -65.5 -163.5t-167.5 -61.5q-112 0 -183 65q-69 62 -69 166z" />
<glyph unicode="&#x3c;" horiz-adv-x="1351" d="M104 576v120l1129 512v-151l-944 -420l948 -445v-149z" />
<glyph unicode="=" horiz-adv-x="1388" d="M108 360v132h1172v-132h-1172zM108 796v132h1172v-132h-1172z" />
<glyph unicode="&#x3e;" horiz-adv-x="1331" d="M116 47v149l945 445l-940 420v151l1131 -512v-120z" />
<glyph unicode="?" horiz-adv-x="1243" d="M60 1088q6 170 110 332q100 160 410 159h8q228 -1 410 -103q180 -104 186 -292v-48q2 -116 -25 -204q-32 -104 -93.5 -164t-139.5 -82q-80 -22 -195 -26q-6 4 -14 4l8 -164h-348v397h424v387h-361v-219h-376v4q0 3 -4 19zM312 182v14q6 78 60 130q56 50 140 59q12 2 24 2 q78 0 154 -45q88 -52 94 -158v-4q0 -100 -65 -154q-70 -54 -170 -54q-98 0 -170 65q-67 59 -67 145z" />
<glyph unicode="@" horiz-adv-x="1812" d="M184 764q4 320 228 551q214 221 516 221h20q272 -10 484 -196q210 -188 216 -451v-17q0 -112 -46 -231q-50 -131 -166 -225q-114 -96 -291 -104q-97 0 -149 84q-102 -96 -236 -103q-88 9 -132 31q-143 68 -149 304q5 148 61 265q68 141 185 237q113 94 235 94 q74 0 142 -36q66 -36 98 -96l29 96h143l-227 -676q-5 -20 -5 -56q0 -30 44 -36q58 0 139 59q79 60 141 166q60 105 60 235q0 152 -78 279q-80 125 -211 201q-131 74 -279 76h-8q-180 0 -322 -90q-144 -92 -228 -252q-86 -162 -86 -338q2 -174 86 -330t226 -246 q140 -88 304 -88h8q356 0 549 276h123q-221 -380 -660 -380h-12q-205 2 -377 108q-175 104 -275 285q-100 180 -100 383zM620 624q6 -148 107 -184q21 -10 65 -16q150 4 265 272q63 156 63 236q0 72 -45 122q-47 50 -115 50q-84 0 -162 -76q-78 -78 -122 -180 q-50 -118 -56 -224z" />
<glyph unicode="A" horiz-adv-x="1468" d="M28 -4l492 1524h488l444 -1520h-500l-104 336h-364l-72 -340h-384zM545 628h323l-156 611z" />
<glyph unicode="B" horiz-adv-x="1503" d="M84 16l37 492l-17 1016l688 12h25q231 0 393 -70q170 -76 170 -278v-8q0 -133 -61 -207q-66 -75 -203 -145l-80 -40l84 -24q344 -94 344 -396q0 -184 -141 -294q-129 -102 -297 -102h-30zM440 884l440 24l23 388l-455 8zM568 643l8 -438l428 39l-8 397z" />
<glyph unicode="C" horiz-adv-x="1603" d="M72 772q4 174 53 314q47 140 149 256q100 114 240 176q136 61 305 61h5q432 -1 572 -199q140 -201 140 -403v-33l-479 4l-17 312h-444v-928h524l12 276l412 -28q0 -68 -43 -212q-43 -143 -205 -280q-162 -135 -464 -135h-8q-188 1 -330 69q-144 68 -236 183 q-94 114 -139 258q-47 143 -47 309z" />
<glyph unicode="D" horiz-adv-x="1523" d="M80 1499l668 13h20q182 0 340 -76q166 -80 268 -236q100 -158 109 -372q2 -29 2 -58q0 -221 -84 -389q-95 -192 -267 -289q-172 -96 -384 -96h-25l-635 16l16 672zM524 328l463 8v804l-463 32v-844z" />
<glyph unicode="E" horiz-adv-x="1423" d="M68 1493l1200 31l12 -268l-700 -4l16 -316h596v-303l-448 14l-320 -19v-251h944v-393q-318 24 -684 24q-297 0 -600 -16l20 1016z" />
<glyph unicode="F" horiz-adv-x="1288" d="M76 8l16 1008l-16 520l516 20l647 13v-305l-807 8v-408l727 12v-313h-604v-575z" />
<glyph unicode="G" horiz-adv-x="1595" d="M72 772v22q0 342 180 566q184 232 563 232q299 0 457 -109t202 -238q46 -131 46 -233v-25l-484 -6v248l-481 10l17 -932h532l12 217h-276v272l704 -24l-12 -725l-293 -14l-47 115q-58 -62 -90 -92q-35 -33 -68 -52q-32 -20 -92 -32q-60 -14 -158 -19q-164 0 -288 49 q-128 48 -222 152q-96 102 -147 260q-53 158 -55 358z" />
<glyph unicode="H" horiz-adv-x="1468" d="M76 1524l393 16l-21 -620h508v573l453 19l-25 -724l21 -728l-397 -32v588h-436l-27 -636l-461 4l20 644z" />
<glyph unicode="I" horiz-adv-x="688" d="M121 1512h432l-13 -552l19 -952l-419 -8v824z" />
<glyph unicode="J" horiz-adv-x="1167" d="M51 381v231h385l-4 -364h215v469l-23 862l460 -10l-9 -1157q1 -150 -75 -254q-78 -106 -212 -156q-127 -49 -268 -49h-12q-222 1 -338 115q-119 115 -119 313z" />
<glyph unicode="K" horiz-adv-x="1644" d="M100 1495l455 4l29 -606l536 606h480l-484 -587l512 -908h-553l-307 648l-276 -280l4 -339l-384 -17l19 537z" />
<glyph unicode="L" horiz-adv-x="1208" d="M80 12l16 764l-12 732l461 20v-1204l623 12l-13 -352z" />
<glyph unicode="M" horiz-adv-x="1771" d="M64 -12l65 1511h571l232 -1038l217 1042l535 -8l24 -1491h-364v1053q0 43 -17 43q-23 0 -23 -33l-243 -1047h-381l-236 976q-10 36 -20 36h-4q-12 0 -12 -28v-1016h-344z" />
<glyph unicode="N" horiz-adv-x="1519" d="M64 0l16 1512l469 -4l211 -336q229 -356 344 -596q8 -16 16 -34q6 -14 16 -14h4q18 0 19 35l-35 917l328 -16v-1464l-436 8l-383 568q-27 37 -39 61q-12 21 -35 71q-22 50 -47 97q-16 36 -41 102t-27 70q-2 7 -6 19q-6 10 -12 18q-6 6 -14 6q-26 0 -27 -29v-995z" />
<glyph unicode="O" horiz-adv-x="1607" d="M68 805v12q0 248 90 416q90 172 260 250q168 77 393 81h21q184 0 350 -75q172 -82 276 -252q102 -172 102 -426q0 -257 -92 -459q-94 -203 -266 -307q-143 -86 -313 -86q-37 0 -74 4q-223 22 -389 117q-168 92 -262 276q-94 182 -96 449zM532 1196l31 -899l521 -8l28 875 z" />
<glyph unicode="P" horiz-adv-x="1392" d="M100 1520h711q148 0 276.5 -51.5t206.5 -156t78 -255.5v-9q0 -154 -68 -264q-70 -116 -192 -174q-123 -62 -264 -65l-299 -9l4 -540h-449l12 651zM428 815l520 9v376l-504 33z" />
<glyph unicode="Q" horiz-adv-x="1573" d="M60 738v46q10 258 104 434q92 176 260 262q146 74 330 74q27 0 55 -2q155 -10 281 -53q124 -45 220 -131t154 -223q58 -140 60 -336v-37q0 -244 -78 -395q-86 -163 -172 -221q-86 -59 -129 -72v-168h319v-303h-309h-4q-126 0 -229 71q-106 70 -107 195v70 q-354 20 -561 217q-194 184 -194 572zM568 299l520 25l8 816l-516 56z" />
<glyph unicode="R" horiz-adv-x="1489" d="M92 1503h820q194 0 325 -86q127 -85 127 -277v-4q0 -125 -47 -196.5t-86 -91.5q-41 -22 -119 -54q-76 -32 -76 -50q2 -10 64 -27q60 -18 118 -41q58 -25 90 -64q96 -114 97 -256v-196q2 -14 6 -37q3 -23 9 -51q6 -26 20 -48q12 -20 16 -28l-465 16q-2 0 -12 23 q-15 26 -23 57q-26 124 -32 268l-4 193h-371l6 -541h-451v705zM416 1237l4 -373h428l8 352z" />
<glyph unicode="S" horiz-adv-x="1603" d="M56 1104q4 142 75 250q73 106 199 168q123 61 265 61h5h228q92 0 264 -47q170 -49 229 -135q64 -97 90 -179q25 -84 25 -122l-468 8l-8 160h-540v-256l301 -21q158 -6 301.5 -24.5t249.5 -61.5q104 -43 178 -143t86 -270q2 -26 2 -54q0 -238 -172 -354 q-190 -131 -469 -131h-149q-156 0 -298 43q-142 40 -210 104q-86 86 -121 174q-37 88 -39 205h456v-223l539 -16l17 315l-420 33q-188 14 -317 55t-213 153q-86 111 -86 308z" />
<glyph unicode="T" horiz-adv-x="1331" d="M51 1116l13 424q352 -28 653 -28q247 0 591 24l-16 -344l-372 32v-972l16 -272l-461 24q17 250 17 377v735h-441z" />
<glyph unicode="U" horiz-adv-x="1384" d="M60 1536l428 -37q-4 -89 -4 -239q0 -160 24 -564q22 -378 24 -378v2l424 -4q12 234 12 401q0 131 -16 391t-16 387h-4h360v-499l8 -208q8 -216 8 -264q0 -180 -73.5 -307t-202.5 -191q-120 -59 -279 -59h-5h-21q-229 2 -365 84q-140 79 -196 223q-60 144 -70 359z" />
<glyph unicode="V" horiz-adv-x="1323" d="M33 1544l428 -12l256 -1120q9 -30 31 -31q12 0 20 39l236 1092l304 -23q-53 -252 -120 -508q-70 -256 -146 -504q-76 -250 -162 -510l-440 37z" />
<glyph unicode="W" horiz-adv-x="2107" d="M37 1512l438 -9l158 -1047q2 -8 6 -26q5 -18 13 -18q14 0 18 8q4 6 10 41l16 71q0 2 92 484q53 256 111 477l465 -8q10 -119 32 -269q22 -152 76 -470q54 -322 60 -334q8 -24 20 -25q26 0 27 37l166 1071h331q-2 0 -26 -127q-26 -134 -84 -412q-58 -280 -98 -495 q-23 -108 -35 -162q-13 -56 -27 -119q-16 -66 -42 -172h-492l-168 1008q0 32 -29 32q-23 0 -23 -24l-4 -47q-24 -264 -40 -340q-30 -172 -96 -391q-68 -220 -84 -250h-468q-49 254 -96 494q-48 238 -106 501q-57 263 -121 521z" />
<glyph unicode="X" horiz-adv-x="1515" d="M33 1508h512l227 -400q22 -37 39 -37h4q16 1 33 25l223 389l381 -21l-440 -649l491 -782h-471q-96 137 -148 227q-12 24 -34 74q-24 50 -37 78q-13 27 -33 63q-20 37 -28 37q-20 -4 -48 -51l-243 -465h-418l473 792z" />
<glyph unicode="Y" horiz-adv-x="1272" d="M33 1552l403 -4l176 -491q8 -31 21 -63q11 -34 31 -34q30 0 48 64l191 524l336 -28l-434 -932l39 -635l-416 43l24 600z" />
<glyph unicode="Z" horiz-adv-x="1392" d="M72 4l12 303q139 159 256 279q116 122 250 248q133 125 266 241l64 57q16 16 16 36v14q-2 4 -4 6q-4 8 -33 8h-43l-752 -51l8 327q342 -12 584 -12q396 0 648 8v-364q-190 -266 -281 -375t-239 -241q-60 -48 -101 -82q-43 -34 -63 -54q-18 -18 -19 -36v-4q2 -14 51 -15 h639l13 -293q-276 8 -720 8q-137 -2 -235 -2q-99 -2 -317 -6z" />
<glyph unicode="[" horiz-adv-x="600" d="M112 -391v1943h408v-104h-252v-1737h260v-102h-416z" />
<glyph unicode="\" horiz-adv-x="903" d="M64 1516l136 48q50 -131 130 -333q78 -205 202 -519q72 -174 164 -390q92 -219 140 -330l-128 -52q-49 129 -151 394q-102 262 -176 442q-56 138 -129 310q-74 170 -119 276q-47 104 -69 154z" />
<glyph unicode="]" horiz-adv-x="641" d="M188 -289h260v1737h-252v104l408 4v-1947h-416v102z" />
<glyph unicode="^" horiz-adv-x="704" d="M47 1188l301 236l299 -212l-19 -57l-280 61l-264 -84z" />
<glyph unicode="_" horiz-adv-x="1415" d="M12 -307h1456v-33h-1456v33z" />
<glyph unicode="`" horiz-adv-x="575" d="M76 1336q52 96 64 163q40 -34 114 -86q72 -53 118 -86q48 -33 156 -107l-53 -61z" />
<glyph unicode="a" horiz-adv-x="1239" d="M60 289q0 94 56 170q56 74 152 116.5t201 52.5l295 24v196q-43 6 -121 14q-78 6 -164 6q-63 0 -63 -8q-8 -22 -16 -84q4 -12 4 -14v-6l-304 -8v4l-4 8q12 108 72 196q40 60 194 88q131 22 269 23h41q295 -3 395 -103q101 -100 101 -304q0 -60 -2 -93t-5 -79 q-2 -50 -6 -120q0 -32 -2 -52q3 -88 15 -206q10 -108 12 -108v2l-369 4v20q0 66 -10 76h-9l-38 -34t-102 -64q-66 -28 -156 -30h-29q-190 0 -295 75q-112 80 -112 238zM424 303q0 -30 6 -51q8 -26 14 -33h384l12 217h-375q-9 -8 -23 -34q-16 -28 -18 -82v-17z" />
<glyph unicode="b" horiz-adv-x="1288" d="M88 1573q140 -21 219 -21q71 0 101 -4q37 4 104 4l-12 -575q22 26 96 67.5t209 43.5q219 0 327 -128q106 -129 107 -368q0 -252 -123 -438q-122 -188 -360 -191q-94 0 -164 27q-70 24 -148 86l-44 -84q-43 0 -68 4q-14 -2 -27 -2q-13 -2 -33 -6q-66 -16 -106 -23 q-42 -6 -62 -8q16 286 17 555q0 592 -33 1061zM420 756l16 -500l360 -4q10 90 13 144q2 53 2 157q0 114 -10 215z" />
<glyph unicode="c" horiz-adv-x="1304" d="M72 508q0 126 44 234q46 108 126 188t190 124q110 46 228 46q108 0 210 -31q100 -30 176 -88q74 -57 118 -145q40 -88 40 -199l-412 -13l17 191l-321 9v-296v-196v-104l368 4l16 204q116 -16 224 -16q38 0 156 8q0 -48 -36 -154q-37 -108 -171.5 -212.5t-392.5 -104.5h-9 h-3q-266 0 -414 153q-150 156 -154 398z" />
<glyph unicode="d" horiz-adv-x="1321" d="M51 504v20q0 221 123 375q127 160 371 168h16q188 0 332 -127l-21 588l371 -4q-14 -458 -14 -844q0 -314 14 -684l-4 -4q-107 12 -191 12q-34 0 -132 -8l-19 96q-24 -24 -127 -72q-98 -44 -215 -44h-10q-480 6 -494 528zM404 272h392l-20 459l-372 -10v-449z" />
<glyph unicode="e" horiz-adv-x="1288" d="M47 563q-1 224 147 373q146 148 365 148h9q378 -2 507 -189t129 -395v-64l-632 25h-32q-28 -1 -38 -13q-10 -14 -18 -48q4 -12 4 -28l28 -184l316 8l32 148l340 -8q0 -50 -24 -127q-26 -80 -146 -162t-358 -84h-14h-4q-258 0 -428 145q-176 150 -183 455zM381 727 q1 -72 27 -123l393 33l-21 203h-368q-30 -57 -31 -113z" />
<glyph unicode="f" horiz-adv-x="1040" d="M60 991h168v221q0 174 140 285q136 107 316 107h12q340 -4 340 -348v-116l-311 24v159q1 49 -73 49h-136l-4 -395h412l12 -269l-312 13v-764l-419 31l18 301v483h-139z" />
<glyph unicode="g" horiz-adv-x="1272" d="M43 -100q4 26 6 40q2 12 2 19l377 -19l-8 -180h348v348q-36 -18 -116 -42q-76 -24 -140 -25h-8q-211 10 -332 133q-123 122 -125 362q0 230 127 380q119 141 357 141h3h21q119 -2 191 -35q68 -32 138 -106q52 30 52 108h252v-952q0 -194 -50 -314q-52 -119 -172 -182 q-122 -64 -350 -72h-40q-301 0 -410 117q-119 125 -123 279zM484 772l8 -436l401 12l-17 404z" />
<glyph unicode="h" horiz-adv-x="1108" d="M72 1516l412 -23l-9 -497q1 -40 21 -44l96 62q94 61 184 61h20q260 -18 261 -315v-776q-62 4 -160 4q-39 0 -170 -8q2 40 4 94v198v100q0 84 -10 185q-13 98 -25 164q-10 55 -12 55h-297v-563v-97q4 -20 6 -40q3 -23 5 -33q2 -13 2 -19l-312 19l12 569z" />
<glyph unicode="i" horiz-adv-x="663" d="M148 -4q20 379 20 592q0 164 -12 380q244 0 364 23q-2 -83 -2 -153q-2 -72 -6 -182q0 -296 20 -680l4 4zM160 1321v4q0 80 57 135q57 56 139 60h4q74 0 132 -54q61 -59 61 -129q0 -82 -53 -149q-54 -70 -140 -72v4h-4q-72 4 -133 64q-63 58 -63 137z" />
<glyph unicode="j" horiz-adv-x="708" d="M37 -215h151l-28 1211h395q-6 -270 -6 -699q4 -146 4 -373v-160q0 -127 -117 -194q-116 -70 -256 -70h-143v285zM160 1331q0 83 66 141q64 56 146 60q92 0 160 -62q68 -64 68 -149q0 -81 -70 -147q-66 -62 -147 -62h-11q-88 4 -149 68q-63 62 -63 151z" />
<glyph unicode="k" horiz-adv-x="1263" d="M76 1516h403v-795q0 -29 29 -29q17 0 51 35l285 293l368 -8l-348 -316l388 -684l-420 -45l-224 502l-180 -172v-305l-332 -8q4 205 4 532q0 334 -4 564q-4 228 -20 436z" />
<glyph unicode="l" horiz-adv-x="663" d="M144 1512l401 -9q-1 -5 -13 -339q-14 -334 -16 -484q4 -48 4 -140q0 -190 20 -544l-384 12z" />
<glyph unicode="m" horiz-adv-x="2011" d="M68 -12q24 260 24 561q0 217 -16 447l268 -5v-135q0 8 72 62t170 96q92 38 190 38h8q143 -2 215 -45t105 -95q28 -50 28 -56q10 0 50 43q39 41 77.5 72t120.5 61q82 29 199 29q152 0 250 -72q96 -75 98 -201l25 -800l-388 8q2 56 5 104v123q0 250 -37 498h-328v-713 l-393 -12v432l-23 336l-313 4v2q-2 0 -12 -172q-13 -190 -15 -318q0 -116 13 -268z" />
<glyph unicode="n" horiz-adv-x="1208" d="M64 33q20 268 20 555q0 200 -16 408l317 -15l2 -117q57 47 181 117q122 67 272 67q210 0 258 -94q47 -94 47 -286v-8v-672h-373l8 420l-28 336l-308 -13v-139q0 -184 -4 -276q0 -64 -4 -97q4 -55 4 -178z" />
<glyph unicode="o" horiz-adv-x="1255" d="M72 559v9q2 246 154 380q150 136 374 136q164 -4 303 -82q137 -78 221 -216q84 -140 84 -302q0 -160 -78 -277q-80 -117 -211 -178.5t-282 -61.5q-253 0 -409 162q-156 158 -156 430zM404 289l411 -41l-43 584l-311 -27z" />
<glyph unicode="p" horiz-adv-x="1280" d="M88 987h268v-51q0 -39 25 -39q7 1 29 29q22 29 61 59q39 31 105 57q66 24 159 25h9h5q151 0 257 -63q112 -66 170 -185q58 -118 61 -266v-29v-5q0 -153 -57 -267q-64 -129 -172 -199q-110 -69 -240 -69q-146 0 -252 49v-517l-381 13v919q0 58 -6 138q-7 80 -19 196 t-22 205zM456 248l368 12v457l-368 8v-477z" />
<glyph unicode="q" horiz-adv-x="1323" d="M41 508v20q5 232 149 394q134 153 362 153h3h25q108 -7 188 -37q80 -34 146 -74q64 -40 63 -40q39 0 39 40l4 36l213 16q-7 -98 -11 -301q-4 -205 -6 -334q-4 -131 -12 -281q5 -190 25 -569h4l-437 -55v548q-169 -57 -253 -57h-3q-223 0 -364 152q-135 145 -135 389z M475 297l401 -17l-20 476l-381 45v-504z" />
<glyph unicode="r" horiz-adv-x="1036" d="M76 1020l336 -24l8 -160q16 43 84 110q68 66 217 74h21q148 0 194 -88q48 -94 60 -268l12 -164l-352 40l4 88l-4 107l-187 5q0 -66 2 -164q0 -98 4 -287q4 -113 4 -285h-383q16 214 16 412q0 346 -36 604z" />
<glyph unicode="s" horiz-adv-x="1132" d="M76 760v20q2 156 110 228t266 72h107q169 0 307 -80q135 -82 158 -236l-328 12l8 52v4q0 28 -24 40t-56 12h-256v-172l224 -28q170 -22 258 -45q88 -24 160 -94q70 -71 78 -217q2 -14 2 -29q0 -153 -119 -237q-131 -94 -315 -95h-64q-234 1 -379 101q-77 56 -99 112 t-30 156q158 -29 328 -29v-67q0 -28 14 -40q12 -12 39 -12h307q29 0 29 44v88q-1 40 -21 40l-231 27q-229 27 -353 107q-120 76 -120 266z" />
<glyph unicode="t" horiz-adv-x="956" d="M33 860l8 201h199l116 327h193l-25 -317l328 4l-20 -287l-324 21l-20 -625l196 12l4 204l240 -9q-18 -160 -35 -221q-19 -62 -101 -112q-84 -54 -268 -62h-24q-202 0 -300 100q-38 43 -50 84q-14 40 -15 184q1 68 25 277l24 174v17q0 28 -59 28h-92z" />
<glyph unicode="u" horiz-adv-x="1216" d="M51 1028l393 -8l-16 -760h344l-8 776h368v-524l21 -444h-297v32q0 38 -16 44l-8 4q-12 0 -66 -50t-129 -80t-189 -30h-16q-368 8 -368 356q0 56 4 142t4 138q0 209 -21 404z" />
<glyph unicode="v" horiz-adv-x="1065" d="M20 1012h392l116 -705q10 -27 27 -27q15 0 25 32l180 661h280l-360 -981h-368z" />
<glyph unicode="w" horiz-adv-x="1745" d="M24 1016h372l124 -672q12 -24 25 -24q18 0 18 32l162 648l379 16l172 -700q8 -12 16 -19q24 5 25 23l131 676l260 -5q-90 -467 -276 -979l-412 -12q-56 205 -84 377q-2 22 -10 102q-10 78 -21 121t-25 43q-12 0 -16 -6q-4 -8 -16 -33q0 -16 -22 -106q-24 -92 -42 -134 q-54 -135 -96 -245l-45 -111h-346q-51 205 -121 459q-69 255 -143 545z" />
<glyph unicode="x" horiz-adv-x="1153" d="M24 33l340 516l-313 491h414l155 -292l164 276h296l-279 -428l327 -549h-448l-148 281l-200 -328z" />
<glyph unicode="y" horiz-adv-x="1124" d="M28 -108l275 -17v-164h125q37 84 37 209q-1 38 -9 52l-415 1064h399l193 -651q9 -33 23 -33q18 0 28 35l152 674q128 -37 260 -37l-416 -1344q-26 -82 -135 -126q-97 -42 -173 -42h-20q-119 8 -190 44q-72 34 -102 90q-32 58 -32 141v105z" />
<glyph unicode="z" horiz-adv-x="1120" d="M56 37l8 182l544 525q29 29 29 41q0 33 -53 34l-484 -14l4 231q16 0 300 -10q280 -10 376 -10q156 0 256 4l-12 -289l-416 -419q-2 -2 -16 -15t-16 -25q4 -4 12 -14t24 -14q12 4 31 4l437 8q-14 -102 -15 -260q-563 41 -1009 41z" />
<glyph unicode="{" horiz-adv-x="647" d="M56 576q90 12 135 79.5t45 155.5v37v424q0 160 76 231q50 43 188 57l55 4q-91 -30 -147 -104q-40 -59 -40 -180v-440q0 -98 -42 -170q-46 -74 -134 -94q96 -20 138 -99q38 -78 38 -184v-469q0 -90 54 -156q51 -66 137 -80l-59 -4h-21q-102 0 -172 76q-75 84 -75 200v484 q0 94 -44 160t-132 72z" />
<glyph unicode="|" horiz-adv-x="364" d="M152 -520v2044h92v-2044h-92z" />
<glyph unicode="}" horiz-adv-x="647" d="M88 -404q82 14 138 84q54 68 54 152v467q0 119 40 193q36 74 132 92q-172 43 -172 264v440q0 66 -18 121q-20 57 -64 99q-44 40 -102 56l48 5h24q118 0 180 -82q60 -84 60 -207v-424q0 -20 -4 -37q14 -213 188 -235q-88 -6 -131 -70q-45 -66 -45 -162v-483 q0 -117 -76 -195t-192 -78h-60z" />
<glyph unicode="~" horiz-adv-x="823" d="M84 1224q76 156 184 160q61 0 135 -43t105 -45q141 40 184 128l39 -44q-39 -150 -207 -184q-28 2 -108 43q-72 33 -119 33h-17q-51 -8 -73 -18q-22 -12 -37 -32q-16 -18 -39 -46z" />
<glyph unicode="&#xad;" d="M60 512v272l495 -20v-272z" />
<glyph unicode="&#x2000;" horiz-adv-x="806" />
<glyph unicode="&#x2001;" horiz-adv-x="1612" />
<glyph unicode="&#x2002;" horiz-adv-x="806" />
<glyph unicode="&#x2003;" horiz-adv-x="1612" />
<glyph unicode="&#x2004;" horiz-adv-x="537" />
<glyph unicode="&#x2005;" horiz-adv-x="403" />
<glyph unicode="&#x2006;" horiz-adv-x="268" />
<glyph unicode="&#x2007;" horiz-adv-x="268" />
<glyph unicode="&#x2008;" horiz-adv-x="201" />
<glyph unicode="&#x2009;" horiz-adv-x="322" />
<glyph unicode="&#x200a;" horiz-adv-x="89" />
<glyph unicode="&#x2010;" d="M60 512v272l495 -20v-272z" />
<glyph unicode="&#x2011;" d="M60 512v272l495 -20v-272z" />
<glyph unicode="&#x2012;" d="M60 512v272l495 -20v-272z" />
<glyph unicode="&#x2013;" horiz-adv-x="1153" d="M60 512v272l1024 -20v-272z" />
<glyph unicode="&#x2014;" horiz-adv-x="2177" d="M60 512v272l2048 -20v-272z" />
<glyph unicode="&#x202f;" horiz-adv-x="322" />
<glyph unicode="&#x205f;" horiz-adv-x="403" />
<glyph unicode="&#x25fc;" horiz-adv-x="1040" d="M0 0v1040h1040v-1040h-1040z" />
</font>
</defs>
</svg>
