<?xml version="1.0" standalone="no"?>
<!DOCTYPE svg PUBLIC "-//W3C//DTD SVG 1.1//EN" "http://www.w3.org/Graphics/SVG/1.1/DTD/svg11.dtd" >
<svg xmlns="http://www.w3.org/2000/svg">
<metadata></metadata>
<defs>
<font id="coming_soonregular" horiz-adv-x="1120" >
<font-face units-per-em="2048" ascent="1638" descent="-410" />
<missing-glyph horiz-adv-x="680" />
<glyph horiz-adv-x="0" />
<glyph horiz-adv-x="682" />
<glyph unicode=" "  horiz-adv-x="680" />
<glyph unicode="&#x09;" horiz-adv-x="680" />
<glyph unicode="&#xa0;" horiz-adv-x="680" />
<glyph unicode="!" horiz-adv-x="550" d="M144 1430q0 20 14 36t42 20q44 0 54 -46q12 -54 22 -148t18 -195t13 -196t5 -153q0 -56 9 -156t21 -208q4 -32 7 -64t7 -66q0 -22 -15 -39t-41 -17q-22 -2 -38 13t-18 37q-4 30 -7 61t-7 63q-12 114 -21 215t-9 161q0 62 -5 156t-13 193t-18 189t-20 144zM250 64 q0 34 22 57t56 23t57 -23t23 -57q0 -32 -23 -55t-57 -23t-56 23t-22 55z" />
<glyph unicode="&#x22;" horiz-adv-x="530" d="M52 1472q0 20 14 36t42 20q44 0 54 -44q4 -14 4 -27v-29v-26v-30v-26t2 -26q4 -26 5 -52t5 -54l4 -58q0 -22 -15 -39t-41 -17q-22 -2 -38 13t-18 37l-4 56q-4 26 -5 51t-5 51q-2 16 -2 32v32v32v24v20t-2 24zM260 1470q0 44 56 56q20 0 35 -13t19 -33q6 -32 12 -73 t12 -87l4 -32t6 -32q4 -22 7 -47t5 -53q0 -22 -15 -38t-41 -18q-22 -2 -38 14t-18 38q-4 44 -12 86q-4 16 -6 34t-4 34q-4 46 -10 86t-12 78z" />
<glyph unicode="#" horiz-adv-x="1088" d="M20 370q0 22 14 37t36 19q4 0 52 5t120 11q12 42 22 76t18 56q16 44 36 107t42 133q-58 -4 -95 -8t-43 -4q-22 0 -37 14t-19 42q0 22 14 37t36 17q4 2 53 7t123 11q16 60 29 110t19 82q6 46 64 46q46 -10 46 -66q-6 -30 -16 -72t-24 -92q40 2 78 3t76 1t71 -1t63 -3 q16 58 28 106t16 78q10 46 66 46q20 -4 33 -21t11 -45q-4 -30 -15 -75t-25 -97q40 -4 63 -7t25 -3q22 -4 35 -21t11 -45q-4 -20 -20 -33t-44 -11q-2 0 -28 3t-74 7q-22 -84 -47 -160t-41 -124q-14 -32 -30 -92q44 -4 67 -8t27 -4q20 -4 33 -20t11 -44q-6 -46 -64 -46 q-12 2 -28 4q-14 2 -33 3t-45 5q-12 -46 -27 -99t-31 -115q-14 -42 -70 -40q-18 4 -29 22t-9 46q14 56 27 104t25 90h-96q-100 0 -192 -6q-14 -46 -29 -101t-31 -119q-6 -18 -23 -30t-47 -10q-18 6 -30 23t-10 47q12 42 25 88t25 92q-54 -4 -90 -8t-42 -4q-22 0 -37 14 t-19 42zM360 450q40 2 80 3t80 1h67t61 -2q12 42 21 72t17 50q16 46 37 114t43 140q-22 2 -48 2h-54q-94 0 -186 -6q-24 -84 -48 -162t-42 -126q-4 -14 -11 -36t-17 -50z" />
<glyph unicode="$" horiz-adv-x="892" d="M20 442q0 18 13 33t43 23q40 0 54 -40q12 -32 32 -60q16 -24 43 -49t67 -35q46 -14 78 -22t60 -10q-6 70 -11 147t-9 152t-7 143t-3 120l-6 24q-46 4 -94 11t-88 24t-66 48t-26 85q0 66 25 112t59 77t72 51t66 32q10 4 21 8t23 8q-2 40 -3 63t-1 27q0 22 15 38t41 18 q22 0 38 -15t18 -37q0 -2 1 -23t3 -57q6 2 13 2h13q52 0 101 -7t91 -17q42 -14 40 -68q-10 -44 -68 -40q-40 10 -82 15t-82 5h-22q4 -58 5 -126t3 -136q20 -4 38 -7t36 -7q66 -18 115 -62t83 -98t51 -113t17 -109v-28l-2 -22q-4 -38 -12 -84t-33 -92t-74 -86t-133 -66 q-12 -4 -23 -6t-23 -6q6 -66 10 -108t4 -46q0 -22 -15 -38t-41 -18q-22 -2 -38 13t-18 37q0 6 -4 46t-8 102q-42 2 -84 13t-100 27q-58 18 -98 53t-66 72t-38 68t-14 41zM212 1036q0 -26 39 -36t127 -20l-4 116t-6 110q-64 -24 -110 -62t-46 -108zM492 844q0 -48 3 -115 t7 -140t9 -150t11 -145q6 2 22 6q58 18 91 42t49 54t22 64t10 72l2 22v16q0 30 -11 72t-34 82t-58 73t-83 47q-22 8 -40 0z" />
<glyph unicode="%" horiz-adv-x="1352" d="M0 1144q0 72 32 153t84 139q70 80 150 80q14 0 25 -2t21 -6h24q26 0 65 -21t77 -60t67 -94t35 -123q2 -10 2 -30q0 -54 -21 -106t-61 -96q-40 -46 -94 -73t-102 -27q-50 0 -101 15t-94 45t-72 75t-35 103q-2 10 -2 28zM112 1128q4 -36 24 -62t48 -43t60 -25t60 -8 q22 0 54 16t60 48q16 16 34 51t16 93q-4 42 -20 76t-35 58t-39 39t-32 21q-14 -8 -28 -8t-40 6q-12 0 -28 8q-22 -10 -46 -36q-40 -42 -64 -106t-24 -128zM204 36q0 14 6 26q2 6 27 52t61 115t81 152t89 163t82 146t62 104t56 91t67 114t71 125t67 123t57 109t40 84 q16 34 52 34q6 0 22 -4q34 -18 34 -52q0 -10 -6 -22q-24 -54 -71 -145t-101 -188t-107 -186t-87 -143q-24 -36 -62 -103t-81 -147t-88 -164t-82 -152t-60 -112t-23 -46q-16 -30 -50 -30q-14 0 -26 6q-16 8 -23 21t-7 29zM792 210v28q0 72 32 153t84 139q70 80 150 80 q14 0 25 -2t21 -6h22q28 0 67 -21t76 -60t66 -94t37 -123q0 -8 1 -15t1 -15q0 -54 -21 -106t-61 -96q-42 -46 -95 -73t-101 -27q-50 0 -101 15t-94 45t-73 75t-36 103zM904 222q4 -36 24 -62t48 -43t60 -25t60 -8q22 0 53 16t59 48q16 16 35 51t17 93q-4 42 -20 76t-35 58 t-39 39t-32 21q-14 -8 -30 -8q-12 0 -38 6q-12 0 -28 8q-10 -4 -23 -13t-25 -23q-38 -42 -62 -106t-24 -128z" />
<glyph unicode="&#x26;" horiz-adv-x="1270" d="M102 368q0 64 11 112t33 100q50 120 141 217t185 183q-82 112 -129 206t-47 170q0 44 14 74q46 110 226 128q10 2 32 2q84 0 160 -38q112 -60 122 -164q2 -8 2 -15v-13q0 -52 -18 -99t-49 -92t-73 -88t-88 -85q6 -10 12 -17t12 -15l42 -46q34 -40 83 -105t102 -140 t102 -150t83 -131q28 32 41 52t15 22q16 26 46 26q16 0 30 -10q26 -14 26 -46q0 -20 -8 -30q-2 -4 -25 -36t-63 -78q18 -28 42 -63t56 -81q10 -16 10 -32q0 -28 -24 -46q-16 -10 -32 -10q-32 0 -46 24q-26 38 -47 68t-39 56q-38 -34 -82 -69t-96 -67q-82 -48 -187 -84 t-211 -36q-46 0 -88 8t-82 28q-164 82 -188 318q-6 50 -6 92zM214 368q0 -36 6 -80q18 -176 126 -230q26 -14 57 -19t65 -5q84 0 173 30t165 74q52 32 96 68t80 70q-34 54 -84 131t-104 155t-105 147t-83 105l-44 50q-6 6 -11 13t-11 13q-88 -82 -168 -167t-122 -187 q-16 -40 -26 -78t-10 -90zM408 1356q0 -30 13 -66t34 -76t48 -81t53 -77q78 72 131 141t53 149q-4 28 -24 47t-40 29q-52 26 -108 26h-22q-38 -4 -79 -18t-53 -44q-6 -12 -6 -30z" />
<glyph unicode="'" horiz-adv-x="294" d="M52 1472q0 20 14 36t42 20q44 0 54 -44q4 -14 4 -27v-29v-26v-30v-26t2 -26q4 -26 5 -52t5 -54l4 -58q0 -22 -15 -39t-41 -17q-22 -2 -38 13t-18 37l-4 56q-4 26 -5 51t-5 51q-2 16 -2 32v32v32v24v20t-2 24z" />
<glyph unicode="(" horiz-adv-x="676" d="M72 686q0 52 5 105t15 111q12 68 25 119t28 89t32 68t39 58q2 2 18 23t42 51t59 65t71 67t77 56t77 34q18 0 34 -13t22 -43q0 -18 -11 -33t-31 -21q-26 -6 -61 -34t-73 -65t-73 -78t-61 -75q-18 -24 -32 -48t-27 -57t-24 -77t-21 -106q-18 -106 -18 -196q0 -162 47 -279 t114 -195t138 -120t119 -54q44 -10 40 -68q-10 -42 -68 -40q-82 22 -171 79t-163 151t-121 225t-47 301z" />
<glyph unicode=")" horiz-adv-x="682" d="M-72 1482q6 50 62 50q52 -6 114 -42t117 -79t93 -79t42 -40q24 -24 46 -52t42 -64t41 -84t43 -114q34 -100 48 -190t14 -174q0 -136 -35 -249t-91 -199t-125 -146t-137 -90q-12 -6 -24 -6q-34 0 -50 32q-6 12 -6 24q0 38 34 50q40 18 95 63t106 117t87 173t36 231 q0 74 -14 155t-44 175q-20 60 -38 101t-35 72t-35 53t-38 42q-30 30 -70 65t-82 67t-81 53t-65 25q-22 2 -36 18t-14 42z" />
<glyph unicode="*" horiz-adv-x="924" d="M40 788q0 20 16 40q4 4 75 68t205 154q-52 30 -99 55t-83 44t-58 31l-24 10q-32 16 -32 52q0 12 6 24q16 32 50 32q14 0 26 -6q2 -2 27 -14t64 -33t89 -48t104 -57q-4 58 -10 110t-10 93t-8 66t-4 29q0 22 14 37t42 19q22 0 37 -13t19 -35q0 -2 4 -26t8 -62t9 -89t9 -107 q48 26 92 50t77 41t54 27t23 12q12 6 24 6q38 0 50 -32q6 -12 6 -24q0 -36 -32 -52l-22 -10q-24 -12 -60 -31t-83 -44t-97 -55q134 -90 204 -154t74 -68q16 -16 16 -40q0 -20 -16 -40q-20 -16 -40 -16q-22 0 -40 18q-24 24 -58 52q-28 24 -70 57t-94 71q-2 -150 -15 -237 t-15 -91q-4 -20 -21 -32t-45 -10q-20 4 -32 21t-10 45q6 40 12 92q4 44 7 105t-1 137q-130 -84 -198 -147t-70 -63q-16 -18 -40 -18q-22 0 -38 16q-18 18 -18 40z" />
<glyph unicode="+" horiz-adv-x="978" d="M20 640q0 22 13 37t35 19q4 0 34 4t78 9t108 11t126 10q0 160 14 254t16 98q6 44 66 44q20 -4 32 -21t10 -45q0 -2 -12 -90t-14 -238l24 2q164 2 261 -13t101 -17q44 -10 44 -66q-10 -44 -66 -44q-2 0 -93 15t-247 13l-22 -2q2 -68 8 -134t12 -118t11 -85t5 -37 q0 -22 -14 -37t-42 -19q-22 0 -37 13t-19 35q0 4 -5 37t-11 86t-12 119t-8 136q-64 -4 -124 -9t-106 -10t-76 -9t-34 -4q-46 0 -56 56z" />
<glyph unicode="," horiz-adv-x="252" d="M82 -122q2 30 6 72t9 87t11 87t12 74q10 46 66 44q44 -6 44 -66q-10 -44 -19 -124t-17 -184q-2 -22 -19 -37t-41 -13q-22 0 -37 17t-15 43z" />
<glyph unicode="-" horiz-adv-x="804" d="M40 640q0 22 10 37t26 19q4 0 38 6t86 13t115 13t123 6q124 0 196 -14t76 -16q34 -10 32 -66q-6 -44 -50 -44q-32 6 -70 14q-34 4 -80 9t-104 5t-120 -6t-113 -13t-86 -13t-37 -6q-16 0 -27 14t-15 42z" />
<glyph unicode="." horiz-adv-x="260" d="M82 30q0 34 23 57t55 23q34 0 57 -23t23 -57t-23 -56t-57 -22q-32 0 -55 22t-23 56z" />
<glyph unicode="/" horiz-adv-x="618" d="M62 32q2 6 13 54t29 119t39 157t43 169t41 153t33 110q22 62 50 156t54 191t46 185t28 138q4 22 23 42t43 24q26 4 41 -9t11 -35q-8 -54 -30 -148t-50 -195t-56 -196t-48 -153q-12 -38 -32 -108t-41 -153t-43 -169t-39 -157t-28 -116t-11 -47q-4 -22 -26 -40t-50 -22 q-22 0 -33 14t-7 36z" />
<glyph unicode="0" horiz-adv-x="1168" d="M82 690q0 96 13 198t37 197t58 177t76 142q74 108 170 124q6 2 13 2h13q34 0 58 -12q12 4 24 6t26 4l14 2q50 0 120 -44t141 -129t133 -208t92 -281q16 -92 16 -176q0 -138 -39 -269t-115 -239q-54 -76 -117 -124t-123 -58q-16 -4 -33 -4h-35q-82 0 -166 30t-156 91 t-125 152t-77 215q-18 92 -18 204zM194 692q0 -50 3 -96t13 -88q20 -112 68 -188t107 -123t124 -67t121 -20h23t23 4q28 4 72 35t92 99q66 94 100 208t34 236q0 40 -3 78t-11 76q-28 140 -79 245t-107 176t-106 108t-74 41q-8 -22 -26 -32q-14 -8 -28 -8q-12 0 -24 4t-28 10 q-8 -4 -24 -4q-28 0 -42 20q-34 -22 -64 -66q-38 -52 -68 -127t-51 -162t-33 -179t-12 -180z" />
<glyph unicode="1" horiz-adv-x="658" d="M-20 1288q0 24 16 40q2 2 26 21t61 46t83 60t94 63q14 8 30 8t32 -10q18 -2 32 -14t18 -30q12 -56 22 -149t18 -195t13 -197t5 -153q0 -38 5 -108t12 -153t15 -170t16 -158t13 -118t5 -49q0 -22 -15 -37t-41 -19q-22 0 -38 14t-18 36q-2 6 -7 54t-12 120t-15 158t-15 168 t-12 152t-5 110q0 54 -4 134t-10 166t-15 170t-17 144q-40 -28 -77 -54t-64 -46t-43 -32l-18 -14q-14 -14 -34 -14q-26 0 -42 20q-14 14 -14 36z" />
<glyph unicode="2" horiz-adv-x="1142" d="M44 1230q0 4 14 40t45 81t81 90t122 67q70 22 124 35t108 13q38 0 81 -8t97 -26q110 -38 171 -97t88 -123t32 -129t5 -115q0 -78 -32 -140t-85 -115t-120 -98t-135 -89l-132 -88t-118 -96q-72 -70 -108 -154t-44 -204q26 2 72 7t104 10t123 8t131 3h28q164 -4 260 -19 t100 -15q44 -10 44 -68q-4 -20 -22 -32t-46 -10q-40 6 -92 14q-44 6 -107 11t-139 7h-28q-76 0 -154 -5t-141 -11t-105 -11t-46 -5q-6 0 -13 1t-27 1q-24 0 -40 17t-16 39q2 168 47 284t141 212q58 58 128 105t140 93q62 38 120 77t102 81t71 89t27 101q0 60 -6 113t-28 99 t-66 82t-122 64q-44 16 -77 23t-63 7q-42 0 -88 -12t-116 -34q-50 -16 -84 -49t-56 -67q-26 -40 -44 -86q-14 -40 -70 -38q-18 6 -29 23t-7 47z" />
<glyph unicode="3" horiz-adv-x="1154" d="M20 296q0 18 12 32t44 24q18 0 33 -10t21 -28q18 -46 48 -84q26 -34 67 -67t99 -49q78 -22 130 -33t104 -11q66 0 162 26q86 24 135 58t74 75t33 88t14 95l4 42q0 44 -28 118t-94 146q-26 30 -61 60t-82 54t-105 39t-130 15q-4 0 -10 2t-22 10l-16 14q0 2 -1 5l-5 15 q-2 2 -2 5t2 17q0 2 1 5t9 17q28 38 65 86t79 100q48 58 96 119t84 111q-42 4 -97 7t-121 3q-78 0 -160 -6t-151 -12t-114 -12t-49 -6q-22 0 -37 14t-19 42q0 22 13 36t35 18q4 0 49 6t114 13t153 13t166 6q98 0 173 -6t121 -12q12 10 32 10q12 0 28 -6q4 -4 9 -8t9 -10 q34 -14 34 -62q-10 -44 -62 -44q-36 -54 -95 -130t-123 -154q-22 -28 -42 -53t-38 -49q64 -10 117 -31t97 -48t79 -57t61 -60q80 -88 115 -182t35 -158v-24l-4 -30q-6 -52 -16 -111t-44 -115t-99 -105t-179 -81q-58 -16 -105 -23t-87 -7q-62 0 -123 14t-145 36 q-78 20 -133 64t-89 90t-50 85t-18 49z" />
<glyph unicode="4" horiz-adv-x="1100" d="M52 1284q0 44 56 56q20 0 35 -13t19 -33q10 -48 19 -128t16 -169t13 -177t8 -156q34 4 82 10t105 11t118 8t119 3q82 0 146 -6q-2 28 -2 50v38q0 62 -5 156t-13 193t-18 189t-20 144q0 20 14 36t42 20q20 0 35 -12t19 -32q12 -56 22 -149t18 -195t13 -197t5 -153 q0 -16 1 -41t3 -55q46 -6 72 -11t30 -5q44 -10 44 -66q-10 -44 -66 -44q-2 0 -20 4t-52 8q6 -86 15 -181t17 -174t14 -133t6 -58q0 -22 -14 -37t-42 -19q-22 0 -37 14t-17 36q0 6 -6 63t-15 139t-18 178t-17 182q-34 2 -72 4t-82 2q-78 0 -160 -6t-151 -13t-115 -13t-52 -6 q-24 0 -40 16t-16 40q0 62 -5 156t-13 193t-18 189t-20 144z" />
<glyph unicode="5" horiz-adv-x="1208" d="M62 1358q0 14 5 27t15 29q0 20 13 35t35 19q4 0 47 6t109 13t147 13t159 6q156 0 249 -14t97 -14q20 -4 32 -22t10 -46q-10 -44 -66 -42q-2 0 -89 13t-233 13q-60 0 -123 -4t-120 -9t-103 -10t-72 -9q6 -36 13 -84t12 -104t10 -116t9 -118q64 22 154 38t192 16 q58 0 116 -7t116 -23q86 -24 151 -77t109 -121t67 -142t23 -138v-18t-2 -16l-2 -30q-6 -52 -16 -111t-43 -115t-97 -105t-174 -81q-56 -16 -101 -23t-85 -7q-60 0 -118 14t-142 36q-76 20 -129 64t-86 91t-49 85t-18 48q0 18 13 33t43 23q18 0 33 -10t21 -28l12 -26 q10 -26 35 -59t64 -66t95 -49q76 -22 127 -33t99 -11q64 0 156 26q84 24 131 58t71 75t32 88t14 95l4 30v20q0 42 -16 99t-49 111t-84 99t-119 63q-48 14 -99 20t-103 6q-106 0 -199 -19t-147 -41q-6 -4 -20 -4h-10t-22 -2q-22 0 -38 16t-18 38q-4 60 -9 128t-11 134 t-13 125t-15 101z" />
<glyph unicode="6" horiz-adv-x="1304" d="M62 748q0 108 18 204q16 94 48 176t83 147t123 111t168 70q44 10 88 15t88 5q120 0 227 -47t177 -157q10 -12 10 -30q0 -22 -19 -37t-41 -15q-28 0 -46 26q-52 82 -135 117t-175 35q-106 0 -202 -40q-76 -30 -129 -77t-88 -108t-53 -133t-24 -150q-2 -24 -3 -50t-1 -54 v-32q36 68 93 121t128 88t151 53t160 18q64 0 124 -11t116 -33q74 -30 130 -78t92 -107t54 -127t18 -136q0 -76 -20 -149t-61 -138t-100 -117t-137 -84q-58 -24 -119 -35t-121 -11q-126 0 -241 47t-199 145q-48 56 -83 124t-57 143t-32 154t-10 157zM200 514q18 -86 54 -162 t96 -130q70 -64 160 -100t186 -36q54 0 107 13t105 41q106 56 166 145t60 203q0 24 -3 48t-7 48q-26 108 -94 186t-178 106q-68 16 -140 16q-78 0 -159 -19t-147 -60t-110 -102t-50 -145q-2 -22 -16 -35t-30 -17z" />
<glyph unicode="7" horiz-adv-x="998" d="M-52 1414q0 20 13 35t35 19q4 0 50 6t115 13t153 13t166 6q162 0 259 -14t101 -14q44 -10 44 -74q-10 -58 -34 -149t-54 -188t-60 -186t-50 -143q-14 -36 -35 -103t-45 -147t-47 -163t-43 -151t-32 -112t-12 -46q-4 -18 -21 -30t-47 -10q-18 6 -30 23t-10 47q2 6 15 52 t32 115t43 152t47 162t44 146t37 105q20 52 46 130t51 162t48 166t37 140q-42 6 -115 12t-169 6q-78 0 -160 -6t-151 -12t-115 -12t-50 -6q-20 0 -36 14t-20 42z" />
<glyph unicode="8" horiz-adv-x="1284" d="M92 452q0 104 82 202q72 90 188 142q-50 22 -89 57t-67 77t-46 88t-26 92q-4 10 -4 20v20q0 90 68 174q70 84 184 131t248 47q28 0 56 -3t58 -7q80 -12 142 -51t105 -91t66 -109t23 -107v-20q0 -32 -4 -69t-20 -75t-48 -75t-92 -69q70 -28 125 -74t93 -100t58 -112 t20 -108v-24q-2 -46 -7 -98t-34 -104t-89 -99t-170 -83q-68 -22 -121 -32t-105 -10q-48 0 -100 8t-122 18q-84 14 -147 54t-108 95t-73 120t-40 129q-2 10 -3 22t-1 24zM204 450q0 -16 2 -24q10 -50 31 -100t56 -93t82 -74t111 -41q66 -10 112 -17t88 -7q44 0 88 9t104 27 q82 26 126 58t65 67t26 74t5 81v30q0 32 -19 80t-57 93t-94 81t-130 48q-30 4 -61 6t-61 2q-132 0 -243 -44t-175 -122q-56 -68 -56 -134zM244 1132q8 -40 25 -81t44 -76t65 -60t90 -33q54 -10 92 -14t72 -4q36 0 72 6t84 22q66 22 102 47t53 53t20 59t5 65v24q0 26 -15 64 t-46 74t-76 65t-105 39q-26 4 -51 6t-49 2q-108 0 -198 -36t-142 -100q-44 -50 -42 -122z" />
<glyph unicode="9" horiz-adv-x="1318" d="M40 944q0 76 22 150t65 138t106 115t145 81q54 20 111 29t115 9q126 0 243 -47t205 -145q48 -54 83 -121t58 -141t33 -152t10 -156q0 -64 -6 -124t-20 -116q-40 -182 -146 -302t-294 -158q-40 -8 -78 -12t-78 -4q-124 0 -232 46t-182 156q-10 16 -10 30q0 22 19 37t41 15 q30 0 46 -24q54 -82 139 -117t179 -35q54 0 109 11t105 31q74 28 126 74t87 106t53 130t24 146q2 24 2 49v53v34q-34 -70 -92 -122t-130 -87t-153 -53t-163 -18q-138 0 -258 52q-144 66 -214 187t-70 255zM148 962q0 -22 3 -45t7 -47q26 -108 96 -184t180 -104 q34 -10 70 -13t76 -3q78 0 159 18t148 57t112 99t51 144q2 22 16 35t30 17q-18 84 -54 158t-96 128q-74 64 -164 100t-186 36q-94 0 -188 -38q-118 -50 -189 -144t-71 -214z" />
<glyph unicode=":" horiz-adv-x="332" d="M102 30q0 34 23 57t57 23q32 0 55 -23t23 -57t-23 -56t-55 -22q-34 0 -57 22t-23 56zM102 656q0 32 23 55t57 23q32 0 55 -23t23 -55q0 -34 -23 -57t-55 -23q-34 0 -57 23t-23 57z" />
<glyph unicode=";" horiz-adv-x="346" d="M102 -122q2 30 7 72t9 87t10 87t12 74q4 22 21 34t45 10q22 -4 34 -21t10 -45q-10 -44 -18 -124t-18 -184q-2 -22 -18 -37t-42 -13q-22 0 -37 17t-15 43zM116 656q0 32 23 55t57 23t56 -23t22 -55q0 -34 -22 -57t-56 -23t-57 23t-23 57z" />
<glyph unicode="&#x3c;" horiz-adv-x="938" d="M20 703q0 3 2 17l8 20l4 4t14 12q4 2 44 24t102 54t138 68t152 66q152 58 248 80t100 24h10q20 0 35 -14t19 -42q0 -20 -12 -35t-34 -19l-24 -4q-24 -6 -67 -18t-103 -31t-132 -47q-84 -32 -168 -72t-148 -74q68 -28 156 -69t172 -87q144 -78 222 -137t82 -63 q18 -16 18 -42q0 -22 -12 -36q-20 -20 -44 -20q-20 0 -36 14q-32 26 -74 56q-36 26 -89 59t-121 71t-143 73t-138 62t-106 44t-47 19t-7 5l-13 13l-6 20q-2 2 -2 5z" />
<glyph unicode="=" horiz-adv-x="1080" d="M72 444q0 22 13 37t35 19q4 0 49 6t114 13t153 13t166 6q164 0 261 -14t101 -16q44 -10 42 -66q-6 -44 -66 -44q-40 6 -92 14q-44 4 -107 9t-139 5q-78 0 -160 -6t-151 -13t-114 -13t-49 -6q-22 0 -37 14t-19 42zM72 820q0 22 13 37t35 19q4 0 49 6t114 13t153 13t166 6 q164 0 261 -14t101 -16q44 -10 42 -66q-6 -44 -66 -44q-40 6 -92 14q-44 4 -107 9t-139 5q-78 0 -160 -6t-151 -13t-114 -13t-49 -6q-22 0 -37 14t-19 42z" />
<glyph unicode="&#x3e;" horiz-adv-x="938" d="M20 1016q4 28 20 42t36 14h10q2 0 28 -6t72 -18t109 -31t139 -49q74 -30 151 -66t138 -68t101 -54t44 -24l16 -12l10 -18l2 -22l-6 -22q-10 -14 -13 -17t-7 -5t-47 -19t-107 -44t-139 -62t-143 -73q-136 -74 -209 -130t-75 -56q-14 -14 -36 -14t-42 20q-14 14 -14 36 q0 26 20 42q4 4 81 63t221 137q84 46 173 87t157 69q-64 34 -149 74t-169 72q-72 28 -131 47t-102 31t-67 18l-24 4q-22 4 -35 19t-13 35z" />
<glyph unicode="?" horiz-adv-x="1012" d="M-20 1142q0 2 11 39t37 85t70 97t112 77q76 32 132 50t118 18q32 0 67 -5t77 -17q112 -30 176 -84t96 -117t41 -126t13 -111v-24q0 -52 -15 -95t-39 -80t-54 -69l-60 -64q-36 -36 -71 -75t-63 -85t-45 -103t-17 -131q0 -10 1 -22t1 -28q0 -22 -15 -38t-41 -18 q-22 0 -38 15t-18 37q0 14 -1 27t-1 27q0 92 21 163t54 127t74 100t79 82q28 28 53 55t43 56t29 62t11 73q-4 56 -14 109t-35 97t-70 78t-123 54q-70 18 -114 18q-46 0 -92 -15t-120 -47q-46 -18 -77 -54t-49 -72t-26 -62l-8 -28q-10 -44 -66 -44q-44 10 -44 68zM448 66 q0 32 21 54t51 26h6q32 0 54 -22t26 -58q0 -30 -22 -53t-58 -25q-30 0 -53 22t-25 56z" />
<glyph unicode="@" horiz-adv-x="1322" d="M40 482q0 40 6 86q20 190 100 345t190 266t231 171t221 62h10q214 0 346 -128q68 -70 103 -167t35 -227q-2 -132 -25 -232t-60 -168t-85 -103t-98 -41q-46 0 -93 38t-69 138q-56 -88 -125 -143t-133 -55q-112 0 -166 66q-54 62 -54 184q0 64 14 134q18 108 76 185 t127 125t138 71t111 23q10 0 19 -1t19 -3q4 2 9 2t13 2q22 0 36 -14t18 -36q28 -34 40 -82q0 -24 -16 -40q0 -28 -3 -64t-13 -86q-4 -16 -7 -31t-9 -39q0 -8 -1 -17t-1 -19q0 -30 6 -68t16 -86q6 -26 18 -49t32 -23q20 2 46 29t50 80t41 135t17 194q0 206 -106 308 q-58 58 -133 77t-141 19q-84 -2 -187 -56t-196 -152t-163 -234t-88 -302q-2 -20 -3 -38t-1 -36q0 -164 84 -250q58 -60 143 -81t165 -21q16 0 29 1t27 1q44 2 94 24t97 49t84 55t57 46q14 12 36 12q26 0 42 -18q14 -16 14 -38q0 -24 -20 -42q-4 -4 -41 -33t-94 -65t-126 -67 t-137 -35q-16 0 -31 -1t-31 -1q-256 0 -388 138q-116 120 -116 326zM486 572q0 -46 8 -72t18 -38q8 -10 25 -18t57 -8q22 0 56 25t69 68t68 101t51 124q4 34 5 80t1 90v41t-4 35q-22 0 -73 -16t-106 -52t-102 -96t-61 -146q-12 -72 -12 -118z" />
<glyph unicode="A" horiz-adv-x="1320" d="M40 10q0 10 6 22q0 2 22 51t55 124t73 166t76 175q-56 -6 -92 -11t-42 -5q-22 0 -37 14t-19 42q0 22 13 37t35 19q4 0 57 7t133 15q16 36 27 66t19 52q18 54 53 143t75 186t81 188t71 151q4 32 32 46q8 4 26 4q16 0 28 -6q26 -14 30 -46q26 -60 61 -152t70 -189t63 -186 t44 -143q10 -38 35 -108t55 -153t63 -169t59 -157t44 -116t18 -47q4 -8 4 -20q0 -38 -36 -52q-6 -4 -20 -4q-16 0 -31 9t-21 27q-2 6 -24 61t-53 135t-69 175t-74 181q-40 6 -92 14q-44 4 -107 9t-139 5q-52 0 -107 -3t-107 -7q-36 -86 -78 -184t-80 -182t-64 -143t-28 -65 q-16 -32 -52 -32q-14 0 -22 4q-34 16 -34 52zM446 676q80 6 166 6q108 0 186 -7t124 -13q-10 28 -17 50t-13 38q-12 48 -34 117t-49 146t-55 154t-54 141q-30 -64 -63 -141t-64 -154t-58 -147t-43 -118q-4 -16 -11 -33t-15 -39z" />
<glyph unicode="B" horiz-adv-x="1232" d="M82 1416q0 18 8 28q-4 10 -6 30q0 20 14 36t42 20q44 0 54 -42q60 16 116 25t120 9q62 0 139 -11t181 -39q68 -18 120 -60t87 -94t53 -109t18 -107v-13t-2 -13l-2 -20q-4 -32 -9 -68t-21 -73t-46 -72t-80 -63q62 -26 105 -57t73 -63q58 -64 81 -129t23 -117v-24l-4 -22 q-4 -48 -14 -99t-42 -100t-93 -92t-169 -73q-26 -8 -75 -13t-108 -10t-122 -8t-117 -4t-93 -2t-51 -1q-22 0 -39 17t-17 49q0 6 -5 49t-11 108t-14 145t-15 161t-13 154t-8 125v20q0 50 -4 124t-9 155t-12 160t-15 143q-6 4 -10 13t-8 27zM212 1378q8 -62 15 -137t12 -150 t9 -144t4 -119h84q38 -2 76 -3t78 -1h26t36 4q10 0 19 1t19 1q8 0 15 -1t17 -1q32 4 61 7t51 11q60 16 94 39t52 52t24 61t10 68l2 36q0 30 -11 70t-35 78t-61 69t-87 45q-96 26 -165 36t-125 10q-58 0 -110 -9t-110 -23zM256 716q4 -68 12 -160t17 -185t17 -172t12 -121 q66 2 141 5t143 7t122 10t78 12q80 24 126 52t69 61t30 71t13 84l2 22v14q0 34 -17 79t-57 89q-22 22 -52 44t-71 41t-95 32t-122 15q-32 -2 -65 -3t-67 -1q-40 0 -80 1t-80 3h-76z" />
<glyph unicode="C" horiz-adv-x="1180" d="M62 768q0 66 4 115t13 88t22 71t31 62q2 4 29 49t67 103t91 113t101 79q58 26 116 38t110 12q56 0 98 -12q20 -4 52 -15t65 -25t61 -30t40 -30q16 -22 21 -53t5 -59q0 -22 -16 -39t-40 -17q-22 0 -39 17t-17 39v22t-2 20q-20 10 -67 31t-89 31q-16 4 -33 6t-37 2 q-42 0 -89 -9t-89 -31q-28 -12 -61 -46t-66 -77t-63 -89t-50 -84q-14 -26 -25 -52t-18 -58t-10 -74t-3 -98q0 -136 32 -237t83 -175t116 -122t130 -77t124 -40t99 -11q72 0 130 20t99 44t65 46l22 20q16 16 40 16t38 -14q18 -18 18 -42q0 -22 -16 -38q-2 -2 -31 -28t-80 -56 t-123 -55t-162 -25q-106 0 -227 41t-226 133t-174 239t-69 361z" />
<glyph unicode="D" horiz-adv-x="1352" d="M62 1416q0 16 6 28q0 4 -1 11t-3 19q0 20 14 36t42 20q44 0 54 -42q60 16 115 25t121 9q62 0 139 -11t181 -39q78 -22 169 -76t169 -141t130 -209t52 -278q0 -206 -41 -348t-105 -233t-142 -140t-154 -71q-36 -10 -109 -14t-155 -4q-52 0 -103 1t-93 2t-71 3t-39 2 q-22 0 -37 18t-15 48q-2 6 -7 54t-12 119t-15 157t-15 169t-12 153t-5 110q0 50 -3 124t-9 155t-14 160t-16 143q-4 4 -8 13t-8 27zM192 1378q8 -68 15 -151t13 -164t9 -152t3 -117q0 -34 4 -91t9 -127t12 -145t14 -144t13 -125t10 -86q58 -4 123 -5t129 -1q80 0 142 3 t90 11q112 32 182 105t110 169t54 203t14 207q0 132 -45 235t-111 178t-142 121t-138 62q-96 26 -165 36t-127 10t-109 -9t-109 -23z" />
<glyph unicode="E" horiz-adv-x="1178" d="M82 1474q0 20 14 36t42 20q44 0 54 -42q14 20 38 24q4 0 49 6t114 13t153 13t166 6q164 0 261 -14t101 -16q44 -10 44 -66q-10 -44 -68 -44q-40 6 -92 14q-44 4 -107 9t-139 5q-78 0 -160 -6t-151 -13t-114 -13t-49 -6q-18 0 -34 10q10 -66 18 -152t14 -172t10 -163 t4 -127q18 2 58 7t95 10t121 9t136 8q22 0 39 -16t17 -40q0 -22 -16 -39t-38 -17q-72 -4 -143 -9t-127 -10t-94 -10t-44 -5q4 -68 12 -151l16 -166t15 -155t13 -116q24 2 73 8t113 12t135 10t141 4q164 0 261 -14t101 -14q44 -10 44 -66q-4 -22 -21 -34t-45 -10q-2 0 -93 13 t-247 13q-78 0 -160 -6t-151 -12t-114 -12t-49 -6h-38q-22 0 -38 14t-18 36q-2 6 -7 54t-12 119t-15 157t-15 169t-12 153t-5 110q0 60 -5 154t-13 193t-18 189t-20 144z" />
<glyph unicode="F" horiz-adv-x="964" d="M72 1474q0 20 14 36t42 20q44 0 54 -42q14 20 38 24q4 0 49 6t114 13t153 13t166 6q164 0 261 -14t101 -16q44 -10 42 -66q-6 -44 -66 -44q-40 6 -92 14q-44 4 -107 9t-139 5q-78 0 -160 -6t-151 -13t-114 -13t-49 -6q-18 0 -34 10q10 -66 18 -152t14 -172t10 -163 t4 -127q18 2 58 7t95 10t121 9t134 8h2q22 0 38 -16t18 -40q0 -22 -16 -39t-38 -17q-72 -4 -143 -9t-127 -10t-94 -10t-44 -5q4 -56 10 -125t13 -140t14 -139t12 -121t9 -86t4 -35q0 -22 -15 -38t-43 -18q-22 0 -37 14t-17 36q-2 6 -7 54t-12 119t-15 157t-15 169t-12 153 t-5 110q0 60 -5 154t-13 193t-18 189t-20 144z" />
<glyph unicode="G" horiz-adv-x="1330" d="M52 768q0 66 4 115t13 88t23 71t32 62q2 4 30 50t71 103t96 112t105 79q58 26 119 37t115 11q56 0 100 -10q20 -4 54 -15t68 -25t64 -30t42 -30q12 -16 12 -36q0 -28 -20 -42q-14 -14 -36 -14t-40 18q-6 4 -25 13t-43 19t-51 19t-51 15q-16 4 -34 6t-40 2q-44 0 -93 -9 t-95 -31q-28 -12 -62 -46t-69 -77t-66 -90t-53 -85q-16 -24 -26 -50t-18 -58t-11 -74t-3 -98q0 -136 34 -237t87 -175t121 -122t136 -77t130 -40t104 -11q76 0 137 20t105 44t68 46l22 20q16 16 40 16q-6 102 -16 207t-20 177q-76 -4 -148 -9t-129 -11t-94 -10t-39 -4 q-22 0 -37 14t-19 42q0 22 13 37t35 19q2 0 39 4t97 10t136 11t158 9q6 6 22 10l12 2q44 0 54 -46q12 -54 22 -148t18 -195t13 -196t5 -153q0 -22 -17 -39t-39 -17q-24 0 -40 17t-16 39t-1 49t-3 57q-22 -18 -58 -41t-84 -44t-108 -35t-128 -14q-72 0 -154 18t-163 57 t-154 99t-130 146t-90 199t-33 255z" />
<glyph unicode="H" horiz-adv-x="1272" d="M62 1474q0 20 14 36t42 20q20 0 35 -12t19 -32q10 -52 20 -135t17 -176t12 -183t7 -154q34 4 82 9t105 10t118 8t119 3q128 0 215 -10t123 -16q-2 68 -7 157t-13 178t-17 169t-17 128q0 20 14 36t42 20q20 0 35 -12t19 -32q12 -56 22 -149t18 -195t13 -197t5 -151 q0 -38 5 -108t12 -153t15 -170t15 -158t12 -118t5 -49q0 -22 -14 -38t-42 -18q-22 0 -37 14t-17 36q0 6 -5 45t-11 98t-14 133t-15 150t-13 146t-8 124q-2 0 -93 14t-247 14q-58 0 -119 -4t-117 -9t-104 -10t-80 -9q2 -52 8 -123t13 -147t14 -149t13 -132t10 -96t4 -39 q0 -22 -14 -38t-42 -18q-22 0 -37 14t-17 36q-2 6 -7 54t-12 119t-15 157t-15 169t-12 153t-5 110q0 60 -5 154t-13 193t-18 189t-20 144z" />
<glyph unicode="I" horiz-adv-x="480" d="M102 1474q0 20 14 36t42 20q20 0 36 -12t20 -32q10 -56 20 -149t18 -195t13 -197t5 -151q0 -38 5 -108t12 -153t15 -170t16 -158t13 -118t5 -49q0 -22 -15 -38t-41 -18q-22 0 -37 14t-19 36q0 6 -5 54t-13 119t-16 157t-15 169t-12 153t-5 110q0 60 -5 154t-13 193 t-18 189t-20 144z" />
<glyph unicode="J" horiz-adv-x="1128" d="M30 532q0 10 1 21t1 21q2 22 18 38t40 16q22 -2 38 -18t16 -42q0 -10 -1 -18t-1 -18q0 -72 13 -130t32 -102t43 -77t48 -55q56 -52 118 -75q57 -21 112 -21h10q54 6 107 14t99 33t82 71t56 128q12 52 17 126t5 144q0 82 -3 142t-3 64q-2 64 -7 161t-12 199t-15 195 t-18 149q0 20 15 36t43 20q20 0 35 -13t19 -35q10 -56 19 -152t16 -200t12 -201t5 -157q0 -12 2 -72t2 -140q0 -76 -4 -155t-20 -137q-26 -110 -78 -174t-114 -97t-128 -44t-120 -17q-8 0 -14 -1t-14 -1q-62 0 -143 29t-157 101q-30 28 -61 68t-55 95t-40 124t-16 157z" />
<glyph unicode="K" horiz-adv-x="1344" d="M62 1474q0 20 14 36t42 20q20 0 35 -12t19 -32q12 -56 22 -149t18 -195t13 -197t5 -151v-32q28 36 68 85t85 103t95 111t98 109q72 78 133 138t106 101t71 63t28 24q14 12 36 12q26 0 44 -20q12 -16 12 -36q0 -26 -20 -42q-2 -2 -94 -84t-234 -232q-10 -10 -18 -20 t-18 -20q38 -38 79 -91t80 -111t75 -115t66 -105q18 -30 58 -83t87 -114t98 -125t92 -117t68 -86t27 -35q14 -14 14 -34q0 -28 -22 -44q-16 -12 -34 -12q-30 0 -44 20q-4 4 -33 39t-71 88t-92 117t-97 126t-86 115t-59 85q-28 46 -63 101t-72 109t-74 103t-71 85 q-58 -66 -109 -128t-91 -111t-64 -79l-24 -32q-8 -10 -20 -16q6 -88 16 -185t18 -181t14 -140t6 -60q0 -22 -14 -38t-42 -18q-22 0 -37 14t-17 36q-2 6 -7 54t-12 119t-15 157t-15 169t-12 153t-5 110q0 60 -5 154t-13 193t-18 189t-20 144z" />
<glyph unicode="L" horiz-adv-x="1148" d="M102 1474q0 20 14 36t42 20q20 0 36 -12t20 -32q10 -56 20 -149t18 -195t13 -197t5 -151q0 -48 7 -142t17 -199t20 -203t16 -154q24 2 73 8t113 12t136 10t142 4q162 0 259 -14t101 -14q22 -4 34 -21q10 -15 10 -37v-8q-10 -44 -61 -44h-5q-2 0 -93 13t-245 13 q-78 0 -160 -6t-150 -12t-112 -12t-46 -6h-6t-20 2q-4 0 -8 -1t-12 -1q-22 0 -37 14t-19 36q0 6 -5 54t-13 119t-16 157t-15 169t-12 153t-5 110q0 60 -5 154t-13 193t-18 189t-20 144z" />
<glyph unicode="M" horiz-adv-x="1822" d="M102 1474q0 4 1 9t-1 19q0 24 16 40q20 16 40 16q24 0 40 -16q38 -38 78 -91t79 -110t76 -115t67 -106q24 -38 78 -111t116 -153t121 -153t89 -111q32 60 71 127t75 130t68 116t52 81q32 44 70 98t74 109t68 109t50 100q4 10 16 22q6 38 56 46q44 0 54 -44 q12 -56 22 -149t18 -195t13 -197t5 -151q0 -38 5 -108t12 -153t15 -170t15 -158t12 -118t5 -49q0 -22 -14 -38t-42 -18q-22 0 -37 14t-19 36q0 6 -5 54t-12 119t-15 157t-15 169t-12 153t-5 110q0 42 -2 102t-7 128t-11 138t-12 132q-48 -82 -106 -165t-104 -149 q-20 -28 -54 -84t-73 -124t-78 -139t-72 -129t-54 -96t-21 -40q-16 -28 -48 -28q-14 0 -28 6q-28 16 -28 50q0 14 6 26l30 68q-4 4 -32 39t-70 88t-93 117t-98 126t-86 115t-59 85q-34 56 -77 124t-89 132q8 -66 14 -141t10 -146t7 -132t3 -103q0 -38 5 -108t12 -153 t15 -170t16 -158t13 -118t5 -49q0 -22 -15 -38t-41 -18q-22 0 -37 14t-19 36q0 6 -5 54t-13 119t-16 157t-15 169t-12 153t-5 110q0 60 -5 154t-13 193t-18 189t-20 144z" />
<glyph unicode="N" horiz-adv-x="1392" d="M92 1474q0 20 14 36t42 20q16 0 29 -6t23 -14q16 10 34 10q28 0 46 -22q28 -36 65 -91t79 -119t85 -132t83 -132t72 -120t54 -94q22 -40 66 -110t98 -154t111 -171t103 -157q-8 72 -16 156t-15 164t-11 148t-4 108q0 60 -5 154t-13 193t-18 189t-20 144q0 20 14 36t42 20 q20 0 36 -12t20 -32q10 -56 20 -149t18 -195t13 -197t5 -151q0 -38 5 -108t12 -153t15 -170t16 -158t13 -118t5 -49q0 -38 -42 -58q-14 -8 -30 -8q-30 0 -48 24l-36 54t-78 119t-103 157t-109 168t-96 152t-66 110q-32 56 -83 141t-108 175t-113 176t-98 144q8 -66 16 -150 t14 -168t9 -158t3 -122q0 -38 5 -108t12 -153t15 -170t16 -158t13 -118t5 -49q0 -22 -15 -38t-41 -18q-22 0 -38 14t-18 36q0 6 -5 54t-13 119t-16 157t-15 169t-12 153t-5 110q0 60 -5 154t-13 193t-18 189t-20 144z" />
<glyph unicode="O" horiz-adv-x="1452" d="M92 662q0 96 15 199t45 205q56 192 147 314t199 156q30 8 62 8h20t20 -4q26 10 70 24q20 6 48 6q60 0 137 -30t153 -84q40 -28 85 -70t89 -98t82 -127t66 -161q30 -102 30 -210q0 -102 -27 -204t-79 -200q-70 -128 -166 -221t-192 -121q-100 -30 -204 -30q-120 0 -234 40 q-44 16 -92 43t-94 69t-85 101t-63 141q-32 108 -32 254zM204 662q0 -126 28 -222q20 -64 50 -112t66 -81t75 -54t73 -33q92 -34 196 -34q90 0 172 24q62 18 143 90t149 198q28 56 60 147t32 205q0 88 -26 178q-24 78 -57 141t-71 112t-77 85t-73 60q-74 52 -137 72t-105 20 q-58 -18 -96 -36t-40 -18q-12 -6 -26 -6q-26 0 -40 18q-70 -38 -134 -138t-106 -244q-28 -94 -42 -188t-14 -184z" />
<glyph unicode="P" horiz-adv-x="1192" d="M82 1474q0 20 14 36t42 20q20 0 36 -14t20 -42q72 18 136 30t138 12q70 0 155 -13t203 -43q74 -20 132 -66t96 -104t58 -121t20 -117q0 -8 -1 -14t-1 -14l-2 -24q-4 -42 -14 -91t-38 -97t-84 -91t-152 -69q-60 -18 -137 -23t-165 -5h-88t-90 2q-26 2 -51 2h-51 q6 -88 16 -189t19 -189t16 -148t7 -64q0 -22 -15 -38t-41 -18q-22 0 -38 14t-18 36q-2 6 -7 54t-12 119t-15 157t-15 169t-12 153t-5 110q0 50 -3 122t-9 152t-13 159t-15 143q-4 4 -6 11t-6 23q0 8 4 20q-2 10 -3 22t-5 28zM212 1364q8 -68 15 -149t12 -159t8 -148t3 -114 v-24t2 -30h55t55 -2q44 -2 87 -2h87q80 0 151 4t123 18q68 20 108 47t60 59t27 70t11 78l2 24l2 16q0 34 -13 79t-41 89t-70 80t-98 52q-108 28 -186 40t-142 12q-70 0 -129 -12t-129 -28z" />
<glyph unicode="Q" horiz-adv-x="1488" d="M82 616q0 96 15 198t45 204q56 194 146 316t200 154q16 6 32 8t30 2q10 0 20 -1t20 -3q26 10 70 24q20 6 48 6q60 0 137 -30t153 -84q40 -28 85 -70t89 -98t82 -128t66 -162q30 -102 30 -208q0 -206 -106 -406q-22 -42 -54 -86q18 -12 35 -24t33 -24q134 -96 203 -164 t73 -72q16 -16 16 -38q0 -26 -18 -40q-20 -16 -38 -16q-28 0 -42 18q0 2 -66 66t-192 156l-72 48q-56 -62 -117 -105t-119 -61q-102 -28 -204 -28q-60 0 -120 9t-114 31q-44 16 -92 43t-94 69t-85 101t-63 141q-32 108 -32 254zM194 614q0 -124 28 -220q18 -64 49 -112 t67 -81t75 -55t73 -34q46 -16 95 -24t101 -8q90 0 172 24q36 10 81 40t91 80q-46 28 -88 52t-73 42t-51 28l-20 10q-16 8 -23 21t-7 29q0 14 6 26q8 16 21 23t29 7q14 0 26 -6q2 -2 23 -13t56 -30t79 -45t92 -56q28 38 48 80q30 56 62 147t32 205q0 42 -6 86t-20 90 q-24 78 -57 141t-71 112t-77 85t-73 62q-74 52 -137 72q-57 18 -97 18h-8q-58 -16 -97 -34t-39 -20q-12 -6 -26 -6q-24 0 -42 18q-70 -36 -133 -136t-105 -244q-28 -94 -42 -189t-14 -185z" />
<glyph unicode="R" horiz-adv-x="1330" d="M102 1474q0 20 14 36t42 20q20 0 36 -14t22 -42q70 18 134 30t140 12q70 0 154 -13t202 -43q74 -20 132 -66t96 -104t58 -121t20 -117q0 -18 -2 -28l-2 -24q-4 -42 -14 -91t-38 -97t-84 -91t-152 -69q-16 -6 -35 -9t-41 -7q26 -24 60 -58t71 -73t76 -82t75 -87 q104 -126 154 -210t52 -88q6 -12 6 -26q0 -16 -7 -29t-23 -21q-12 -6 -26 -6q-34 0 -48 30q-2 0 -49 80t-145 200q-50 60 -106 120t-104 108l-80 80l-34 30q-8 8 -14 20h-82h-90t-90 2q-26 2 -51 2h-49q6 -88 15 -189t18 -189t16 -148t7 -64q0 -22 -15 -38t-41 -18 q-22 0 -37 14t-19 36q0 6 -5 54t-13 119t-16 157t-15 169t-12 153t-5 110q0 50 -3 122t-9 152t-13 159t-15 143q-4 4 -6 11t-6 23q0 8 4 20q-2 10 -3 22t-5 28zM232 1364q8 -68 15 -149t12 -159t8 -148t3 -114v-24t2 -30h56t56 -2q42 -2 86 -2h86q82 0 153 4t121 18 q70 20 109 47t59 59t27 70t11 78l4 40q0 34 -13 79t-41 89t-70 80t-98 52q-108 28 -186 40t-142 12q-70 0 -129 -12t-129 -28z" />
<glyph unicode="S" horiz-adv-x="1248" d="M30 326q0 34 34 52q16 4 22 4q16 0 31 -9t21 -25l14 -26q14 -28 44 -63t76 -70t110 -53q84 -22 139 -34t107 -12q68 0 166 26q86 26 134 60t70 76t27 90t7 100l2 36q0 42 -21 104t-61 122t-101 110t-141 70q-54 16 -115 22t-121 12q-70 6 -137 14t-121 29t-89 58t-41 101 q0 8 -1 14t-1 12q0 78 31 133t76 93t94 62t85 40q46 22 111 31t141 9q68 0 137 -8t135 -24q44 -10 42 -66q-4 -20 -22 -32t-46 -10q-58 16 -123 22t-125 6q-64 0 -117 -7t-89 -23q-42 -18 -82 -39t-70 -49t-47 -66t-17 -90q4 -52 79 -70t205 -28q64 -6 129 -13t127 -23 q96 -26 172 -85t128 -134t80 -156t28 -151l-2 -30q-2 -54 -8 -115t-36 -120t-95 -110t-181 -83q-58 -18 -105 -25t-91 -7q-64 0 -127 14t-153 38q-82 20 -140 65t-96 90t-56 80t-20 39q-6 8 -6 22z" />
<glyph unicode="T" horiz-adv-x="982" d="M-266 1418q0 22 14 38t36 18q2 0 56 4t142 10t199 12t225 10q4 0 8 1t16 -1q28 0 57 1t57 1q128 0 230 -4t175 -10t113 -11t44 -5q22 -2 36 -19q12 -15 12 -37v-6q-2 -22 -18 -35t-44 -13l-38 4q-40 4 -112 10t-173 10t-225 4h-30t-30 -2q8 -66 17 -153t15 -175t10 -167 t4 -129q0 -38 5 -108t12 -153t15 -170t16 -158t13 -118t5 -49q0 -22 -15 -37t-41 -19q-22 0 -38 14t-18 36q0 6 -6 54t-13 119t-15 157t-15 169t-12 153t-5 110q0 54 -4 136t-11 170t-15 172t-16 144q-108 -4 -212 -9t-185 -11t-132 -10t-53 -4q-22 -2 -38 14t-18 42z" />
<glyph unicode="U" horiz-adv-x="1350" d="M30 1456q0 44 56 56q20 0 36 -12t20 -34q12 -58 22 -151t18 -194t13 -195t7 -152l6 -220v-36q0 -192 124 -314q36 -34 76 -58t82 -40t82 -24t74 -8h24q76 6 143 17t121 37t94 70t62 118q16 50 21 119t5 137q0 80 -4 139t-4 63q-2 60 -8 154t-13 193t-17 190t-22 145 q0 44 56 56q20 0 36 -12t20 -34q12 -56 23 -149t19 -194t13 -195t5 -152q0 -12 4 -71t4 -135q0 -74 -6 -151t-24 -135q-32 -106 -92 -168t-134 -94t-151 -42t-141 -16q-10 -2 -17 -2h-17q-90 0 -197 38t-197 124q-84 84 -118 194t-38 240l-6 214q-2 62 -7 157t-13 194 t-18 189t-22 144z" />
<glyph unicode="V" horiz-adv-x="1276" d="M-40 1456q0 32 30 48q10 8 26 8q32 0 48 -30q30 -56 70 -149t80 -194t76 -196t54 -151q14 -46 48 -131t74 -182t79 -192t67 -159q18 40 43 98t52 123t56 134t54 131t44 114t29 82q18 58 54 152t76 196t81 195t69 147q8 16 21 23t29 7q10 0 26 -6q30 -16 30 -50 q0 -12 -8 -26q-26 -50 -64 -138t-77 -186t-74 -192t-55 -156q-14 -40 -41 -110t-61 -153t-69 -168t-66 -156t-52 -119t-23 -54q-12 -30 -44 -34q-12 -12 -20 -16q-16 -4 -22 -4q-16 0 -31 9t-21 25q-2 6 -23 54t-51 119t-66 157t-70 168t-61 152t-39 110q-20 62 -56 156 t-75 192t-77 187t-64 139q-6 12 -6 26z" />
<glyph unicode="W" horiz-adv-x="2418" d="M-82 1456q0 32 30 48q10 8 26 8q34 0 50 -30q28 -56 68 -149t81 -194t76 -196t53 -151q14 -46 48 -131t74 -182t80 -192t68 -159q26 60 67 157t83 198t77 191t51 136q18 58 53 152t75 196t81 195t69 147q8 16 21 23t29 7q14 0 26 -6q30 -16 30 -54q30 -58 69 -151 t78 -191t73 -189t52 -147q14 -46 48 -131t74 -182t80 -192t68 -159q26 60 67 157t83 198t77 191t51 136q18 58 53 152t75 196t81 195t69 147q8 16 21 23t29 7q14 0 26 -6q30 -16 30 -50q0 -12 -6 -26q-26 -50 -64 -138t-78 -186t-75 -192t-55 -156q-12 -40 -39 -110 t-61 -153t-70 -168t-66 -156t-51 -119t-23 -54q-12 -30 -44 -34q-10 -10 -22 -16q-12 -4 -22 -4q-36 0 -52 34q-2 6 -23 54t-51 119t-66 157t-69 168t-61 152t-40 110q-16 50 -42 123t-58 153t-65 159t-61 143q-28 -64 -60 -141t-62 -153t-55 -146t-41 -118 q-12 -40 -40 -110t-61 -153t-69 -168t-66 -156t-51 -119t-23 -54q-12 -30 -46 -34q-6 -10 -20 -16q-6 -2 -11 -3t-11 -1q-36 0 -52 34q-2 6 -23 54t-51 119t-66 157t-69 168t-61 152t-40 110q-20 62 -55 156t-74 192t-78 187t-65 139q-6 12 -6 26z" />
<glyph unicode="X" horiz-adv-x="1222" d="M52 26q0 20 8 30q0 2 30 47t76 115t102 155t109 167t96 152t65 108l14 24q-40 68 -93 153t-106 167t-101 154t-80 114q-10 16 -10 34q0 26 22 44q16 10 34 10q26 0 44 -22q32 -42 76 -107t92 -140t97 -153t89 -144q40 66 89 144t98 153t93 140t76 107q16 22 44 22 q18 0 34 -10q20 -18 20 -44q0 -22 -10 -34q-32 -42 -80 -114t-101 -154t-106 -167t-93 -153l14 -24q22 -38 66 -107t96 -152t108 -168t102 -155t75 -115t31 -47q10 -14 10 -30q0 -30 -26 -46q-14 -10 -30 -10q-30 0 -46 26l-32 48t-70 106t-93 142l-102 156t-95 148t-72 118 q-28 -48 -72 -118t-94 -148t-102 -156t-94 -142t-70 -106l-32 -48q-16 -26 -46 -26q-14 0 -30 10q-24 14 -24 46z" />
<glyph unicode="Y" horiz-adv-x="1062" d="M-82 1474q0 28 22 46q16 10 34 10q12 0 24 -5t20 -17q38 -50 102 -145t134 -203t135 -213t105 -175q18 30 30 48q20 38 53 94t73 120t83 132t85 132t79 119t65 91q16 22 46 22q16 0 32 -10q22 -16 22 -46q0 -20 -10 -34q-38 -50 -97 -138t-122 -187t-121 -193t-92 -156 q-10 -22 -29 -53t-47 -75q2 -48 8 -112t13 -132t14 -134t14 -119t11 -87t4 -36q0 -22 -15 -37t-41 -19q-22 0 -37 13t-19 35q0 4 -4 36t-10 81t-13 111t-14 126t-13 127t-8 115q-12 12 -12 32q0 18 8 28q-6 4 -14 16q-34 60 -99 166t-139 221t-142 217t-106 154 q-12 18 -12 34z" />
<glyph unicode="Z" horiz-adv-x="1288" d="M-10 -8q0 22 14 38t36 18l32 20q0 2 30 47t77 116t103 157t109 169t97 154t66 109q26 48 70 120t95 154t105 165t100 149q-42 6 -116 13t-176 7q-78 0 -160 -6t-151 -13t-114 -13t-49 -6q-22 0 -37 14t-19 42q0 22 13 37t35 19q4 0 49 6t114 13t153 13t166 6 q164 0 261 -14t103 -16q14 20 42 20q18 0 34 -10q22 -18 22 -46q0 -14 -10 -34q-38 -50 -97 -138t-122 -187t-121 -193t-92 -156q-18 -32 -52 -87t-76 -120t-88 -137t-90 -139t-82 -125t-64 -96q58 4 129 8t150 8t161 6t160 2q128 0 230 -4t175 -10t113 -10t44 -4 q22 -4 36 -20q12 -14 12 -37v-7q-2 -22 -18 -35t-44 -13l-38 4q-40 4 -112 10t-173 10t-225 4q-84 0 -172 -3t-171 -7t-157 -9t-130 -9t-89 -7t-35 -3q-22 0 -38 15t-18 41z" />
<glyph unicode="[" horiz-adv-x="708" d="M82 1444q0 20 14 36t42 20q10 0 22 -4q16 12 30 14l8 -54l-8 54q6 2 35 6t73 10t99 11t113 9q22 0 38 -16t16 -40q0 -22 -15 -38t-37 -18q-56 -4 -109 -9t-97 -11t-72 -10t-32 -4q10 -66 19 -154t15 -178t10 -172t4 -134q0 -32 3 -88t9 -123t13 -141t13 -141t12 -124 t10 -91q46 6 114 14t142 12h4q22 0 38 -16t18 -40q0 -22 -16 -38t-38 -18q-56 -4 -109 -9t-96 -11t-72 -10t-35 -4q-22 0 -38 16t-18 50q-2 6 -7 54t-12 119t-15 157t-15 169t-12 153t-5 110q0 62 -5 156t-13 193t-18 189t-20 144z" />
<glyph unicode="\" horiz-adv-x="778" d="M64 1506q6 20 28 24t45 -9t35 -35q26 -54 64 -148t75 -195t69 -196t50 -153q10 -38 35 -108t56 -153t65 -169t61 -157t45 -116t20 -47q10 -22 0 -40t-38 -22q-22 0 -41 14t-29 36q-2 6 -21 54t-47 119t-61 157t-64 169t-56 153t-37 110q-18 62 -50 156t-69 191t-72 185 t-59 138q-10 22 -4 42z" />
<glyph unicode="]" horiz-adv-x="782" d="M0 1490q0 22 14 38t36 18q52 6 102 9t94 5t76 2h48t32 -10q14 10 30 10q22 0 38 -16t18 -38q2 -50 12 -138t25 -185t31 -190t30 -153q10 -38 21 -108t24 -152t24 -168t20 -156t15 -118t6 -54v-2q4 -6 4 -22q0 -22 -17 -39t-47 -17h-42t-71 -2t-91 -5t-100 -9 q-22 0 -38 15t-18 41q0 22 14 37t36 19q72 8 140 11t114 5q-4 34 -11 91t-16 124t-19 139t-20 138t-19 121t-17 87q-12 50 -27 131t-31 171t-31 178t-27 152q-26 0 -114 -2t-192 -14q-22 0 -37 15t-19 41z" />
<glyph unicode="^" horiz-adv-x="974" d="M62 710q0 20 12 36q2 2 57 75t131 209q38 68 72 143t61 138t43 105l16 40l10 18l18 12l20 6l24 -2l18 -10l12 -16q2 -4 24 -44t54 -102t67 -138t65 -152q60 -152 82 -248t24 -108q0 -20 -14 -36t-42 -20q-22 0 -37 13t-19 33q0 2 -21 92t-77 234q-34 84 -74 168t-74 148 q-28 -66 -68 -155t-86 -173q-80 -144 -138 -221t-62 -81q-18 -20 -42 -20q-22 0 -36 14q-20 14 -20 42z" />
<glyph unicode="_" horiz-adv-x="1370" d="M0 12q2 -26 18 -42t38 -14q4 0 72 6t173 13t232 13t247 6t216 -4t165 -10t107 -10l38 -4q28 0 44 13t20 35q0 26 -13 42t-35 20q-8 2 -151 16t-391 14q-122 0 -251 -6t-235 -13t-174 -13t-70 -6q-22 -4 -36 -19t-14 -37zM0 12q2 -26 18 -42t38 -14q4 0 72 6t173 13 t232 13t247 6t216 -4t165 -10t107 -10l38 -4q28 0 44 13t20 35q0 26 -13 42t-35 20q-8 2 -151 16t-391 14q-122 0 -251 -6t-235 -13t-174 -13t-70 -6q-22 -4 -36 -19t-14 -37z" />
<glyph unicode="`" horiz-adv-x="1434" d="M504 1288q0 18 12 36q20 20 44 20q14 0 36 -14q28 -24 45 -36t33 -22q20 -10 41 -25t55 -45q34 -32 52 -54t30 -40q10 -16 22 -32t38 -40q18 -16 18 -40t-14 -38q-18 -18 -42 -18q-22 0 -38 14q-32 30 -48 52t-28 40l-24 32t-40 40q-28 26 -46 38t-34 22q-18 10 -39 24 t-55 42q-18 18 -18 44z" />
<glyph unicode="a" d="M92 534q0 120 36 213t93 163t128 118t139 78t126 43t92 13q60 0 104 -23t73 -52t43 -54t14 -27q6 -10 6 -22q0 -20 -18 -42q18 -94 18 -248q0 -32 -3 -64t-7 -66q18 -124 42 -222t45 -166t36 -105t15 -39q2 -6 3 -11t1 -11q0 -36 -32 -52q-16 -4 -24 -4q-38 0 -50 32 q-4 8 -37 95t-69 243q-32 -78 -75 -144t-92 -114t-102 -75t-105 -27q-204 0 -302 140t-98 430zM204 534q0 -152 25 -242t66 -138t92 -63t105 -15q42 0 92 39t97 105t85 155t56 189q-14 96 -22 202t-10 226q-22 18 -22 44q-14 6 -29 10t-33 4q-26 0 -74 -11t-104 -36 t-113 -65t-104 -98t-77 -134t-30 -172z" />
<glyph unicode="b" horiz-adv-x="1128" d="M102 1528q0 22 15 37t41 19q22 0 38 -15t18 -37q0 -6 6 -68t13 -154t13 -201t6 -207v-32q32 66 74 121t94 93q82 62 172 62q16 0 31 -2t31 -6q200 -60 296 -227t96 -457q0 -254 -174 -382q-76 -58 -167 -80t-173 -22q-78 0 -132 16q-12 4 -24 9t-22 9q0 -44 -56 -54 q-20 0 -35 13t-19 35q-2 4 -7 36t-13 84q-24 32 -35 56t-13 26q-2 6 -3 11t-1 11q0 24 18 40q-8 44 -10 102t-8 134q-10 114 -21 221t-11 183q0 96 -6 204t-13 201t-13 155t-6 66zM284 506q10 -84 22 -164t24 -150q22 -16 22 -52q16 -16 36 -28t44 -18q36 -12 100 -12 t138 17t136 63q128 98 128 292q0 160 -29 264t-74 168t-100 96t-109 48q-8 4 -16 4h-16q-28 0 -55 -12t-47 -28q-36 -28 -73 -74t-66 -109t-47 -140t-18 -165z" />
<glyph unicode="c" horiz-adv-x="842" d="M102 571v23q0 130 47 234t113 177t137 114t121 45q10 2 21 2h21q58 0 101 -11t59 -19q22 -4 46 -31t24 -103q0 -24 -17 -40t-39 -16q-24 0 -40 16t-16 40q0 16 -4 32q-12 4 -42 12t-72 8h-15t-17 -2q-32 -4 -85 -36t-104 -91t-89 -143t-38 -190v-18t2 -18q8 -136 46 -228 t87 -149t98 -82t83 -25q24 0 46 6t40 13t28 15l10 6q14 8 32 8q30 0 46 -24q10 -16 10 -32q0 -26 -26 -46l-14 -10q-16 -10 -42 -20t-59 -19t-71 -9q-48 0 -116 29t-133 98t-115 182t-62 279q-2 12 -2 23z" />
<glyph unicode="d" horiz-adv-x="1082" d="M92 462q0 66 18 138q20 76 65 156t103 150t126 127t136 89q72 34 132 34q24 0 46 -5t50 -19q-4 74 -9 144t-10 125t-8 89t-3 38q0 22 15 37t41 19q22 0 37 -15t19 -37q0 -6 6 -68t13 -154t13 -201t6 -207q0 -64 7 -154t19 -188t25 -195t24 -176t19 -129t8 -54 q0 -20 -14 -36t-42 -20q-20 0 -36 13t-20 35q0 4 -5 38t-13 90q-82 -84 -176 -122t-178 -38q-68 0 -110 22q-60 28 -115 75t-97 108t-67 135t-25 156zM204 460q0 -70 23 -130t58 -108t77 -81t80 -51q24 -12 62 -12q66 0 151 37t155 121q10 14 30 20q-12 78 -23 167t-20 176 t-15 166t-6 137v28t-2 30q-32 10 -38 46q0 4 -5 13t-21 17t-38 8t-44 -7t-40 -15q-56 -26 -114 -76t-109 -112t-90 -131t-57 -133q-14 -54 -14 -110z" />
<glyph unicode="e" horiz-adv-x="1010" d="M92 488q-1 17 -1 33q0 110 24 195q27 98 72 168t101 116t109 72t96 37t63 11q52 0 111 -26t110 -79t87 -135t44 -194q12 -16 12 -36t-12 -34q-10 -40 -54 -40q-20 0 -34 12q-54 -12 -112 -34q-52 -18 -102 -32t-90 -14q-22 0 -59 -6t-81 -16t-89 -21t-81 -21 q8 -124 57 -199t116 -116t142 -54t135 -13q32 0 78 4t88 10t74 10l30 4l8 2q22 0 37 -14t19 -42q0 -22 -13 -37t-35 -19q-4 0 -36 -5t-76 -11t-92 -10t-82 -4q-266 0 -408 141t-156 397zM208 562q34 8 77 18t86 19t82 15t63 6q28 0 71 13t85 27q34 12 64 21t58 17 q-8 80 -34 138t-60 96t-72 57t-72 19q-18 0 -71 -19t-110 -68t-106 -136t-61 -223z" />
<glyph unicode="f" horiz-adv-x="820" d="M40 826q0 22 14 37t36 19q2 0 57 6t145 16v26l-8 292q0 58 25 116t69 104q44 44 97 68t111 24q92 0 160 -37t115 -91t75 -116t38 -112q0 -44 -42 -54l-14 -2q-18 0 -34 12t-20 32q0 4 -14 45t-45 88t-85 85t-134 38q-70 0 -128 -58q-28 -30 -45 -68t-17 -78l8 -304 q58 4 121 8t129 8q22 0 38 -16t18 -40q0 -22 -16 -39t-38 -17q-64 -4 -126 -8t-120 -8q8 -110 27 -241t37 -247t32 -195t14 -85q0 -46 -56 -56q-46 0 -56 46q0 6 -7 44t-18 99t-23 138t-24 161t-22 168t-16 158q-86 -8 -140 -14t-62 -8q-20 0 -36 14t-20 42z" />
<glyph unicode="g" horiz-adv-x="1096" d="M102 338q0 70 18 154t49 168t74 164t93 141t106 98t114 37q42 0 70 -18q10 2 20 2h22q36 0 80 -28t84 -78q4 24 13 44t41 22l52 4l8 -52v-7t-2 -17q0 -12 -1 -54t-1 -144q0 -46 4 -115t11 -150t15 -172t18 -183q8 -90 17 -175t15 -160t10 -137t4 -104q0 -72 -28 -143 t-82 -127t-133 -91t-183 -35q-296 0 -424 324q-4 8 -4 22q0 36 34 52q6 2 11 3t11 1q36 0 52 -38q10 -26 31 -69t57 -83t93 -70t139 -30q86 0 146 28t97 71t54 93t17 92q0 40 -4 101t-10 135t-14 157t-16 167q-38 -60 -83 -106t-92 -79t-92 -50t-83 -17q-78 0 -155 29 t-137 86t-98 142t-38 195zM214 338q0 -94 32 -158t80 -105t103 -59t101 -18q30 0 71 21t84 60t83 94t68 125q6 18 26 28q-14 138 -23 256t-9 192v24q-20 10 -28 26q-42 78 -83 112t-53 36q-34 0 -61 -4t-37 -6q-26 0 -42 20q-50 -20 -105 -90t-101 -163t-76 -198t-30 -193z " />
<glyph unicode="h" horiz-adv-x="1158" d="M122 1522q0 22 15 37t41 19q22 0 38 -14t18 -36q0 -6 6 -65t14 -147t14 -193t6 -201q62 78 153 133t217 55q80 0 147 -32t114 -83t73 -116t26 -131q0 -58 5 -108t11 -96q4 -38 8 -73t4 -69q0 -78 6 -122q2 -18 3 -32t1 -30q0 -26 7 -55t16 -54t19 -46t16 -31q4 -8 6 -14 t2 -14q0 -32 -30 -48q-10 -8 -26 -8q-34 0 -50 28q0 2 -12 24t-25 57t-24 77t-11 84q0 10 -1 22t-3 28q-2 26 -4 58t-2 76q0 28 -4 60t-8 68q-6 48 -11 102t-5 116q0 38 -16 82t-48 81t-78 62t-106 25q-76 0 -135 -27t-103 -68t-74 -90t-48 -91q10 -110 26 -234t33 -231 t29 -179t12 -78q0 -20 -14 -36t-42 -20q-22 0 -37 13t-19 33q0 6 -9 60t-22 136t-29 183t-30 203q-44 10 -42 66q8 44 30 102q-4 44 -6 83t-2 73q0 96 -6 204t-13 201t-14 155t-7 66z" />
<glyph unicode="i" horiz-adv-x="490" d="M92 1276q0 34 23 56t57 22q32 0 55 -22t23 -56t-23 -57t-55 -23q-34 0 -57 23t-23 57zM144 1056q0 20 12 36t34 20h8q22 0 37 -13t19 -33q0 -6 9 -62t21 -136t23 -171t15 -163q4 -70 14 -164t22 -179t21 -146t9 -65q0 -22 -14 -37t-42 -19q-22 0 -37 13t-19 35q0 6 -9 66 t-21 145t-22 179t-14 166q-4 70 -15 160t-22 170t-20 137t-9 61z" />
<glyph unicode="j" horiz-adv-x="506" d="M-450 -472q0 36 34 52q6 2 11 3t11 1q36 0 52 -38q10 -26 31 -69t57 -83t93 -70t139 -30q86 0 146 28t97 71t54 93t17 92q0 40 -4 102t-11 137t-15 159l-16 168q-10 92 -18 184t-15 175t-11 153t-4 118v109t2 73q0 14 1 29t6 28t16 22t31 9l52 4l8 -52v-7t-2 -17 q0 -12 -1 -54t-1 -144q0 -46 4 -115t11 -150t15 -172t18 -183q8 -90 17 -175t15 -160t10 -137t4 -104q0 -72 -28 -143t-82 -127t-133 -91t-183 -35q-296 0 -424 324q-4 8 -4 22zM184 1276q0 34 23 56t55 22q34 0 57 -22t23 -56t-23 -57t-57 -23q-32 0 -55 23t-23 57z" />
<glyph unicode="k" horiz-adv-x="1114" d="M112 1522q0 22 15 37t41 19q22 0 38 -15t18 -37q0 -6 6 -68t13 -155t13 -201t6 -206q0 -36 3 -79t7 -95q24 22 56 52t65 59t65 54t54 37t51 42t57 62q36 40 71 74t69 52q12 6 26 6q32 0 50 -28q6 -12 6 -28q0 -14 -7 -27t-23 -21q-22 -12 -51 -42t-57 -62 q-36 -40 -70 -74t-68 -52q-14 -8 -48 -34q58 -64 113 -132t99 -122q22 -28 67 -76t99 -104t111 -114t104 -105t77 -78t32 -31q18 -16 18 -40q0 -20 -16 -40q-20 -16 -40 -16q-24 0 -40 16l-36 36t-80 79t-105 105t-112 115t-100 105t-67 78q-44 54 -98 122t-112 130 q-34 -30 -65 -60t-57 -54q-10 -10 -26 -16q12 -102 26 -205t26 -187t20 -138t8 -60q0 -22 -14 -37t-42 -19q-20 0 -35 13t-19 35q0 6 -9 58t-20 130t-24 175t-25 196t-19 189t-7 156q0 96 -6 204t-13 201t-13 155t-6 66z" />
<glyph unicode="l" horiz-adv-x="498" d="M144 1522q0 22 14 37t42 19q22 0 37 -15t19 -37q0 -6 6 -68t12 -155t12 -201t6 -206q0 -64 8 -154t19 -188t24 -195t25 -176t20 -129t8 -54q0 -46 -56 -56q-22 0 -37 13t-19 35q-2 6 -10 58t-19 130t-24 175t-25 196t-19 189t-7 156q0 96 -6 204t-12 201t-12 155t-6 66z " />
<glyph unicode="m" horiz-adv-x="1964" d="M154 1144q0 22 14 37t42 19q20 0 35 -13t19 -35q0 -4 4 -25t9 -55t10 -79t11 -93q30 56 72 110t97 96t123 68t150 26q64 0 120 -21t100 -56t76 -82t50 -99q16 22 34 41t36 29q10 4 26 16q26 16 63 37t78 41t85 33t84 13q18 0 47 -1t63 -9t70 -24t66 -46q76 -80 76 -216 q0 -118 -3 -177t-5 -97q-2 -22 -2 -41v-45q0 -30 4 -56t8 -54q6 -28 11 -59t5 -65q0 -24 -2 -48t-6 -46t-6 -42t-2 -40q0 -36 12 -66q2 -6 3 -11t1 -11q0 -36 -36 -52q-16 -4 -20 -4q-38 0 -54 36q-10 28 -14 54t-4 54q0 26 2 50t6 46t6 41t2 39q0 28 -4 52t-10 50 q-4 30 -9 62t-5 70q0 28 1 50t3 44q2 36 4 94t2 172q0 92 -44 136q-36 36 -88 42t-82 6q-28 0 -62 -12t-69 -30t-65 -36l-50 -30q-10 -6 -18 -10t-14 -8q-10 -6 -32 -35t-40 -63q-12 -18 -30 -24q0 -52 5 -98t9 -86t8 -77t4 -71q0 -42 2 -73t4 -57q6 -36 6 -64t7 -58t16 -57 t19 -49t16 -34q8 -10 8 -26t-7 -29t-23 -21q-12 -6 -26 -6q-34 0 -50 28q0 2 -12 25t-25 59t-24 80t-11 88q0 10 -1 24t-3 30q-4 26 -6 60t-2 80q0 28 -4 62t-8 72q-4 52 -10 108t-6 122q0 40 -17 87t-49 86t-79 65t-109 26q-78 0 -139 -30t-106 -74t-75 -96t-49 -97 t-27 -75l-8 -32q-2 -16 -16 -30v-34q0 -50 15 -112t31 -132q24 -90 45 -188t21 -200q0 -22 -17 -39t-39 -17q-24 0 -40 17t-16 39q0 92 -20 184t-42 176q-20 76 -35 144t-15 128q0 58 -8 145t-19 170t-19 144t-8 65z" />
<glyph unicode="n" horiz-adv-x="1222" d="M112 1118q0 20 14 36t42 20q22 0 37 -13t19 -35q0 -4 4 -25t8 -56t10 -79t12 -92q30 56 71 110t96 96t123 68t152 26q82 0 149 -33t115 -87t75 -122t27 -136q0 -60 5 -114t11 -100q4 -40 8 -78t4 -72q0 -80 6 -128q2 -18 3 -33t1 -31q0 -28 7 -58t17 -57t20 -49t16 -34 t6 -28q0 -32 -28 -48q-8 -4 -14 -6t-14 -2q-32 0 -48 30q-2 2 -14 25t-25 59t-24 80t-11 88q0 10 -1 23t-3 29q-2 28 -4 61t-2 79q0 30 -4 63t-8 73q-6 50 -11 107t-5 121q0 40 -17 87t-49 87t-79 66t-109 26q-78 0 -139 -29t-105 -73t-75 -95t-49 -96t-27 -77t-9 -36 q-6 -18 -16 -28v-36q0 -48 14 -110t32 -132q22 -90 43 -188t21 -200q0 -24 -16 -40t-40 -16q-22 0 -39 16t-17 40q0 92 -19 184t-41 176q-20 74 -35 143t-15 127t-8 146t-19 171t-20 144t-9 65z" />
<glyph unicode="o" horiz-adv-x="1040" d="M92 410q0 70 18 154t49 169t74 164t93 141t106 99t114 37q22 0 39 -5t31 -13q10 0 20 1t22 1q42 0 97 -41t104 -116t84 -181t35 -238q0 -134 -46 -248t-115 -198t-150 -131t-149 -47q-78 0 -154 30t-136 87t-98 141t-38 194zM204 410q0 -92 32 -157t80 -105t102 -59 t100 -19q38 0 97 37t115 104t96 161t40 210q0 112 -27 197t-62 144t-70 89t-51 34q-34 0 -61 -5t-37 -7q-24 0 -44 20q-50 -20 -104 -90t-100 -163t-76 -198t-30 -193z" />
<glyph unicode="p" horiz-adv-x="1098" d="M112 994q0 46 56 56q22 0 37 -12t19 -34l6 -38q72 68 158 99t168 31q106 0 180 -46q58 -36 111 -88t93 -116t63 -136t23 -148q0 -74 -22 -138t-63 -128t-95 -120t-119 -100t-131 -68q-66 -26 -128 -26q-64 0 -122 32v-48q0 -110 7 -234t15 -230t15 -177t7 -75 q0 -22 -14 -38t-42 -18q-22 0 -37 14t-19 36q0 2 -7 73t-15 178t-15 233t-7 238q0 72 -9 176t-22 217t-29 225t-30 202t-23 147t-9 61zM244 874q10 -62 22 -143t24 -171t24 -184t20 -180q28 -12 34 -46q0 -2 5 -14t25 -24q32 -18 70 -18q24 0 47 6t43 12q54 20 107 57t99 84 t81 100t53 105q10 26 13 52t3 52q0 64 -21 124t-55 111t-76 92t-84 67q-50 28 -120 28q-62 0 -130 -24t-122 -76q-20 -16 -38 -16q-12 0 -24 6z" />
<glyph unicode="q" horiz-adv-x="1082" d="M112 368q0 70 18 154t49 168t74 164t94 141t106 98t113 37q42 0 70 -18q10 2 21 2h21q66 0 144 -82q10 28 44 30l52 4l8 -52q0 -4 1 -7t-3 -19q0 -14 -1 -63t-1 -167q0 -70 6 -180t16 -240q10 -14 10 -30q0 -6 -1 -11t-5 -13q10 -122 21 -246t21 -234l18 -216t12 -148 q0 -8 6 -43t27 -73t62 -69t111 -31q48 0 83 17t59 45t41 61t29 67l54 -18l52 -20q-98 -264 -318 -264q-78 0 -136 28t-97 73t-60 103t-25 118q-4 52 -12 146t-18 214q-6 74 -13 155t-15 165q-72 -96 -157 -147t-153 -51q-78 0 -155 29t-137 86t-98 142t-38 195zM224 368 q0 -94 32 -158t80 -105t103 -59t101 -18q28 0 67 19t80 54t80 86t67 115q-10 140 -17 260t-7 196v100q-42 76 -82 109t-52 35q-34 0 -61 -4t-37 -6q-26 0 -42 20q-50 -20 -105 -90t-101 -163t-76 -198t-30 -193z" />
<glyph unicode="r" horiz-adv-x="886" d="M134 1118q0 20 14 36t42 20q20 0 35 -13t19 -35q0 -4 5 -33t11 -73t13 -100t13 -112q40 82 95 145t113 105t112 63t92 21q44 0 74 -7t49 -16t30 -19t15 -16q10 -14 10 -30q0 -32 -24 -46q-12 -10 -32 -10q-24 0 -42 18q-4 2 -21 8t-59 6q-24 0 -86 -30t-126 -98 t-115 -177t-51 -267q6 -26 12 -53t14 -55q22 -90 44 -188t22 -200q0 -24 -17 -40t-39 -16q-24 0 -40 16t-16 40q0 92 -20 184t-42 176q-20 74 -35 143t-15 127t-8 146t-19 171t-19 144t-8 65z" />
<glyph unicode="s" horiz-adv-x="1040" d="M82 236q0 44 56 56q18 0 34 -11t20 -31q22 -84 63 -131t84 -71t80 -29t51 -5q18 0 50 5t65 14t64 19t47 20q18 10 48 37t57 62t47 75t20 76q0 20 -12 47t-43 60t-88 71t-147 82q-58 28 -121 58t-117 55t-90 43l-36 16l-32 14v36q0 92 46 161t112 116t139 71t129 24 q58 0 98 -14t66 -31t39 -32t15 -19q10 -14 10 -30q0 -30 -26 -46q-16 -10 -30 -10q-30 0 -46 26q-2 0 -9 7t-22 15t-38 15t-57 7t-82 -14t-96 -43t-86 -71t-48 -98q26 -12 64 -29t83 -38t93 -44t90 -43q354 -172 354 -362q0 -58 -26 -114t-62 -103t-75 -82t-65 -49 q-24 -14 -63 -27t-80 -23t-78 -16t-61 -6q-52 0 -111 17t-113 56t-97 103t-67 158z" />
<glyph unicode="t" horiz-adv-x="844" d="M30 980q0 20 13 35t35 19q2 0 27 5t64 10t89 10t104 9q-4 56 -9 111t-10 106t-11 95t-12 76q0 20 14 36t42 20q20 0 35 -12t19 -34q14 -62 26 -170t22 -222q68 0 123 -4t94 -10t62 -11t25 -5q18 -4 30 -22q10 -15 10 -38v-8q-10 -42 -68 -42q0 2 -74 14t-198 14 q6 -114 6 -188q0 -38 5 -108t12 -153t15 -170t16 -158t13 -118t5 -49q0 -22 -15 -37t-41 -19q-22 0 -38 14t-18 36q0 6 -6 54t-13 119t-15 157t-15 169t-12 153t-5 110q0 76 -6 184q-52 -4 -102 -10t-89 -11t-64 -9t-29 -4q-20 0 -36 14t-20 42z" />
<glyph unicode="u" horiz-adv-x="1160" d="M102 1090q0 34 30 50q12 6 26 6q34 0 50 -28q0 -2 12 -25t25 -59t24 -80t11 -88q0 -10 1 -24t3 -30q4 -26 6 -59t2 -79q0 -30 4 -63t8 -73q4 -52 10 -108t6 -120q0 -42 17 -88t49 -86t79 -66t109 -26t112 18t90 48t71 67t53 77q-10 74 -17 148t-11 134q-4 70 -15 160 t-22 170t-20 137t-9 61q0 20 14 36t42 20q20 0 35 -13t19 -33q0 -6 9 -62t21 -136t23 -171t15 -163q0 -16 1 -33t3 -37q10 10 22 16t34 4q44 -10 44 -66q-10 -40 -27 -91t-45 -103q12 -96 22 -166t12 -78q0 -22 -14 -37t-42 -19q-22 0 -37 13t-19 35q0 4 -5 35t-11 79 q-62 -70 -148 -116t-200 -46q-82 0 -150 33t-116 87t-74 121t-26 137q0 60 -5 114t-11 100q-4 40 -8 77t-4 73q0 40 -2 72t-6 56q-2 18 -3 33t-1 31q0 28 -7 58t-16 57t-19 49t-16 34q-8 10 -8 26z" />
<glyph unicode="v" horiz-adv-x="974" d="M82 1046q0 18 14 34t42 22q44 0 54 -44q36 -162 81 -298t91 -245t88 -189t72 -130q26 86 57 186t59 176q26 66 53 152t49 163t36 131t14 56q6 18 23 30t47 10q18 -6 30 -23q10 -15 10 -39v-8q-2 -4 -17 -59t-37 -133t-49 -165t-53 -155q-26 -66 -55 -156t-53 -172 t-40 -139t-16 -59q-13 -40 -65 -40h-5q-38 13 -38 65v5l8 30q-4 6 -48 75t-106 195t-129 308t-117 416z" />
<glyph unicode="w" horiz-adv-x="1654" d="M72 1046q0 44 56 56q44 0 54 -44q36 -162 104 -366q22 -68 68 -176q44 -110 86 -190t72 -130q26 86 58 186t60 176q26 66 53 152t49 165t38 135t18 62l14 18l20 10h20q4 0 7 -1l15 -5q2 -2 4 -3t12 -11l12 -22q34 -160 79 -296t91 -246t88 -190t72 -130q26 86 58 186 t60 176q24 66 51 152t49 163t37 131t15 56q4 18 21 30t47 10q40 -13 40 -65v-5q-2 -4 -16 -59t-37 -133t-50 -165t-53 -155q-26 -66 -54 -156t-52 -172t-41 -139t-17 -59q-10 -40 -63 -40h-5q-40 13 -40 65v5l10 30l-40 60t-87 152t-95 204q-74 178 -126 358 q-22 -76 -48 -159t-52 -149q-24 -66 -53 -156t-53 -172t-40 -139t-16 -59q-13 -40 -65 -40h-5q-38 13 -38 65v5l8 30q-4 6 -48 75t-106 195t-128 308q-68 182 -118 416z" />
<glyph unicode="x" horiz-adv-x="990" d="M164 28q0 8 4 20q2 6 18 45t47 104t77 153t108 190l-14 18q-14 16 -35 62t-65 142q-18 38 -36 78t-36 77t-33 66t-25 45t-10 32q0 30 24 46q16 10 32 10q30 0 46 -24q26 -38 63 -118t77 -166q20 -46 41 -92t35 -72q64 102 142 210t174 220q14 20 42 20q20 0 36 -12 q20 -18 20 -44q0 -22 -14 -36q-98 -118 -180 -232t-148 -222l63 -81t69 -90t63 -85t47 -66q24 -36 50 -71t48 -63t38 -46l14 -18q14 -14 14 -36q0 -28 -20 -42q-14 -14 -36 -14q-28 0 -42 20q-2 2 -17 20t-39 48t-51 66t-53 74q-16 22 -40 56t-52 72t-59 78t-59 76 q-56 -94 -97 -174t-68 -139t-41 -91l-14 -34q-14 -36 -52 -36q-14 0 -20 4q-36 14 -36 52z" />
<glyph unicode="y" horiz-adv-x="1070" d="M20 1110q0 32 28 48q10 8 28 8q34 0 48 -26q22 -38 56 -117t68 -167q12 -28 23 -57t22 -54t19 -45t12 -26l16 -22q20 -30 55 -80t73 -106t72 -108t54 -84q10 -20 23 -39t25 -39q10 48 25 105t47 133q34 84 45 131t17 83q4 34 12 70t32 88q24 50 52 104t53 99t42 75t19 34 q16 28 48 28q18 0 28 -8q28 -16 28 -48q0 -18 -8 -28l-16 -28l-40 -75t-52 -98t-52 -103q-20 -42 -26 -69t-10 -57q-4 -20 -7 -42t-10 -51t-19 -65t-32 -82q-44 -100 -56 -165t-20 -129l-4 -54q0 -14 -6 -26q-4 -22 -8 -45t-10 -51q-16 -68 -29 -111t-27 -83 q-16 -46 -33 -102t-37 -154q-18 -90 -32 -167t-22 -133t-12 -88l-4 -32q-4 -22 -20 -35t-42 -13q-50 6 -50 62q0 2 5 35t13 90t22 134t32 169q10 52 20 92t19 72t18 58t17 50q14 38 26 78t26 102q6 24 9 45t7 41q-20 28 -55 79t-67 107q-18 32 -52 83t-71 105t-72 103 t-55 79l-16 24q-12 16 -31 62t-57 142q-16 38 -32 78t-31 77t-29 66t-24 45q-8 20 -8 28z" />
<glyph unicode="z" horiz-adv-x="992" d="M82 1016q0 22 14 37t36 17q92 12 172 17t148 5q160 0 256 -16t100 -16q42 -12 42 -56v-24q0 -16 -10 -32q-96 -130 -179 -258t-150 -243t-117 -212t-82 -163q70 10 161 17t181 7q160 0 256 -16t100 -18q42 -10 42 -68q-6 -18 -23 -30t-45 -10q-2 0 -91 15t-239 15 q-54 0 -111 -3t-110 -9t-99 -12t-78 -12q-18 -34 -52 -34q-10 0 -22 6q-26 10 -32 38q-6 6 -10 15t-6 25q0 20 12 35t34 19q24 54 71 149t115 216t154 261t192 284q-44 8 -110 13t-150 5q-64 0 -142 -5t-172 -15q-22 0 -37 14t-19 42z" />
<glyph unicode="{" horiz-adv-x="668" d="M122 754q0 2 1 5t3 17q2 2 3 4t9 14q2 2 4 3t14 9q46 22 46 106q0 28 -4 62t-10 74q-4 40 -9 81t-5 81q0 54 13 105t47 93q78 90 250 98q22 0 39 -16t19 -40q0 -22 -16 -38t-38 -18q-122 -6 -168 -58q-20 -24 -27 -56t-7 -70q0 -34 4 -71t10 -77q4 -36 8 -74t4 -74 q0 -50 -11 -93t-43 -77q36 -64 45 -148t13 -170q4 -92 13 -160t31 -111t61 -64t105 -21h4q22 0 38 -16t18 -40q0 -22 -16 -39t-38 -17q-8 -2 -22 -2q-106 0 -166 45t-90 114t-38 150t-10 155q-2 44 -5 89t-10 84t-19 71t-32 52l-12 16q-2 2 -6 22z" />
<glyph unicode="|" horiz-adv-x="562" d="M122 1472q0 44 58 56q20 0 35 -13t19 -33q12 -54 22 -148t17 -196t12 -197t5 -151q0 -38 5 -108t12 -153t16 -170t16 -158t12 -118t5 -49q0 -22 -15 -37t-41 -19q-22 0 -37 14t-19 36q0 6 -5 54t-13 119t-16 157t-15 169t-12 153t-5 110q0 62 -5 156t-13 193t-18 189 t-20 144z" />
<glyph unicode="}" horiz-adv-x="698" d="M52 1500q2 22 17 35t37 15q20 0 37 -1t33 -3q120 -12 188 -80q34 -34 52 -76t26 -88t9 -95t1 -95q-2 -102 8 -163t58 -79l2 -2l16 -8q0 -2 2 -5t10 -13q2 -2 2 -5t4 -15v-5t-4 -17l-10 -18q-26 -32 -32 -94q-4 -44 -2 -96t6 -106q4 -58 8 -117t-2 -113q-6 -52 -21 -96 t-49 -78q-68 -78 -214 -80q-22 4 -36 19t-14 43q4 22 19 36t37 14q86 0 126 42q18 20 27 49t13 63q4 46 2 100t-6 110q-4 58 -7 114t1 108q6 56 24 100q-30 26 -47 62t-25 78t-8 86v88q0 40 -1 79t-6 75t-16 66t-33 52q-38 42 -118 48q-14 2 -29 3t-35 1q-22 2 -36 18 t-14 44z" />
<glyph unicode="~" horiz-adv-x="1018" d="M30 640q0 26 20 42q2 2 21 16t52 29t78 27t101 12q50 0 106 -12t118 -46q56 -30 106 -41t90 -11q72 0 113 19t45 21q14 8 30 8q30 0 48 -24q10 -16 10 -32q0 -26 -26 -46q-2 0 -18 -10t-45 -20t-69 -19t-88 -9q-54 0 -117 14t-133 50q-46 26 -89 36t-81 10q-42 0 -75 -9 t-56 -19t-35 -20l-14 -10q-16 -12 -36 -12q-28 0 -42 20q-14 14 -14 36z" />
<glyph unicode="&#xa1;" horiz-adv-x="570" d="M144 1406q0 34 22 57t56 23t57 -23t23 -57q0 -32 -23 -55t-57 -23t-56 23t-22 55zM196 1218q0 22 14 38t42 18q22 2 37 -13t17 -37q4 -30 7 -61t7 -63q12 -114 22 -215t10 -161q0 -62 5 -156t13 -193t18 -189t20 -144q0 -20 -14 -36t-42 -20q-46 0 -56 46q-12 54 -22 148 t-17 195t-12 196t-5 153q0 56 -10 156t-22 208q-4 32 -6 64t-6 66z" />
<glyph unicode="&#xa2;" horiz-adv-x="722" d="M62 714q0 86 9 132t29 86q2 8 17 38t38 67t51 72t56 51q10 6 18 9t18 7q-2 34 -2 53t-2 23q0 22 16 39t40 17q22 0 39 -15t17 -37l4 -60q32 -4 48 -8q6 -2 24 -9t38 -17t39 -22t29 -26q4 -4 10 -22t6 -58q0 -22 -16 -39t-40 -17q-22 0 -39 19t-17 53q-12 8 -32 17t-44 15 q4 -72 6 -158t2 -162q0 -40 2 -92t6 -112t10 -122t14 -120q32 0 59 11t46 24t31 25l10 12q16 20 42 20q20 0 36 -12q20 -18 20 -44q0 -18 -12 -36q-2 -2 -19 -20t-47 -39t-72 -38t-94 -15q4 -60 7 -99t5 -43q0 -22 -15 -39t-41 -17q-22 -2 -38 13t-18 37q-2 6 -6 53t-8 117 q-52 20 -102 58t-90 97t-64 142t-24 191zM174 714q0 -76 13 -135t36 -102t51 -73t58 -48q-4 54 -8 110t-7 110t-4 102t-1 84q0 70 -2 145t-6 145q-22 -24 -51 -72t-51 -94q-16 -30 -22 -66t-6 -106z" />
<glyph unicode="&#xa3;" horiz-adv-x="942" d="M62 520q0 22 12 37t34 19q4 0 63 9t141 17q-12 10 -24 22l-24 24q-28 26 -56 54t-50 59t-36 68t-14 79q0 80 42 146t103 112t129 71t118 25q54 0 92 -13t62 -29t36 -31t14 -19q8 -14 8 -30q0 -28 -26 -48q-20 -8 -30 -8q-30 0 -46 26q-2 4 -27 22t-83 18q-36 0 -84 -18 t-91 -51t-74 -77t-31 -96q0 -50 37 -92t83 -86l58 -58t56 -64q118 2 188 -11t74 -13q42 -14 40 -68q-10 -44 -68 -42q-24 4 -54 10q-28 4 -65 7t-83 3q2 -38 -11 -81t-32 -85t-43 -83t-46 -73h77t65 -2q22 -2 44 -2t44 -2q48 0 92 -2t90 -12q34 -6 75 -8t75 -2h50h2 q22 0 38 -15t18 -41q0 -22 -16 -38t-38 -18h-54q-36 0 -84 2t-88 10q-38 8 -78 10t-84 2q-22 2 -45 2t-47 2q-34 2 -81 2h-97l-68 -2q-14 0 -20 2q-26 2 -50 2t-46 2q-22 0 -38 17t-16 41q2 22 18 38t42 14h39t45 -2q24 34 52 77t51 87t38 86t15 72q-46 -4 -91 -8t-80 -9 t-58 -9t-27 -4q-46 0 -56 56z" />
<glyph unicode="&#xa4;" horiz-adv-x="860" d="M62 964q0 14 8 28q14 26 48 26q16 0 28 -6q4 -4 40 -26t92 -58q60 54 142 54q40 0 74 -9t62 -35q60 46 97 70t41 26q12 6 28 6q32 0 48 -28q4 -8 6 -14t2 -14q0 -32 -30 -48q0 -2 -35 -25t-89 -77q12 -28 19 -57t7 -61q0 -38 -14 -74q64 -64 95 -104t33 -42 q10 -16 10 -32q0 -32 -24 -46q-16 -12 -32 -12q-26 0 -46 24q0 2 -26 35t-78 87q-20 -16 -52 -33t-70 -19h-22q-76 0 -128 26q-42 -50 -68 -83t-26 -35q-16 -22 -44 -22q-20 0 -34 12q-22 18 -22 44q0 18 10 34q4 4 31 40t73 88q-22 38 -28 84q-2 10 -2 20v20q0 58 24 110 q-52 34 -86 55t-36 21q-26 20 -26 50zM298 728q0 -16 2 -24q0 -10 4 -25t18 -30t42 -26t76 -11q16 0 37 13t33 23q30 38 30 70q0 16 -5 34t-15 40q-22 54 -44 66t-64 12q-16 0 -37 -10t-41 -32q-14 -16 -25 -41t-11 -59z" />
<glyph unicode="&#xa5;" horiz-adv-x="780" d="M0 1124q0 30 28 48q16 8 28 8q32 0 48 -28l30 -50t53 -87t53 -89t30 -54q4 -4 12 -17t16 -23q22 -30 39 -55t27 -47h28q14 30 30 61t31 58t28 48t23 31t28 42t36 69t32 71t16 48q2 22 18 36t44 12q22 -2 35 -18t13 -44q-2 -22 -18 -64t-38 -88t-45 -86t-39 -56 q-10 -10 -29 -45t-41 -75q84 -4 130 -14t50 -10q44 -10 40 -68q-10 -42 -68 -40q-24 4 -56 8q-28 2 -66 2t-86 -4q-2 -14 -10 -25t-20 -27q6 -10 6 -22q0 -4 1 -20t3 -36q116 0 184 -12t72 -14q44 -10 40 -68q-10 -42 -68 -40q-26 4 -58 10q-58 8 -156 12q2 -10 2 -26v-34 q0 -34 -1 -75t-3 -82t-4 -75t-4 -54q-2 -22 -18 -38t-40 -16q-22 2 -38 19t-14 41q4 78 7 159t3 129v25t-2 23q-46 -4 -88 -8t-75 -9t-55 -8t-26 -3q-20 0 -36 14t-20 42q0 20 13 35t33 19q2 0 23 4t54 9t75 9t88 8q-2 22 -3 39t1 33q-18 28 -38 70q-74 -8 -128 -16t-62 -8 q-20 0 -36 14t-20 42q0 20 13 35t33 19q4 2 47 8t105 14q-8 12 -17 24t-15 22q-12 16 -22 30t-16 26q-4 8 -21 37t-41 69l-51 85t-49 81q-8 14 -8 30z" />
<glyph unicode="&#xa6;" horiz-adv-x="582" d="M164 1456q0 20 14 36t42 20q20 0 35 -12t19 -32q8 -46 18 -120t17 -159t13 -172t8 -159q0 -22 -16 -39t-40 -17q-22 -2 -38 14t-18 40q-2 68 -7 153t-13 169t-17 158t-17 120zM228 618q0 22 15 38t41 18q22 0 38 -15t18 -37q6 -88 16 -191t19 -194t16 -153t7 -66 q0 -22 -15 -37t-41 -19q-22 0 -38 14t-18 36q0 2 -7 63t-16 152t-19 196t-16 195z" />
<glyph unicode="&#xa7;" horiz-adv-x="998" d="M72 786q0 50 18 99t45 90t60 71t63 44l25 10t33 14q-40 4 -78 12t-68 24t-50 43t-24 69q0 8 -1 15t-1 15q0 56 21 96t52 68t64 46t57 30q36 16 83 24t99 8q48 0 96 -6t88 -16q44 -10 40 -68q-10 -42 -66 -42q-38 10 -78 15t-80 5q-86 0 -134 -22q-64 -28 -97 -61t-31 -95 q4 -28 51 -38t127 -16q44 -4 89 -9t87 -17q66 -16 120 -59t100 -103q38 -56 58 -115t22 -107v-20v-20q0 -34 -4 -72t-21 -76t-50 -73t-91 -61q98 -66 144 -137t46 -153v-22v-20q0 -38 -5 -81t-27 -84t-65 -77t-121 -60q-40 -14 -74 -19t-66 -5q-44 0 -88 10t-104 26 q-58 14 -100 47t-70 66t-42 59t-14 28q-6 12 -6 24q0 34 34 50q8 6 22 6q34 0 52 -34l10 -18q10 -18 29 -42t49 -47t70 -33q54 -14 90 -22t70 -8q40 0 106 18q48 16 76 36t42 45t17 53t3 60v20v24q0 12 -4 36t-26 57t-72 75t-140 90q-34 4 -64 16t-58 24q-24 10 -49 21 t-55 19q-50 14 -90 28t-70 38t-48 61t-24 95q-2 10 -2 28zM184 770q4 -30 10 -49t21 -32t43 -23t76 -22q38 -10 67 -22t55 -24q32 -14 56 -23t52 -9q24 0 46 8q50 16 78 36t42 44t17 53t3 61v20v22q0 28 -15 71t-43 83q-52 38 -105 52t-101 14q-58 0 -105 -14t-75 -28 q-20 -10 -41 -31t-39 -50t-30 -64t-12 -73z" />
<glyph unicode="&#xa8;" horiz-adv-x="1434" d="M488 1216q0 34 23 56t57 22t56 -22t22 -56t-22 -57t-56 -23t-57 23t-23 57zM788 1216q0 34 22 56t56 22t56 -22t22 -56t-22 -57t-56 -23t-56 23t-22 57z" />
<glyph unicode="&#xa9;" horiz-adv-x="1266" d="M40 702q0 124 41 236t121 202q82 96 188 151t208 57h20h8q86 0 158 -15t133 -56t113 -113t98 -188q28 -76 52 -154t24 -160q0 -84 -34 -171t-124 -179q-2 -4 -32 -30t-79 -57t-110 -58t-127 -31h-60q-256 0 -408 119t-182 347q-4 26 -6 51t-2 49zM154 659q0 -21 4 -43 q16 -114 65 -186t117 -112t146 -55t152 -15h54q46 2 93 23t86 46t65 47t32 28q64 72 92 140t28 138q0 60 -18 125t-46 139q-38 96 -78 155t-88 92t-107 44t-133 11h-20q-76 -2 -162 -47t-150 -121q-132 -156 -132 -366v-43zM330 750q0 54 8 89t26 69q6 8 19 30t33 46t43 47 t47 35q56 24 112 24q28 0 50 -6l16 -4q14 -4 32 -11t36 -16t28 -21q20 -22 20 -68q0 -24 -17 -40t-39 -16t-38 14t-18 36q-10 4 -23 9t-23 9q-4 0 -10 1t-14 1q-14 0 -32 -3t-34 -11q-14 -6 -41 -40t-49 -72q-10 -16 -15 -36t-5 -66q0 -90 35 -140t77 -74t78 -28l36 -4 q26 0 47 6t37 16q18 10 32 24q20 16 40 16t40 -16q16 -20 16 -40t-16 -40q-2 0 -16 -13t-40 -27t-61 -26t-79 -12q-52 0 -111 19t-109 62t-84 111t-34 166z" />
<glyph unicode="&#xaa;" horiz-adv-x="626" d="M0 1070q0 96 40 165t95 113t114 64t97 20q30 0 54 -10t42 -25t30 -32t18 -31q6 -12 6 -24t-8 -28q4 -30 6 -62t2 -64q0 -36 -6 -68q20 -130 45 -202t25 -74q2 -6 3 -11t1 -11q0 -36 -34 -52q-12 -4 -22 -4q-36 0 -52 34q0 4 -11 32t-25 80q-36 -62 -85 -101t-101 -39 q-234 0 -234 330zM112 1070q0 -82 13 -126t32 -65t40 -24t37 -3q14 0 35 18t42 50t39 75t28 93q-8 48 -12 103t-4 115q-8 8 -16 14q-12 0 -50 -11t-79 -39t-73 -77t-32 -123z" />
<glyph unicode="&#xab;" horiz-adv-x="728" d="M40 306q0 30 30 48q26 16 66 43t86 69q14 10 26 25t26 31q20 24 41 48t49 46q14 12 34 12q12 0 24 -5t20 -15q12 -16 12 -36q0 -28 -20 -42q-22 -16 -39 -36t-35 -42q-16 -18 -31 -36t-31 -34q-28 -26 -55 -46t-49 -36q22 -16 49 -38t57 -48l25 -25t27 -25q22 -22 45 -43 t49 -43q20 -16 20 -42q0 -22 -12 -36q-18 -20 -44 -20q-18 0 -36 12q-28 22 -53 45t-47 45q-12 14 -25 26t-25 22q-50 46 -90 75t-62 45q-12 8 -22 26q-10 14 -10 30zM320 316q0 30 26 48l18 10q26 16 62 39t76 59q12 12 25 24t27 26l45 45t51 45q16 14 36 14q26 0 44 -22 q12 -16 12 -34q0 -28 -20 -44q-48 -40 -88 -82l-29 -29t-29 -27q-30 -28 -58 -47t-52 -35q4 -8 10 -14t12 -14q16 -20 36 -41t42 -43q34 -28 78 -56q22 -16 42 -30t42 -30q22 -18 22 -44q0 -18 -14 -36q-14 -20 -42 -20q-22 0 -36 12q-34 28 -76 54q-24 16 -47 32t-43 34 q-28 26 -50 50t-40 46q-12 16 -24 29t-18 17t-12 11t-20 23q-8 14 -8 30z" />
<glyph unicode="&#xac;" horiz-adv-x="1240" d="M40 600q4 -28 19 -42t37 -14q4 0 59 6t139 12t186 12t198 6q132 0 226 -7t144 -13q-6 -36 -6 -92q0 -32 4 -66t8 -61t9 -45t5 -20q10 -42 54 -42q56 12 56 56q0 6 -4 24t-9 43t-8 54t-3 57q0 52 6 82q4 18 8 30q4 26 0 38t-14 22q-12 18 -36 24q-6 0 -123 14t-317 14 q-98 0 -200 -6t-187 -13t-140 -13t-61 -6q-22 -2 -36 -17t-14 -37zM40 600q4 -28 19 -42t37 -14q4 0 59 6t139 12t186 12t198 6q132 0 226 -7t144 -13q-6 -36 -6 -92q0 -32 4 -66t8 -61t9 -45t5 -20q10 -42 54 -42q56 12 56 56q0 6 -4 24t-9 43t-8 54t-3 57q0 52 6 82 q4 18 8 30q4 26 0 38t-14 22q-12 18 -36 24q-6 0 -123 14t-317 14q-98 0 -200 -6t-187 -13t-140 -13t-61 -6q-22 -2 -36 -17t-14 -37z" />
<glyph unicode="&#xad;" horiz-adv-x="1038" d="M40 640q0 22 13 37t35 19q4 0 50 6t115 13t153 13t166 6q162 0 259 -14t101 -16q20 -4 33 -21t11 -45q-10 -44 -66 -44q-2 0 -93 14t-245 14q-78 0 -160 -6t-151 -13t-115 -13t-50 -6q-20 0 -36 14t-20 42z" />
<glyph unicode="&#xae;" horiz-adv-x="1266" d="M40 702q0 124 41 236t121 202q82 96 188 151t208 57h20h8q86 0 158 -15t133 -56t113 -113t98 -188q28 -76 52 -153t24 -161t-34 -171t-124 -179q-2 -4 -32 -30t-79 -57t-110 -58t-127 -31h-60q-256 0 -408 119t-182 347q-4 26 -6 51t-2 49zM154 659q0 -21 4 -43 q16 -114 65 -186t117 -112t146 -55t152 -15h54q46 2 93 23t86 46t65 47t32 28q64 72 92 140t28 138q0 60 -18 125t-46 139q-38 96 -78 155t-88 92t-107 44t-133 11h-20q-76 -2 -162 -47t-150 -121q-132 -156 -132 -366v-43zM376 1038q0 44 56 56q22 0 40 -18l44 8t48 4 q30 0 67 -6t87 -18q38 -10 66 -33t46 -51t27 -58t9 -56v-9t-2 -15q-2 -16 -5 -38t-15 -45t-34 -44t-60 -35q18 -18 38 -39t36 -43q44 -54 65 -89t23 -39q6 -12 6 -24q0 -36 -30 -50q-16 -8 -26 -8q-34 0 -50 32l-18 30q-10 14 -24 34t-32 42q-18 24 -40 47t-43 42t-37 31 t-24 14q-18 -2 -37 -1t-41 1q4 -52 10 -111t10 -93q0 -22 -14 -38t-42 -18q-22 0 -37 14t-19 36q0 4 -4 44t-9 91t-9 101t-4 76q0 18 -1 46t-4 59t-7 64t-8 63v24zM498 966q4 -50 10 -104t16 -90h68q30 0 57 2t45 6q40 10 48 28t12 60q0 18 -16 48t-48 40q-80 20 -124 20 q-18 0 -34 -3t-34 -7z" />
<glyph unicode="&#xaf;" horiz-adv-x="1434" d="M446 1148q0 22 16 39t40 17l430 -2q22 0 39 -16t17 -40q0 -22 -17 -39t-39 -17l-430 2q-24 0 -40 16t-16 40z" />
<glyph unicode="&#xb0;" horiz-adv-x="692" d="M62 1280q0 132 70 210t190 78h24q122 -10 180 -104q42 -66 43 -143t-21 -135q-34 -84 -106 -136t-156 -52q-44 0 -84 24t-71 63t-50 90t-19 105zM174 1280q0 -34 11 -65t28 -54t37 -37t36 -14q42 0 89 30t69 88q14 36 13 86t-25 90q-28 46 -92 52h-18q-78 0 -114 -50 q-34 -46 -34 -126z" />
<glyph unicode="&#xb1;" horiz-adv-x="996" d="M20 248v8q0 20 14 36t36 20q4 0 49 6t114 12t153 12t164 6q164 0 261 -13t101 -15q20 -4 32 -20t12 -36v-10q-4 -20 -19 -33t-37 -13h-12q-40 6 -92 14q-44 4 -107 9t-139 5q-78 0 -160 -6t-150 -12t-111 -12t-45 -6q-2 -2 -8 -2q-22 0 -37 14t-19 36zM40 636v10 q0 20 14 35t36 19q2 0 32 4t78 9t108 11t126 10q2 158 15 254t13 100q4 18 21 30t35 12h12q20 -4 33 -19t13 -35q0 -4 -1 -7t-1 -7q-8 -38 -14 -88q-6 -42 -10 -102t-4 -134h26q80 0 146 -4t113 -10t73 -11t28 -5q44 -10 44 -54v-10q-10 -46 -54 -46h-12q-40 6 -92 14 q-46 4 -108 9t-138 3h-24q0 -22 1 -47t1 -48v-39v-16v-10q0 -22 -12 -36t-34 -18h-8q-22 0 -37 12t-19 34q0 2 -1 21t-1 44t-1 52t-1 47q-64 -4 -123 -9t-105 -9t-74 -8l-30 -4q-2 -2 -8 -2q-20 0 -36 13t-20 35z" />
<glyph unicode="&#xb2;" horiz-adv-x="656" d="M44 1398q2 4 9 21t22 38t40 41t61 30q28 6 50 11t46 5q40 0 96 -22q50 -20 79 -48t43 -59t17 -63t3 -58q0 -36 -13 -64t-34 -51t-48 -43t-53 -38q-10 -8 -22 -15t-22 -17q-36 -26 -65 -58t-45 -62q32 4 73 9t81 7h48q52 0 83 -3t33 -3q22 -4 35 -20t13 -44 q-4 -22 -20 -35t-44 -13q-12 0 -28 2q-14 2 -32 3t-40 1h-42q-34 -2 -68 -6t-64 -8t-51 -7t-25 -3h-10t-20 2q-22 0 -38 17t-16 39q0 40 16 79t41 75t56 66t61 52q12 10 25 18t23 16q46 32 73 56t27 58q0 40 -11 67t-61 47q-34 14 -54 14t-68 -12q-14 -4 -24 -13t-16 -19 q-8 -10 -14 -24q-14 -40 -70 -38q-18 6 -29 23t-7 49z" />
<glyph unicode="&#xb3;" horiz-adv-x="676" d="M40 974q0 16 13 31t43 25q18 0 33 -10t21 -28q8 -20 20 -32t22 -20q12 -8 26 -12q34 -10 55 -15t39 -5q14 0 28 3t32 7q30 8 46 19t25 26t12 34t7 45q0 10 -9 36t-35 56q-20 22 -54 41t-86 19q-4 0 -10 2t-22 10q-2 0 -3 3t-11 13q-2 0 -3 3t-5 17v22q0 -2 10 20 q12 16 28 36t32 42l38 46h-28q-32 0 -65 -2t-61 -5t-48 -5t-22 -2q-22 0 -37 14t-19 42q0 20 13 35t35 19q2 0 21 3t48 6t65 5t70 2q76 0 116 -6q12 4 20 4q6 0 15 -3t25 -15q26 -16 24 -58q-6 -32 -38 -42q-16 -20 -37 -47l-49 -63q40 -16 70 -38t50 -44q34 -38 54 -82 t20 -84q0 -4 -1 -9t-1 -17q-4 -24 -9 -53t-22 -57t-50 -54t-89 -42q-50 -14 -90 -14q-30 0 -58 6t-64 16q-40 12 -68 34t-45 46t-26 45t-11 31z" />
<glyph unicode="&#xb4;" horiz-adv-x="1434" d="M504 998q0 24 18 40q28 26 41 41t25 31q14 18 31 38t51 50t54 46t38 30q16 12 32 26t42 36q18 12 38 12q24 0 42 -18q14 -22 14 -38q0 -22 -20 -42q-28 -24 -46 -38t-32 -26q-18 -14 -36 -29t-52 -43q-28 -26 -42 -42t-26 -32q-14 -16 -30 -35t-48 -49q-14 -14 -38 -14 q-26 0 -40 18q-16 16 -16 38z" />
<glyph unicode="&#xb5;" horiz-adv-x="810" d="M62 900q0 22 15 37t41 19q22 0 37 -15t19 -37l4 -36l10 -90t15 -116t19 -116q0 -4 12 -38t39 -73t75 -71t120 -32q106 0 144 50q14 18 19 42t5 52q0 52 -12 102t-20 74q-16 50 -20 82q-4 8 -4 15t-4 13q-8 30 -8 68q0 36 6 63t8 31q12 38 72 36q16 -6 27 -23t7 -47 q-2 -8 -5 -25t-3 -35v-18t4 -18t5 -19t5 -19q2 -16 6 -33t10 -39q16 -48 27 -102t11 -106q0 -44 -10 -85t-36 -75q-72 -96 -234 -96q-64 0 -113 18t-89 46q10 -72 16 -127t8 -65q0 -22 -15 -37t-41 -19q-22 0 -37 14t-19 36l-4 46q-6 44 -15 107l-19 133t-22 122 q-12 54 -22 122t-17 129t-12 105t-5 50z" />
<glyph unicode="&#xb6;" horiz-adv-x="1014" d="M20 1188q0 42 12 88t38 88t64 74t90 48q76 22 134 31t116 13h24q46 0 86 -7t84 -17q12 18 46 24q20 0 36 -14t22 -46q12 -16 12 -36v-7t-4 -13q10 -66 18 -153t14 -174t10 -165t4 -128q0 -38 5 -108t12 -153t15 -170t16 -158t13 -118t5 -49q0 -22 -15 -38t-41 -18 q-22 0 -38 14t-18 36q0 6 -5 54t-13 119t-16 157t-15 169t-12 153t-5 110v42h-42t-42 -2l-48 -2v-38q0 -38 5 -108t12 -153t16 -170t16 -158t12 -118t5 -49q0 -22 -14 -38t-42 -18q-22 0 -37 14t-19 36q0 6 -5 54t-13 119t-16 157t-15 169t-12 153t-5 110v38q-56 0 -106 4 t-90 14q-76 20 -121 53t-70 72t-37 81t-20 80q-6 24 -6 52zM132 1188q0 -12 8 -46q6 -30 14 -57t24 -51t46 -43t80 -33q32 -8 74 -11t88 -3q-4 58 -8 123t-9 127t-12 119t-13 101q-64 -6 -168 -36q-34 -10 -57 -32t-38 -49t-22 -56t-7 -53zM538 1416q6 -48 12 -106t11 -121 t9 -126t8 -119l50 2q22 2 41 2h41q-4 54 -8 114t-9 118t-11 112t-12 98q-36 10 -68 16t-64 10z" />
<glyph unicode="&#xb7;" horiz-adv-x="280" d="M62 644q0 34 22 57t56 23t57 -23t23 -57q0 -32 -23 -55t-57 -23t-56 23t-22 55z" />
<glyph unicode="&#xb8;" horiz-adv-x="1434" d="M440 -280q0 16 8 30q16 26 48 26q16 0 28 -6q48 -28 112 -44t122 -16q60 0 100 20q16 10 20 19t4 19q0 16 -14 30q-16 16 -46 27t-66 18t-75 10t-75 3l-134 -4l92 98l20 20q18 20 43 47t51 56t42 49q20 20 44 20q22 0 36 -14q20 -14 20 -42q0 -22 -14 -36 q-14 -18 -35 -42t-43 -48q56 -6 117 -24t101 -58q48 -48 48 -110q0 -90 -80 -134q-64 -36 -158 -36q-76 0 -153 20t-135 54q-28 16 -28 48z" />
<glyph unicode="&#xb9;" horiz-adv-x="444" d="M40 1384q0 26 22 42q2 2 35 27t75 53q14 8 30 8q12 0 24 -6q36 -6 42 -42q6 -24 10 -64t8 -83t6 -83t2 -64q0 -20 3 -61t7 -88t8 -92t8 -73q0 -22 -15 -37t-41 -19q-22 0 -37 14t-19 36q0 4 -4 45t-9 93t-9 104t-4 78q0 34 -4 90t-8 106q-10 -6 -17 -11t-11 -9 q-6 -6 -10 -8q-16 -12 -36 -12q-28 0 -42 20q-14 18 -14 36z" />
<glyph unicode="&#xba;" horiz-adv-x="594" d="M0 1000q0 62 21 137t57 141t84 111t100 45q12 0 24 -2t34 -6q28 0 62 -24t63 -68t48 -106t19 -136q0 -78 -27 -144t-66 -114t-86 -75t-85 -27q-46 0 -90 18t-79 53t-57 84t-22 113zM112 1000q0 -42 14 -72t35 -49t44 -27t43 -8q14 0 40 18t51 51t43 78t18 101 q0 86 -27 140t-49 72l-24 -4q-18 0 -34 8q-14 0 -22 6q-18 -14 -41 -48t-43 -77t-34 -93t-14 -96z" />
<glyph unicode="&#xbb;" horiz-adv-x="728" d="M40 16q0 26 22 44q42 32 84 60q22 16 42 29t36 27q22 22 42 43t36 41q6 8 12 15t10 13q-24 16 -52 36t-58 48q-16 12 -29 25l-29 29q-40 42 -88 82q-20 20 -20 44q0 18 12 34q18 22 44 22q18 0 36 -12q28 -22 51 -45l45 -45q14 -16 27 -28t25 -24q40 -34 76 -57t62 -39 l18 -12q14 -8 20 -21t6 -27q0 -16 -8 -30q-14 -16 -20 -22t-12 -10t-18 -18t-24 -30q-18 -20 -40 -45t-50 -49q-20 -18 -43 -35t-47 -33q-42 -26 -76 -54q-16 -12 -34 -12q-28 0 -44 20q-14 20 -14 36zM324 18q0 24 20 44q26 20 49 41t45 43q14 14 27 26t25 24q30 28 57 49 t49 39q-44 28 -104 80q-16 16 -31 34t-31 36q-18 22 -35 42t-39 36q-10 8 -15 20t-5 24q0 18 12 34q16 22 44 22q20 0 34 -14q28 -22 49 -46t41 -46q14 -16 26 -31t26 -27q46 -42 86 -68t66 -42q30 -22 30 -50q0 -14 -10 -30q-10 -18 -22 -26q-22 -14 -62 -44t-90 -76 q-12 -10 -25 -22t-25 -24q-22 -22 -47 -46t-53 -46q-18 -12 -36 -12q-26 0 -44 20q-12 18 -12 36z" />
<glyph unicode="&#xbc;" horiz-adv-x="1244" d="M40 1384q0 26 22 42q2 2 35 27t75 53q14 8 30 8q12 0 24 -6q36 -6 42 -42q6 -24 10 -64t8 -83t6 -83t2 -64q0 -20 3 -61t7 -88t8 -92t8 -73q0 -22 -15 -37t-41 -19q-22 0 -37 14t-19 36q0 4 -4 45t-9 93t-9 104t-4 78q0 34 -4 90t-8 106q-10 -6 -17 -11t-11 -9 q-6 -6 -10 -8q-16 -12 -36 -12q-28 0 -42 20q-14 18 -14 36zM124 10q0 14 6 26q4 6 28 52t61 115t82 152t89 163t82 146t62 104q36 58 89 147t105 184t97 180t67 135q12 34 50 34q16 0 22 -4q34 -16 34 -52q0 -14 -4 -22q-24 -54 -72 -145t-102 -188t-106 -186t-86 -143 q-24 -36 -62 -103t-82 -147t-89 -164t-81 -152t-60 -112t-24 -46q-16 -30 -50 -30q-14 0 -26 6q-30 16 -30 50zM704 610q0 20 14 36t42 20q44 0 54 -46q4 -18 7 -46t6 -59t5 -64t4 -61q30 4 69 6t75 2q18 0 28 2q0 24 -3 63t-6 80t-7 79t-8 62q0 44 56 56q20 0 36 -13 t20 -33q4 -24 8 -64t7 -83t6 -83t3 -64l18 -14q44 -10 42 -66q-4 -20 -18 -32t-34 -12q4 -52 9 -103t9 -85q0 -22 -14 -38t-42 -18q-22 0 -37 14t-19 36q0 2 -2 21t-5 48t-7 65t-6 70h-34q-30 0 -63 -2t-62 -5t-49 -5t-24 -2q-22 0 -39 16t-17 40t-2 62t-5 79t-7 79t-8 62z " />
<glyph unicode="&#xbd;" horiz-adv-x="1292" d="M40 1384q0 26 22 42q2 2 35 27t75 53q14 8 30 8q12 0 24 -6q36 -6 42 -42q6 -24 10 -64t8 -83t6 -83t2 -64q0 -20 3 -61t7 -88t8 -92t8 -73q0 -22 -15 -37t-41 -19q-22 0 -37 14t-19 36q0 4 -4 45t-9 93t-9 104t-4 78q0 34 -4 90t-8 106q-10 -6 -17 -11t-11 -9 q-6 -6 -10 -8q-16 -12 -36 -12q-28 0 -42 20q-14 18 -14 36zM124 10q0 14 6 26q4 6 28 52t61 115t82 152t89 163t82 146t62 104q36 58 89 147t105 184t97 180t67 135q12 34 50 34q16 0 22 -4q34 -16 34 -52q0 -14 -4 -22q-24 -54 -72 -145t-102 -188t-106 -186t-86 -143 q-24 -36 -62 -103t-82 -147t-89 -164t-81 -152t-60 -112t-24 -46q-16 -30 -50 -30q-14 0 -26 6q-30 16 -30 50zM720 550q2 4 9 22t23 39t40 41t60 30q28 6 51 11t45 5q44 0 96 -22q50 -20 79 -48t44 -60t18 -63t3 -57q-2 -72 -48 -116t-100 -80q-12 -8 -23 -16t-23 -16 q-34 -28 -63 -59t-45 -63q68 12 154 16q12 2 24 2h24q52 0 83 -3t33 -5q22 -4 35 -20t11 -44q-4 -20 -20 -33t-44 -13q-10 0 -26 2q-14 2 -33 3t-41 1h-20t-22 -2q-34 0 -68 -4t-64 -8t-50 -8t-24 -4q-6 0 -12 1t-18 1q-22 0 -39 17t-17 41q0 40 17 79t42 74t56 66t61 53 q12 10 24 17t24 17q46 32 73 56t27 58q0 40 -12 67t-60 47q-34 14 -54 14q-14 0 -29 -4t-39 -10q-16 -4 -26 -13t-16 -19q-8 -12 -12 -24q-12 -38 -70 -36q-40 14 -38 70z" />
<glyph unicode="&#xbe;" horiz-adv-x="1318" d="M40 974q0 16 13 31t43 25q18 0 33 -10t21 -28q8 -20 20 -32t22 -20q12 -8 26 -12q34 -10 55 -15t39 -5q14 0 28 3t32 7q30 8 46 19t25 26t12 34t7 45q0 10 -9 36t-35 56q-20 22 -54 41t-86 19q-4 0 -10 2t-22 10q-2 0 -3 3t-11 13q-2 0 -3 3t-5 17v22q0 -2 10 20 q12 16 28 36t32 42l38 46h-28q-32 0 -65 -2t-61 -5t-48 -5t-22 -2q-22 0 -37 14t-19 42q0 20 13 35t35 19q2 0 21 3t48 6t65 5t70 2q76 0 116 -6q12 4 20 4q6 0 15 -3t25 -15q26 -16 24 -58q-6 -32 -38 -42q-16 -20 -37 -47l-49 -63q40 -16 70 -38t50 -44q34 -38 54 -82 t20 -84q0 -4 -1 -9t-1 -17q-4 -24 -9 -53t-22 -57t-50 -54t-89 -42q-50 -14 -90 -14q-30 0 -58 6t-64 16q-40 12 -68 34t-45 46t-26 45t-11 31zM200 10q0 14 6 26q2 6 27 52t61 115t81 152t89 163t82 146t62 104q36 58 89 147t105 184t97 180t67 135q16 34 52 34q14 0 22 -4 q34 -18 34 -52q0 -6 -4 -22q-24 -54 -72 -145t-102 -188t-107 -186t-87 -143q-24 -36 -62 -103t-81 -147t-88 -164t-82 -152t-60 -112t-23 -46q-16 -30 -50 -30q-14 0 -26 6q-16 8 -23 21t-7 29zM778 610q0 20 14 36t42 20q20 0 36 -12t20 -34q2 -18 6 -46t7 -59t5 -64 t4 -61q30 4 68 6t76 2q18 0 26 2q0 24 -3 63t-6 80t-6 79t-7 62q0 44 56 56q20 0 35 -13t19 -33q6 -24 10 -64t7 -83t5 -83t2 -64l18 -14q44 -10 44 -66q-4 -20 -19 -32t-33 -12q4 -52 9 -103t9 -85q0 -22 -15 -38t-41 -18q-22 0 -37 14t-19 36q0 2 -2 21t-5 48t-7 65t-6 70 h-34q-32 0 -65 -2t-62 -5t-48 -5t-23 -2q-24 0 -40 16t-16 40t-2 62t-5 79t-8 79t-9 62z" />
<glyph unicode="&#xbf;" horiz-adv-x="1012" d="M82 448v24q0 52 15 95t39 80t54 70t60 63q36 36 71 75t63 85t45 103t17 131q0 12 -1 23t-1 27q0 22 15 38t41 18q22 0 38 -15t18 -37q0 -14 1 -27t1 -27q0 -92 -21 -163t-54 -127t-74 -100t-79 -82q-28 -28 -53 -55t-43 -56t-29 -62t-11 -73q4 -58 14 -110t35 -96t70 -78 t123 -54q68 -18 114 -18t92 16t120 46q46 18 77 54t49 72t26 64l8 26q10 44 66 44q44 -10 44 -66q0 -4 -11 -41t-37 -85t-70 -97t-112 -77q-76 -32 -132 -50t-118 -18q-32 0 -67 5t-77 17q-112 30 -176 84t-96 117t-41 126t-13 111zM406 1430q0 30 22 53t58 25q30 0 53 -22 t25 -56q0 -32 -21 -54t-51 -26h-6q-32 0 -54 22t-26 58z" />
<glyph unicode="&#xc0;" horiz-adv-x="1320" d="M40 10q0 10 6 22q0 2 22 51t55 124t73 166t76 175q-56 -6 -92 -11t-42 -5q-22 0 -37 14t-19 42q0 22 13 37t35 19q4 0 57 7t133 15q16 36 27 66t19 52q18 54 53 143t75 186t81 188t71 151q4 32 32 46q8 4 26 4q16 0 28 -6q26 -14 30 -46q26 -60 61 -152t70 -189t63 -186 t44 -143q10 -38 35 -108t55 -153t63 -169t59 -157t44 -116t18 -47q4 -8 4 -20q0 -38 -36 -52q-6 -4 -20 -4q-16 0 -31 9t-21 27q-2 6 -24 61t-53 135t-69 175t-74 181q-40 6 -92 14q-44 4 -107 9t-139 5q-52 0 -107 -3t-107 -7q-36 -86 -78 -184t-80 -182t-64 -143t-28 -65 q-16 -32 -52 -32q-14 0 -22 4q-34 16 -34 52zM322 1984q0 18 12 36q20 20 44 20q14 0 36 -14q28 -24 45 -36t33 -22q20 -10 41 -25t55 -45q34 -32 52 -54t30 -40q10 -16 22 -32t38 -40q18 -16 18 -40t-14 -38q-18 -18 -42 -18q-22 0 -38 14q-32 30 -48 52t-28 40l-24 32 t-40 40q-28 26 -46 38t-34 22q-18 10 -39 24t-55 42q-18 18 -18 44zM446 676q80 6 166 6q108 0 186 -7t124 -13q-10 28 -17 50t-13 38q-12 48 -34 117t-49 146t-55 154t-54 141q-30 -64 -63 -141t-64 -154t-58 -147t-43 -118q-4 -16 -11 -33t-15 -39z" />
<glyph unicode="&#xc1;" horiz-adv-x="1320" d="M40 10q0 10 6 22q0 2 22 51t55 124t73 166t76 175q-56 -6 -92 -11t-42 -5q-22 0 -37 14t-19 42q0 22 13 37t35 19q4 0 57 7t133 15q16 36 27 66t19 52q18 54 53 143t75 186t81 188t71 151q4 32 32 46q8 4 26 4q16 0 28 -6q26 -14 30 -46q26 -60 61 -152t70 -189t63 -186 t44 -143q10 -38 35 -108t55 -153t63 -169t59 -157t44 -116t18 -47q4 -8 4 -20q0 -38 -36 -52q-6 -4 -20 -4q-16 0 -31 9t-21 27q-2 6 -24 61t-53 135t-69 175t-74 181q-40 6 -92 14q-44 4 -107 9t-139 5q-52 0 -107 -3t-107 -7q-36 -86 -78 -184t-80 -182t-64 -143t-28 -65 q-16 -32 -52 -32q-14 0 -22 4q-34 16 -34 52zM446 676q80 6 166 6q108 0 186 -7t124 -13q-10 28 -17 50t-13 38q-12 48 -34 117t-49 146t-55 154t-54 141q-30 -64 -63 -141t-64 -154t-58 -147t-43 -118q-4 -16 -11 -33t-15 -39zM486 1674q0 24 18 40q28 26 41 41t25 31 q14 18 31 38t51 50t54 46t38 30q16 12 32 26t42 36q18 12 38 12q24 0 42 -18q14 -22 14 -38q0 -22 -20 -42q-28 -24 -46 -38t-32 -26q-18 -14 -36 -29t-52 -43q-28 -26 -42 -42t-26 -32q-14 -16 -30 -35t-48 -49q-14 -14 -38 -14q-26 0 -40 18q-16 16 -16 38z" />
<glyph unicode="&#xc2;" horiz-adv-x="1320" d="M40 10q0 10 6 22q0 2 22 51t55 124t73 166t76 175q-56 -6 -92 -11t-42 -5q-22 0 -37 14t-19 42q0 22 13 37t35 19q4 0 57 7t133 15q16 36 27 66t19 52q18 54 53 143t75 186t81 188t71 151q4 32 32 46q8 4 26 4q16 0 28 -6q26 -14 30 -46q26 -60 61 -152t70 -189t63 -186 t44 -143q10 -38 35 -108t55 -153t63 -169t59 -157t44 -116t18 -47q4 -8 4 -20q0 -38 -36 -52q-6 -4 -20 -4q-16 0 -31 9t-21 27q-2 6 -24 61t-53 135t-69 175t-74 181q-40 6 -92 14q-44 4 -107 9t-139 5q-52 0 -107 -3t-107 -7q-36 -86 -78 -184t-80 -182t-64 -143t-28 -65 q-16 -32 -52 -32q-14 0 -22 4q-34 16 -34 52zM380 1656q0 20 16 40l124 130l130 118q16 14 38 14q16 0 22 -4q18 0 34 -12l144 -112l144 -114q22 -18 22 -44q0 -22 -14 -36q-14 -20 -42 -20q-22 0 -36 12l-142 114l-122 94l-100 -92l-122 -126q-16 -18 -40 -18q-22 0 -38 16 q-18 18 -18 40zM446 676q80 6 166 6q108 0 186 -7t124 -13q-10 28 -17 50t-13 38q-12 48 -34 117t-49 146t-55 154t-54 141q-30 -64 -63 -141t-64 -154t-58 -147t-43 -118q-4 -16 -11 -33t-15 -39z" />
<glyph unicode="&#xc3;" horiz-adv-x="1320" d="M40 10q0 10 6 22q0 2 22 51t55 124t73 166t76 175q-56 -6 -92 -11t-42 -5q-22 0 -37 14t-19 42q0 22 13 37t35 19q4 0 57 7t133 15q16 36 27 66t19 52q18 54 53 143t75 186t81 188t71 151q4 32 32 46q8 4 26 4q16 0 28 -6q26 -14 30 -46q26 -60 61 -152t70 -189t63 -186 t44 -143q10 -38 35 -108t55 -153t63 -169t59 -157t44 -116t18 -47q4 -8 4 -20q0 -38 -36 -52q-6 -4 -20 -4q-16 0 -31 9t-21 27q-2 6 -24 61t-53 135t-69 175t-74 181q-40 6 -92 14q-44 4 -107 9t-139 5q-52 0 -107 -3t-107 -7q-36 -86 -78 -184t-80 -182t-64 -143t-28 -65 q-16 -32 -52 -32q-14 0 -22 4q-34 16 -34 52zM364 1652q0 16 12 32q104 150 234 150q58 0 116 -34q46 -24 73 -38t49 -14t41 15t43 49q16 22 44 22q18 0 34 -12q22 -16 22 -44q0 -18 -10 -34q-46 -60 -89 -84t-83 -24q-46 0 -89 21t-89 47q-30 16 -62 16q-74 0 -144 -100 q-16 -24 -46 -24q-16 0 -32 10q-24 18 -24 46zM446 676q80 6 166 6q108 0 186 -7t124 -13q-10 28 -17 50t-13 38q-12 48 -34 117t-49 146t-55 154t-54 141q-30 -64 -63 -141t-64 -154t-58 -147t-43 -118q-4 -16 -11 -33t-15 -39z" />
<glyph unicode="&#xc4;" horiz-adv-x="1320" d="M40 10q0 10 6 22q0 2 22 51t55 124t73 166t76 175q-56 -6 -92 -11t-42 -5q-22 0 -37 14t-19 42q0 22 13 37t35 19q4 0 57 7t133 15q16 36 27 66t19 52q18 54 53 143t75 186t81 188t71 151q4 32 32 46q8 4 26 4q16 0 28 -6q26 -14 30 -46q26 -60 61 -152t70 -189t63 -186 t44 -143q10 -38 35 -108t55 -153t63 -169t59 -157t44 -116t18 -47q4 -8 4 -20q0 -38 -36 -52q-6 -4 -20 -4q-16 0 -31 9t-21 27q-2 6 -24 61t-53 135t-69 175t-74 181q-40 6 -92 14q-44 4 -107 9t-139 5q-52 0 -107 -3t-107 -7q-36 -86 -78 -184t-80 -182t-64 -143t-28 -65 q-16 -32 -52 -32q-14 0 -22 4q-34 16 -34 52zM446 676q80 6 166 6q108 0 186 -7t124 -13q-10 28 -17 50t-13 38q-12 48 -34 117t-49 146t-55 154t-54 141q-30 -64 -63 -141t-64 -154t-58 -147t-43 -118q-4 -16 -11 -33t-15 -39zM470 1728q0 34 23 56t57 22t56 -22t22 -56 t-22 -57t-56 -23t-57 23t-23 57zM770 1728q0 34 22 56t56 22t56 -22t22 -56t-22 -57t-56 -23t-56 23t-22 57z" />
<glyph unicode="&#xc5;" horiz-adv-x="1320" d="M40 10q0 10 6 22q0 2 22 51t55 124t73 166t76 175q-28 -4 -51 -7t-39 -5q-20 -4 -36 -4q-28 0 -44 13t-20 35q0 28 13 44t35 20q4 0 57 7t133 15q16 36 27 66t19 52q18 52 51 136t71 177t77 182t71 153q-58 26 -97 89t-39 137q0 114 60 180t162 66q14 0 22 -2 q102 -6 154 -88q20 -30 28 -65t8 -69q0 -28 -5 -53t-13 -47q-44 -108 -148 -146q28 -64 62 -154t67 -183t61 -178t42 -139q10 -38 35 -108t55 -153t63 -169t59 -157t44 -116t18 -47q4 -8 4 -20q0 -38 -36 -52q-6 -4 -20 -4q-16 0 -31 9t-21 27q-2 6 -23 61t-52 135t-67 175 t-66 181q-10 0 -102 14t-248 14q-52 0 -107 -3t-107 -7q-36 -86 -78 -184t-80 -182t-64 -143t-28 -65q-16 -32 -52 -32q-14 0 -22 4q-34 16 -34 52zM446 676q80 6 166 6q108 0 186 -7t124 -13q-10 28 -17 50t-13 38q-12 48 -34 117t-49 146t-55 154t-54 141 q-30 -64 -63 -141t-64 -154t-58 -147t-43 -118q-4 -16 -11 -33t-15 -39zM612 1658q0 -28 9 -51t22 -39t27 -26t24 -10q30 0 65 22t51 66q12 24 12 60q0 42 -20 74q-22 32 -66 36q-40 0 -64 -11t-37 -31t-18 -43t-5 -47z" />
<glyph unicode="&#xc6;" horiz-adv-x="2036" d="M-20 10q0 20 10 30q0 2 32 49t80 120t107 161t113 172q-34 -4 -55 -7t-29 -3q-20 0 -35 14t-19 42q0 22 13 37t35 19q4 0 51 6t117 14q28 40 48 73t32 55q32 58 90 152t123 195t128 194t105 147q8 12 20 17t24 5h24q44 0 54 -42q18 22 38 24q4 0 50 6t115 13t152 13 t165 6q164 0 261 -14t101 -16q20 -4 33 -21t11 -45q-10 -44 -66 -44q-2 0 -93 14t-247 14q-78 0 -160 -6t-150 -13t-114 -13t-50 -6q-16 0 -32 10q8 -66 16 -152t14 -172t10 -163t4 -127q18 2 58 7t96 10t122 9t136 8q22 0 38 -16t18 -40q0 -22 -16 -39t-38 -17 q-74 -4 -144 -9t-127 -10t-94 -10t-43 -5l2 -34q4 -6 5 -14t-3 -26q6 -66 13 -140t14 -145t13 -131t10 -98q24 2 73 8t113 12t136 10t142 4q164 0 260 -14t100 -14q22 -4 34 -21t10 -45q-10 -46 -66 -44q-40 6 -92 12q-46 4 -108 9t-138 5q-78 0 -160 -6t-151 -12t-114 -12 t-49 -6q-14 0 -20 2q-4 0 -8 -1t-12 -1q-22 0 -37 14t-19 36q0 6 -6 60t-14 133t-17 173t-15 180q-42 6 -117 13t-177 7q-62 0 -126 -4t-122 -8q-56 -88 -121 -186t-122 -184t-97 -145t-44 -65q-16 -24 -46 -24q-18 0 -32 8q-24 18 -24 48zM540 676q86 6 174 6q94 0 166 -6 t118 -12q-2 32 -3 57t-1 45q0 48 -3 119t-8 149t-12 155t-15 141q-44 -64 -98 -144t-106 -163t-98 -158t-76 -127q-8 -12 -17 -28t-21 -34z" />
<glyph unicode="&#xc7;" horiz-adv-x="1180" d="M62 768q0 66 4 115t13 88t22 71t31 62q2 4 29 49t67 103t91 113t101 79q58 26 116 38t110 12q56 0 98 -12q20 -4 52 -15t65 -25t61 -30t40 -30q16 -22 21 -53t5 -59q0 -22 -16 -39t-40 -17q-22 0 -39 17t-17 39v22t-2 20q-20 10 -67 31t-89 31q-16 4 -33 6t-37 2 q-42 0 -89 -9t-89 -31q-28 -12 -61 -46t-66 -77t-63 -89t-50 -84q-14 -26 -25 -52t-18 -58t-10 -74t-3 -98q0 -136 32 -237t83 -175t116 -122t130 -77t124 -40t99 -11q72 0 130 20t99 44t65 46l22 20q16 16 40 16t38 -14q18 -18 18 -42q0 -22 -16 -38q-2 -2 -31 -28t-80 -56 t-123 -55t-162 -25q-30 0 -61 3t-63 11q-2 -10 -12 -20l-35 -40t-43 -48q56 -8 117 -26t101 -58q46 -46 46 -110q0 -88 -78 -134q-32 -18 -72 -26t-86 -8q-76 0 -153 20t-135 54q-28 16 -28 48q0 14 8 28q16 28 48 28q18 0 28 -8q48 -28 112 -43t122 -15q30 0 56 5t44 15 q16 8 19 17t3 19q0 14 -12 30q-16 16 -46 28t-64 19t-70 9t-66 2l-150 -4l92 98l16 16q14 16 36 39t46 49t42 48q-88 32 -170 92t-146 149t-103 210t-39 277z" />
<glyph unicode="&#xc8;" horiz-adv-x="1178" d="M82 1474q0 20 14 36t42 20q44 0 54 -42q14 20 38 24q4 0 49 6t114 13t153 13t166 6q164 0 261 -14t101 -16q44 -10 44 -66q-10 -44 -68 -44q-40 6 -92 14q-44 4 -107 9t-139 5q-78 0 -160 -6t-151 -13t-114 -13t-49 -6q-18 0 -34 10q10 -66 18 -152t14 -172t10 -163 t4 -127q18 2 58 7t95 10t121 9t136 8q22 0 39 -16t17 -40q0 -22 -16 -39t-38 -17q-72 -4 -143 -9t-127 -10t-94 -10t-44 -5q4 -68 12 -151l16 -166t15 -155t13 -116q24 2 73 8t113 12t135 10t141 4q164 0 261 -14t101 -14q44 -10 44 -66q-4 -22 -21 -34t-45 -10q-2 0 -93 13 t-247 13q-78 0 -160 -6t-151 -12t-114 -12t-49 -6h-38q-22 0 -38 14t-18 36q-2 6 -7 54t-12 119t-15 157t-15 169t-12 153t-5 110q0 60 -5 154t-13 193t-18 189t-20 144zM342 2026q0 18 12 36q20 20 44 20q14 0 36 -14q28 -24 45 -36t33 -22q20 -10 41 -25t55 -45 q34 -32 52 -54t30 -40q10 -16 22 -32t38 -40q18 -16 18 -40t-14 -38q-18 -18 -42 -18q-22 0 -38 14q-32 30 -48 52t-28 40l-24 32t-40 40q-28 26 -46 38t-34 22q-18 10 -39 24t-55 42q-18 18 -18 44z" />
<glyph unicode="&#xc9;" horiz-adv-x="1178" d="M82 1474q0 20 14 36t42 20q44 0 54 -42q14 20 38 24q4 0 49 6t114 13t153 13t166 6q164 0 261 -14t101 -16q44 -10 44 -66q-10 -44 -68 -44q-40 6 -92 14q-44 4 -107 9t-139 5q-78 0 -160 -6t-151 -13t-114 -13t-49 -6q-18 0 -34 10q10 -66 18 -152t14 -172t10 -163 t4 -127q18 2 58 7t95 10t121 9t136 8q22 0 39 -16t17 -40q0 -22 -16 -39t-38 -17q-72 -4 -143 -9t-127 -10t-94 -10t-44 -5q4 -68 12 -151l16 -166t15 -155t13 -116q24 2 73 8t113 12t135 10t141 4q164 0 261 -14t101 -14q44 -10 44 -66q-4 -22 -21 -34t-45 -10q-2 0 -93 13 t-247 13q-78 0 -160 -6t-151 -12t-114 -12t-49 -6h-38q-22 0 -38 14t-18 36q-2 6 -7 54t-12 119t-15 157t-15 169t-12 153t-5 110q0 60 -5 154t-13 193t-18 189t-20 144zM466 1756q0 24 18 40q28 26 41 41t25 31q14 18 31 38t51 50t54 46t38 30q16 12 32 26t42 36 q18 12 38 12q24 0 42 -18q14 -22 14 -38q0 -22 -20 -42q-28 -24 -46 -38t-32 -26q-18 -14 -36 -29t-52 -43q-28 -26 -42 -42t-26 -32q-14 -16 -30 -35t-48 -49q-14 -14 -38 -14q-26 0 -40 18q-16 16 -16 38z" />
<glyph unicode="&#xca;" horiz-adv-x="1178" d="M82 1474q0 20 14 36t42 20q44 0 54 -42q14 20 38 24q4 0 49 6t114 13t153 13t166 6q164 0 261 -14t101 -16q44 -10 44 -66q-10 -44 -68 -44q-40 6 -92 14q-44 4 -107 9t-139 5q-78 0 -160 -6t-151 -13t-114 -13t-49 -6q-18 0 -34 10q10 -66 18 -152t14 -172t10 -163 t4 -127q18 2 58 7t95 10t121 9t136 8q22 0 39 -16t17 -40q0 -22 -16 -39t-38 -17q-72 -4 -143 -9t-127 -10t-94 -10t-44 -5q4 -68 12 -151l16 -166t15 -155t13 -116q24 2 73 8t113 12t135 10t141 4q164 0 261 -14t101 -14q44 -10 44 -66q-4 -22 -21 -34t-45 -10q-2 0 -93 13 t-247 13q-78 0 -160 -6t-151 -12t-114 -12t-49 -6h-38q-22 0 -38 14t-18 36q-2 6 -7 54t-12 119t-15 157t-15 169t-12 153t-5 110q0 60 -5 154t-13 193t-18 189t-20 144zM280 1758q0 20 16 40l124 130l130 118q16 14 38 14q16 0 22 -4q18 0 34 -12l144 -112l144 -114 q22 -18 22 -44q0 -22 -14 -36q-14 -20 -42 -20q-22 0 -36 12l-142 114l-122 94l-100 -92l-122 -126q-16 -18 -40 -18q-22 0 -38 16q-18 18 -18 40z" />
<glyph unicode="&#xcb;" horiz-adv-x="1178" d="M82 1474q0 20 14 36t42 20q44 0 54 -42q14 20 38 24q4 0 49 6t114 13t153 13t166 6q164 0 261 -14t101 -16q44 -10 44 -66q-10 -44 -68 -44q-40 6 -92 14q-44 4 -107 9t-139 5q-78 0 -160 -6t-151 -13t-114 -13t-49 -6q-18 0 -34 10q10 -66 18 -152t14 -172t10 -163 t4 -127q18 2 58 7t95 10t121 9t136 8q22 0 39 -16t17 -40q0 -22 -16 -39t-38 -17q-72 -4 -143 -9t-127 -10t-94 -10t-44 -5q4 -68 12 -151l16 -166t15 -155t13 -116q24 2 73 8t113 12t135 10t141 4q164 0 261 -14t101 -14q44 -10 44 -66q-4 -22 -21 -34t-45 -10q-2 0 -93 13 t-247 13q-78 0 -160 -6t-151 -12t-114 -12t-49 -6h-38q-22 0 -38 14t-18 36q-2 6 -7 54t-12 119t-15 157t-15 169t-12 153t-5 110q0 60 -5 154t-13 193t-18 189t-20 144zM388 1790q0 34 23 56t57 22t56 -22t22 -56t-22 -57t-56 -23t-57 23t-23 57zM688 1790q0 34 22 56 t56 22t56 -22t22 -56t-22 -57t-56 -23t-56 23t-22 57z" />
<glyph unicode="&#xcc;" horiz-adv-x="480" d="M-108 1984q0 18 12 36q20 20 44 20q14 0 36 -14q28 -24 45 -36t33 -22q20 -10 41 -25t55 -45q34 -32 52 -54t30 -40q10 -16 22 -32t38 -40q18 -16 18 -40t-14 -38q-18 -18 -42 -18q-22 0 -38 14q-32 30 -48 52t-28 40l-24 32t-40 40q-28 26 -46 38t-34 22q-18 10 -39 24 t-55 42q-18 18 -18 44zM102 1474q0 20 14 36t42 20q20 0 36 -12t20 -32q10 -56 20 -149t18 -195t13 -197t5 -151q0 -38 5 -108t12 -153t15 -170t16 -158t13 -118t5 -49q0 -22 -15 -38t-41 -18q-22 0 -37 14t-19 36q0 6 -5 54t-13 119t-16 157t-15 169t-12 153t-5 110 q0 60 -5 154t-13 193t-18 189t-20 144z" />
<glyph unicode="&#xcd;" horiz-adv-x="480" d="M76 1756q0 24 18 40q28 26 41 41t25 31q14 18 31 38t51 50t54 46t38 30q16 12 32 26t42 36q18 12 38 12q24 0 42 -18q14 -22 14 -38q0 -22 -20 -42q-28 -24 -46 -38t-32 -26q-18 -14 -36 -29t-52 -43q-28 -26 -42 -42t-26 -32q-14 -16 -30 -35t-48 -49q-14 -14 -38 -14 q-26 0 -40 18q-16 16 -16 38zM102 1474q0 20 14 36t42 20q20 0 36 -12t20 -32q10 -56 20 -149t18 -195t13 -197t5 -151q0 -38 5 -108t12 -153t15 -170t16 -158t13 -118t5 -49q0 -22 -15 -38t-41 -18q-22 0 -37 14t-19 36q0 6 -5 54t-13 119t-16 157t-15 169t-12 153t-5 110 q0 60 -5 154t-13 193t-18 189t-20 144z" />
<glyph unicode="&#xce;" horiz-adv-x="480" d="M-192 1696q0 20 16 40l124 130l130 118q16 14 38 14q16 0 22 -4q18 0 34 -12l144 -112l144 -114q22 -18 22 -44q0 -22 -14 -36q-14 -20 -42 -20q-22 0 -36 12l-142 114l-122 94l-100 -92l-122 -126q-16 -18 -40 -18q-22 0 -38 16q-18 18 -18 40zM102 1474q0 20 14 36 t42 20q20 0 36 -12t20 -32q10 -56 20 -149t18 -195t13 -197t5 -151q0 -38 5 -108t12 -153t15 -170t16 -158t13 -118t5 -49q0 -22 -15 -38t-41 -18q-22 0 -37 14t-19 36q0 6 -5 54t-13 119t-16 157t-15 169t-12 153t-5 110q0 60 -5 154t-13 193t-18 189t-20 144z" />
<glyph unicode="&#xcf;" horiz-adv-x="480" d="M-84 1768q0 34 23 56t57 22t56 -22t22 -56t-22 -57t-56 -23t-57 23t-23 57zM102 1474q0 20 14 36t42 20q20 0 36 -12t20 -32q10 -56 20 -149t18 -195t13 -197t5 -151q0 -38 5 -108t12 -153t15 -170t16 -158t13 -118t5 -49q0 -22 -15 -38t-41 -18q-22 0 -37 14t-19 36 q0 6 -5 54t-13 119t-16 157t-15 169t-12 153t-5 110q0 60 -5 154t-13 193t-18 189t-20 144zM216 1768q0 34 22 56t56 22t56 -22t22 -56t-22 -57t-56 -23t-56 23t-22 57z" />
<glyph unicode="&#xd0;" horiz-adv-x="1352" d="M-114 744q-2 28 8 44t26 20q4 0 62 9t138 19q-2 54 -6 124t-9 144t-12 144t-15 128q-12 10 -14 26q-2 18 -1 27t5 15q0 4 -1 10t-1 10q-2 28 10 45t34 21q54 0 64 -42q60 16 115 25t121 9q62 0 139 -11t181 -39q78 -22 169 -76t169 -141t130 -209t52 -278 q0 -206 -41 -348t-105 -233t-142 -140t-154 -71q-36 -10 -109 -14t-155 -4q-52 0 -103 1t-93 2t-71 3t-39 2q-22 0 -38 17t-14 39q-2 12 -10 92t-19 189t-21 224t-14 197q-76 -10 -132 -19t-58 -9q-20 0 -32 13t-14 35zM192 1378q8 -60 14 -132l12 -144t9 -139t5 -119 q12 0 25 1t25 1q124 0 196 -14t76 -16q34 -10 34 -54q-4 -28 -16 -42t-26 -14q-8 0 -78 14t-186 14q-12 0 -24 -1t-24 -1q4 -66 12 -162t17 -192t18 -178t13 -124q58 -4 123 -5t129 -1q80 0 142 3t90 11q112 32 182 105t110 169t54 203t14 207q0 132 -45 235t-111 178 t-142 121t-138 62q-96 26 -165 36t-127 10t-109 -9t-109 -23z" />
<glyph unicode="&#xd1;" horiz-adv-x="1392" d="M92 1474q0 20 14 36t42 20q16 0 29 -6t23 -14q16 10 34 10q28 0 46 -22q28 -36 65 -91t79 -119t85 -132t83 -132t72 -120t54 -94q22 -40 66 -110t98 -154t111 -171t103 -157q-8 72 -16 156t-15 164t-11 148t-4 108q0 60 -5 154t-13 193t-18 189t-20 144q0 20 14 36t42 20 q20 0 36 -12t20 -32q10 -56 20 -149t18 -195t13 -197t5 -151q0 -38 5 -108t12 -153t15 -170t16 -158t13 -118t5 -49q0 -38 -42 -58q-14 -8 -30 -8q-30 0 -48 24l-36 54t-78 119t-103 157t-109 168t-96 152t-66 110q-32 56 -83 141t-108 175t-113 176t-98 144q8 -66 16 -150 t14 -168t9 -158t3 -122q0 -38 5 -108t12 -153t15 -170t16 -158t13 -118t5 -49q0 -22 -15 -38t-41 -18q-22 0 -38 14t-18 36q0 6 -5 54t-13 119t-16 157t-15 169t-12 153t-5 110q0 60 -5 154t-13 193t-18 189t-20 144zM282 1694q0 16 12 32q104 150 234 150q58 0 116 -34 q46 -24 73 -38t49 -14t41 15t43 49q16 22 44 22q18 0 34 -12q22 -16 22 -44q0 -18 -10 -34q-46 -60 -89 -84t-83 -24q-46 0 -89 21t-89 47q-30 16 -62 16q-74 0 -144 -100q-16 -24 -46 -24q-16 0 -32 10q-24 18 -24 46z" />
<glyph unicode="&#xd2;" horiz-adv-x="1452" d="M92 662q0 96 15 199t45 205q56 192 147 314t199 156q30 8 62 8h20t20 -4q26 10 70 24q20 6 48 6q60 0 137 -30t153 -84q40 -28 85 -70t89 -98t82 -127t66 -161q30 -102 30 -210q0 -102 -27 -204t-79 -200q-70 -128 -166 -221t-192 -121q-100 -30 -204 -30q-120 0 -234 40 q-44 16 -92 43t-94 69t-85 101t-63 141q-32 108 -32 254zM204 662q0 -126 28 -222q20 -64 50 -112t66 -81t75 -54t73 -33q92 -34 196 -34q90 0 172 24q62 18 143 90t149 198q28 56 60 147t32 205q0 88 -26 178q-24 78 -57 141t-71 112t-77 85t-73 60q-74 52 -137 72t-105 20 q-58 -18 -96 -36t-40 -18q-12 -6 -26 -6q-26 0 -40 18q-70 -38 -134 -138t-106 -244q-28 -94 -42 -188t-14 -184zM486 2004q0 18 12 36q20 20 44 20q14 0 36 -14q28 -24 45 -36t33 -22q20 -10 41 -25t55 -45q34 -32 52 -54t30 -40q10 -16 22 -32t38 -40q18 -16 18 -40 t-14 -38q-18 -18 -42 -18q-22 0 -38 14q-32 30 -48 52t-28 40l-24 32t-40 40q-28 26 -46 38t-34 22q-18 10 -39 24t-55 42q-18 18 -18 44z" />
<glyph unicode="&#xd3;" horiz-adv-x="1452" d="M92 662q0 96 15 199t45 205q56 192 147 314t199 156q30 8 62 8h20t20 -4q26 10 70 24q20 6 48 6q60 0 137 -30t153 -84q40 -28 85 -70t89 -98t82 -127t66 -161q30 -102 30 -210q0 -102 -27 -204t-79 -200q-70 -128 -166 -221t-192 -121q-100 -30 -204 -30q-120 0 -234 40 q-44 16 -92 43t-94 69t-85 101t-63 141q-32 108 -32 254zM204 662q0 -126 28 -222q20 -64 50 -112t66 -81t75 -54t73 -33q92 -34 196 -34q90 0 172 24q62 18 143 90t149 198q28 56 60 147t32 205q0 88 -26 178q-24 78 -57 141t-71 112t-77 85t-73 60q-74 52 -137 72t-105 20 q-58 -18 -96 -36t-40 -18q-12 -6 -26 -6q-26 0 -40 18q-70 -38 -134 -138t-106 -244q-28 -94 -42 -188t-14 -184zM466 1736q0 24 18 40q28 26 41 41t25 31q14 18 31 38t51 50t54 46t38 30q16 12 32 26t42 36q18 12 38 12q24 0 42 -18q14 -22 14 -38q0 -22 -20 -42 q-28 -24 -46 -38t-32 -26q-18 -14 -36 -29t-52 -43q-28 -26 -42 -42t-26 -32q-14 -16 -30 -35t-48 -49q-14 -14 -38 -14q-26 0 -40 18q-16 16 -16 38z" />
<glyph unicode="&#xd4;" horiz-adv-x="1452" d="M92 662q0 96 15 199t45 205q56 192 147 314t199 156q30 8 62 8h20t20 -4q26 10 70 24q20 6 48 6q60 0 137 -30t153 -84q40 -28 85 -70t89 -98t82 -127t66 -161q30 -102 30 -210q0 -102 -27 -204t-79 -200q-70 -128 -166 -221t-192 -121q-100 -30 -204 -30q-120 0 -234 40 q-44 16 -92 43t-94 69t-85 101t-63 141q-32 108 -32 254zM204 662q0 -126 28 -222q20 -64 50 -112t66 -81t75 -54t73 -33q92 -34 196 -34q90 0 172 24q62 18 143 90t149 198q28 56 60 147t32 205q0 88 -26 178q-24 78 -57 141t-71 112t-77 85t-73 60q-74 52 -137 72t-105 20 q-58 -18 -96 -36t-40 -18q-12 -6 -26 -6q-26 0 -40 18q-70 -38 -134 -138t-106 -244q-28 -94 -42 -188t-14 -184zM342 1718q0 20 16 40l124 130l130 118q16 14 38 14q16 0 22 -4q18 0 34 -12l144 -112l144 -114q22 -18 22 -44q0 -22 -14 -36q-14 -20 -42 -20q-22 0 -36 12 l-142 114l-122 94l-100 -92l-122 -126q-16 -18 -40 -18q-22 0 -38 16q-18 18 -18 40z" />
<glyph unicode="&#xd5;" horiz-adv-x="1452" d="M92 662q0 96 15 199t45 205q56 192 147 314t199 156q30 8 62 8h20t20 -4q26 10 70 24q20 6 48 6q60 0 137 -30t153 -84q40 -28 85 -70t89 -98t82 -127t66 -161q30 -102 30 -210q0 -102 -27 -204t-79 -200q-70 -128 -166 -221t-192 -121q-100 -30 -204 -30q-120 0 -234 40 q-44 16 -92 43t-94 69t-85 101t-63 141q-32 108 -32 254zM204 662q0 -126 28 -222q20 -64 50 -112t66 -81t75 -54t73 -33q92 -34 196 -34q90 0 172 24q62 18 143 90t149 198q28 56 60 147t32 205q0 88 -26 178q-24 78 -57 141t-71 112t-77 85t-73 60q-74 52 -137 72t-105 20 q-58 -18 -96 -36t-40 -18q-12 -6 -26 -6q-26 0 -40 18q-70 -38 -134 -138t-106 -244q-28 -94 -42 -188t-14 -184zM344 1734q0 16 12 32q104 150 234 150q58 0 116 -34q46 -24 73 -38t49 -14t41 15t43 49q16 22 44 22q18 0 34 -12q22 -16 22 -44q0 -18 -10 -34 q-46 -60 -89 -84t-83 -24q-46 0 -89 21t-89 47q-30 16 -62 16q-74 0 -144 -100q-16 -24 -46 -24q-16 0 -32 10q-24 18 -24 46z" />
<glyph unicode="&#xd6;" horiz-adv-x="1452" d="M92 662q0 96 15 199t45 205q56 192 147 314t199 156q30 8 62 8h20t20 -4q26 10 70 24q20 6 48 6q60 0 137 -30t153 -84q40 -28 85 -70t89 -98t82 -127t66 -161q30 -102 30 -210q0 -102 -27 -204t-79 -200q-70 -128 -166 -221t-192 -121q-100 -30 -204 -30q-120 0 -234 40 q-44 16 -92 43t-94 69t-85 101t-63 141q-32 108 -32 254zM204 662q0 -126 28 -222q20 -64 50 -112t66 -81t75 -54t73 -33q92 -34 196 -34q90 0 172 24q62 18 143 90t149 198q28 56 60 147t32 205q0 88 -26 178q-24 78 -57 141t-71 112t-77 85t-73 60q-74 52 -137 72t-105 20 q-58 -18 -96 -36t-40 -18q-12 -6 -26 -6q-26 0 -40 18q-70 -38 -134 -138t-106 -244q-28 -94 -42 -188t-14 -184zM488 1790q0 34 23 56t57 22t56 -22t22 -56t-22 -57t-56 -23t-57 23t-23 57zM788 1790q0 34 22 56t56 22t56 -22t22 -56t-22 -57t-56 -23t-56 23t-22 57z" />
<glyph unicode="&#xd7;" horiz-adv-x="844" d="M82 929q0 21 16 43q34 34 74 4q2 -2 29 -22t68 -53t92 -76t103 -91q42 48 81 94t68 83t47 60t22 27q14 16 35 16t43 -16q16 -16 17 -36t-11 -38q-2 -2 -20 -26t-48 -62t-69 -85t-83 -95q112 -112 169 -189t59 -81q12 -16 9 -37t-25 -39q-38 -26 -78 14q0 2 -53 73 t-159 177l-16 -16q-116 -118 -194 -175t-82 -61q-40 -24 -78 16q-12 16 -9 37t25 41q34 24 74 56q34 28 82 68t102 96l16 16q-50 46 -101 89t-92 76t-68 53t-29 22q-16 16 -16 37z" />
<glyph unicode="&#xd8;" horiz-adv-x="1450" d="M0 24q0 22 14 38q6 6 54 61t118 137q-20 32 -37 69t-31 79q-16 56 -24 120t-8 134q0 96 15 199t45 205q58 192 148 314t198 156q30 8 62 8h20t20 -4q26 10 70 24q20 6 48 6q60 0 137 -30t153 -84q70 -48 144 -128q62 70 113 130t81 100q18 22 44 22q18 0 34 -12 q22 -16 22 -44q0 -22 -12 -36q-34 -44 -90 -110t-124 -142q34 -50 61 -108t49 -128q30 -102 30 -210q0 -102 -27 -204t-79 -200q-34 -64 -76 -120t-89 -101t-96 -76t-97 -45q-100 -30 -204 -30q-120 0 -234 40q-46 16 -96 45t-98 75q-70 -80 -114 -132t-46 -54 q-16 -20 -42 -20q-18 0 -36 14q-20 18 -20 42zM198 662q0 -126 28 -222q8 -26 18 -48t20 -42q62 70 128 145t127 143t112 124t83 90t73 78t88 95t97 107t98 110q-34 40 -68 71t-64 53q-74 52 -137 72t-105 20q-58 -18 -96 -36t-40 -18q-12 -6 -26 -6q-26 0 -40 18 q-70 -38 -134 -138t-106 -244q-28 -94 -42 -188t-14 -184zM332 258q40 -38 81 -61t77 -37q92 -34 196 -34q90 0 172 24q62 18 144 91t148 197q28 56 60 147t32 205q0 88 -26 178q-16 52 -36 96t-42 84q-48 -54 -97 -108t-94 -103t-84 -91t-69 -72q-32 -34 -85 -92t-116 -128 t-131 -147t-130 -149z" />
<glyph unicode="&#xd9;" horiz-adv-x="1350" d="M30 1456q0 44 56 56q20 0 36 -12t20 -34q12 -58 22 -151t18 -194t13 -195t7 -152l6 -220v-36q0 -192 124 -314q36 -34 76 -58t82 -40t82 -24t74 -8h24q76 6 143 17t121 37t94 70t62 118q16 50 21 119t5 137q0 80 -4 139t-4 63q-2 60 -8 154t-13 193t-17 190t-22 145 q0 44 56 56q20 0 36 -12t20 -34q12 -56 23 -149t19 -194t13 -195t5 -152q0 -12 4 -71t4 -135q0 -74 -6 -151t-24 -135q-32 -106 -92 -168t-134 -94t-151 -42t-141 -16q-10 -2 -17 -2h-17q-90 0 -197 38t-197 124q-84 84 -118 194t-38 240l-6 214q-2 62 -7 157t-13 194 t-18 189t-22 144zM322 1882q0 18 12 36q20 20 44 20q14 0 36 -14q28 -24 45 -36t33 -22q20 -10 41 -25t55 -45q34 -32 52 -54t30 -40q10 -16 22 -32t38 -40q18 -16 18 -40t-14 -38q-18 -18 -42 -18q-22 0 -38 14q-32 30 -48 52t-28 40l-24 32t-40 40q-28 26 -46 38t-34 22 q-18 10 -39 24t-55 42q-18 18 -18 44z" />
<glyph unicode="&#xda;" horiz-adv-x="1350" d="M30 1456q0 44 56 56q20 0 36 -12t20 -34q12 -58 22 -151t18 -194t13 -195t7 -152l6 -220v-36q0 -192 124 -314q36 -34 76 -58t82 -40t82 -24t74 -8h24q76 6 143 17t121 37t94 70t62 118q16 50 21 119t5 137q0 80 -4 139t-4 63q-2 60 -8 154t-13 193t-17 190t-22 145 q0 44 56 56q20 0 36 -12t20 -34q12 -56 23 -149t19 -194t13 -195t5 -152q0 -12 4 -71t4 -135q0 -74 -6 -151t-24 -135q-32 -106 -92 -168t-134 -94t-151 -42t-141 -16q-10 -2 -17 -2h-17q-90 0 -197 38t-197 124q-84 84 -118 194t-38 240l-6 214q-2 62 -7 157t-13 194 t-18 189t-22 144zM466 1572q0 24 18 40q28 26 41 41t25 31q14 18 31 38t51 50t54 46t38 30q16 12 32 26t42 36q18 12 38 12q24 0 42 -18q14 -22 14 -38q0 -22 -20 -42q-28 -24 -46 -38t-32 -26q-18 -14 -36 -29t-52 -43q-28 -26 -42 -42t-26 -32q-14 -16 -30 -35t-48 -49 q-14 -14 -38 -14q-26 0 -40 18q-16 16 -16 38z" />
<glyph unicode="&#xdb;" horiz-adv-x="1350" d="M30 1456q0 44 56 56q20 0 36 -12t20 -34q12 -58 22 -151t18 -194t13 -195t7 -152l6 -220v-36q0 -192 124 -314q36 -34 76 -58t82 -40t82 -24t74 -8h24q76 6 143 17t121 37t94 70t62 118q16 50 21 119t5 137q0 80 -4 139t-4 63q-2 60 -8 154t-13 193t-17 190t-22 145 q0 44 56 56q20 0 36 -12t20 -34q12 -56 23 -149t19 -194t13 -195t5 -152q0 -12 4 -71t4 -135q0 -74 -6 -151t-24 -135q-32 -106 -92 -168t-134 -94t-151 -42t-141 -16q-10 -2 -17 -2h-17q-90 0 -197 38t-197 124q-84 84 -118 194t-38 240l-6 214q-2 62 -7 157t-13 194 t-18 189t-22 144zM280 1614q0 20 16 40l124 130l130 118q16 14 38 14q16 0 22 -4q18 0 34 -12l144 -112l144 -114q22 -18 22 -44q0 -22 -14 -36q-14 -20 -42 -20q-22 0 -36 12l-142 114l-122 94l-100 -92l-122 -126q-16 -18 -40 -18q-22 0 -38 16q-18 18 -18 40z" />
<glyph unicode="&#xdc;" horiz-adv-x="1350" d="M30 1456q0 44 56 56q20 0 36 -12t20 -34q12 -58 22 -151t18 -194t13 -195t7 -152l6 -220v-36q0 -192 124 -314q36 -34 76 -58t82 -40t82 -24t74 -8h24q76 6 143 17t121 37t94 70t62 118q16 50 21 119t5 137q0 80 -4 139t-4 63q-2 60 -8 154t-13 193t-17 190t-22 145 q0 44 56 56q20 0 36 -12t20 -34q12 -56 23 -149t19 -194t13 -195t5 -152q0 -12 4 -71t4 -135q0 -74 -6 -151t-24 -135q-32 -106 -92 -168t-134 -94t-151 -42t-141 -16q-10 -2 -17 -2h-17q-90 0 -197 38t-197 124q-84 84 -118 194t-38 240l-6 214q-2 62 -7 157t-13 194 t-18 189t-22 144zM388 1708q0 34 23 56t57 22t56 -22t22 -56t-22 -57t-56 -23t-57 23t-23 57zM688 1708q0 34 22 56t56 22t56 -22t22 -56t-22 -57t-56 -23t-56 23t-22 57z" />
<glyph unicode="&#xdd;" horiz-adv-x="1062" d="M-82 1474q0 28 22 46q16 10 34 10q12 0 24 -5t20 -17q38 -50 102 -145t134 -203t135 -213t105 -175q18 30 30 48q20 38 53 94t73 120t83 132t85 132t79 119t65 91q16 22 46 22q16 0 32 -10q22 -16 22 -46q0 -20 -10 -34q-38 -50 -97 -138t-122 -187t-121 -193t-92 -156 q-10 -22 -29 -53t-47 -75q2 -48 8 -112t13 -132t14 -134t14 -119t11 -87t4 -36q0 -22 -15 -37t-41 -19q-22 0 -37 13t-19 35q0 4 -4 36t-10 81t-13 111t-14 126t-13 127t-8 115q-12 12 -12 32q0 18 8 28q-6 4 -14 16q-34 60 -99 166t-139 221t-142 217t-106 154 q-12 18 -12 34zM424 1572q0 24 18 40q28 26 41 41t25 31q14 18 31 38t51 50t54 46t38 30q16 12 32 26t42 36q18 12 38 12q24 0 42 -18q14 -22 14 -38q0 -22 -20 -42q-28 -24 -46 -38t-32 -26q-18 -14 -36 -29t-52 -43q-28 -26 -42 -42t-26 -32q-14 -16 -30 -35t-48 -49 q-14 -14 -38 -14q-26 0 -40 18q-16 16 -16 38z" />
<glyph unicode="&#xde;" horiz-adv-x="1084" d="M82 1294q-4 22 8 39t32 21q22 4 39 -7t21 -33q10 -46 18 -122t14 -162q56 14 109 22t114 8t136 -12t177 -38q72 -20 125 -65t87 -102t50 -117t10 -108l-2 -22q-4 -36 -12 -81t-34 -88t-76 -81t-136 -62q-52 -16 -123 -21t-147 -5q-40 0 -80 1t-80 3h-66q10 -98 17 -169 t9 -73q2 -22 -12 -37t-38 -19q-20 0 -34 13t-16 31q-2 10 -10 86t-18 180q-20 14 -20 40q0 18 12 34q-10 104 -17 200t-7 144q0 40 -2 97t-6 121q-30 6 -36 36q-6 20 3 36t25 22q-6 90 -15 168t-19 122zM222 928q4 -70 7 -133t3 -103q0 -46 7 -137t17 -191q20 -2 39 -2h39 q54 -2 110 -3t109 1t100 6t83 14q62 18 97 42t53 53t24 63t10 70l2 22q2 28 -8 71t-34 85t-63 77t-93 49q-96 26 -166 36t-127 10t-106 -8t-103 -22z" />
<glyph unicode="&#xdf;" horiz-adv-x="1362" d="M92 1194q0 58 24 115t70 103q90 94 214 94q94 0 164 -37t118 -91t76 -116t40 -110q0 -54 -14 -91t-36 -63t-47 -43t-49 -31q-44 -26 -64 -47t-20 -67q0 -48 25 -79t71 -52t111 -34t145 -25l42 -8q88 -14 156 -48t113 -79t68 -97t23 -102q0 -54 -27 -105t-64 -93t-75 -71 t-58 -41q-24 -12 -62 -24t-78 -20t-76 -13t-58 -5q-18 0 -69 7t-110 36t-115 89t-86 166q0 18 13 33t43 23q40 0 54 -40q20 -72 60 -113t82 -60t78 -24t50 -5q18 0 49 4t64 12t63 16t46 18q18 10 46 33t54 53t45 62t19 62q0 32 -17 66t-51 64t-84 53t-114 33l-40 6 q-76 12 -155 27t-144 47t-107 86t-42 142q0 48 13 82t34 58t46 41t47 29q40 24 64 47t26 77q-4 14 -21 55t-50 85t-85 77t-130 33q-74 0 -134 -60q-62 -62 -62 -142l8 -288q2 -64 11 -154t22 -188t28 -196t27 -177t21 -129t9 -54q0 -20 -14 -36t-42 -20q-20 0 -35 12t-19 34 q-2 6 -11 58t-22 131t-27 176t-27 196t-22 189t-11 156z" />
<glyph unicode="&#xe0;" d="M92 534q0 120 36 213t93 163t128 118t139 78t126 43t92 13q60 0 104 -23t73 -52t43 -54t14 -27q6 -10 6 -22q0 -20 -18 -42q18 -94 18 -248q0 -32 -3 -64t-7 -66q18 -124 42 -222t45 -166t36 -105t15 -39q2 -6 3 -11t1 -11q0 -36 -32 -52q-16 -4 -24 -4q-38 0 -50 32 q-4 8 -37 95t-69 243q-32 -78 -75 -144t-92 -114t-102 -75t-105 -27q-204 0 -302 140t-98 430zM204 534q0 -152 25 -242t66 -138t92 -63t105 -15q42 0 92 39t97 105t85 155t56 189q-14 96 -22 202t-10 226q-22 18 -22 44q-14 6 -29 10t-33 4q-26 0 -74 -11t-104 -36 t-113 -65t-104 -98t-77 -134t-30 -172zM362 1678q0 18 12 36q20 20 44 20q14 0 36 -14q28 -24 45 -36t33 -22q20 -10 41 -25t55 -45q34 -32 52 -54t30 -40q10 -16 22 -32t38 -40q18 -16 18 -40t-14 -38q-18 -18 -42 -18q-22 0 -38 14q-32 30 -48 52t-28 40l-24 32t-40 40 q-28 26 -46 38t-34 22q-18 10 -39 24t-55 42q-18 18 -18 44z" />
<glyph unicode="&#xe1;" d="M92 534q0 120 36 213t93 163t128 118t139 78t126 43t92 13q60 0 104 -23t73 -52t43 -54t14 -27q6 -10 6 -22q0 -20 -18 -42q18 -94 18 -248q0 -32 -3 -64t-7 -66q18 -124 42 -222t45 -166t36 -105t15 -39q2 -6 3 -11t1 -11q0 -36 -32 -52q-16 -4 -24 -4q-38 0 -50 32 q-4 8 -37 95t-69 243q-32 -78 -75 -144t-92 -114t-102 -75t-105 -27q-204 0 -302 140t-98 430zM204 534q0 -152 25 -242t66 -138t92 -63t105 -15q42 0 92 39t97 105t85 155t56 189q-14 96 -22 202t-10 226q-22 18 -22 44q-14 6 -29 10t-33 4q-26 0 -74 -11t-104 -36 t-113 -65t-104 -98t-77 -134t-30 -172zM384 1346q0 24 18 40q28 26 41 41t25 31q14 18 31 38t51 50t54 46t38 30q16 12 32 26t42 36q18 12 38 12q24 0 42 -18q14 -22 14 -38q0 -22 -20 -42q-28 -24 -46 -38t-32 -26q-18 -14 -36 -29t-52 -43q-28 -26 -42 -42t-26 -32 q-14 -16 -30 -35t-48 -49q-14 -14 -38 -14q-26 0 -40 18q-16 16 -16 38z" />
<glyph unicode="&#xe2;" d="M92 534q0 120 36 213t93 163t128 118t139 78t126 43t92 13q60 0 104 -23t73 -52t43 -54t14 -27q6 -10 6 -22q0 -20 -18 -42q18 -94 18 -248q0 -32 -3 -64t-7 -66q18 -124 42 -222t45 -166t36 -105t15 -39q2 -6 3 -11t1 -11q0 -36 -32 -52q-16 -4 -24 -4q-38 0 -50 32 q-4 8 -37 95t-69 243q-32 -78 -75 -144t-92 -114t-102 -75t-105 -27q-204 0 -302 140t-98 430zM204 534q0 -152 25 -242t66 -138t92 -63t105 -15q42 0 92 39t97 105t85 155t56 189q-14 96 -22 202t-10 226q-22 18 -22 44q-14 6 -29 10t-33 4q-26 0 -74 -11t-104 -36 t-113 -65t-104 -98t-77 -134t-30 -172zM260 1370q0 20 16 40l124 130l130 118q16 14 38 14q16 0 22 -4q18 0 34 -12l144 -112l144 -114q22 -18 22 -44q0 -22 -14 -36q-14 -20 -42 -20q-22 0 -36 12l-142 114l-122 94l-100 -92l-122 -126q-16 -18 -40 -18q-22 0 -38 16 q-18 18 -18 40z" />
<glyph unicode="&#xe3;" d="M92 534q0 120 36 213t93 163t128 118t139 78t126 43t92 13q60 0 104 -23t73 -52t43 -54t14 -27q6 -10 6 -22q0 -20 -18 -42q18 -94 18 -248q0 -32 -3 -64t-7 -66q18 -124 42 -222t45 -166t36 -105t15 -39q2 -6 3 -11t1 -11q0 -36 -32 -52q-16 -4 -24 -4q-38 0 -50 32 q-4 8 -37 95t-69 243q-32 -78 -75 -144t-92 -114t-102 -75t-105 -27q-204 0 -302 140t-98 430zM204 534q0 -152 25 -242t66 -138t92 -63t105 -15q42 0 92 39t97 105t85 155t56 189q-14 96 -22 202t-10 226q-22 18 -22 44q-14 6 -29 10t-33 4q-26 0 -74 -11t-104 -36 t-113 -65t-104 -98t-77 -134t-30 -172zM282 1326q0 16 12 32q104 150 234 150q58 0 116 -34q46 -24 73 -38t49 -14t41 15t43 49q16 22 44 22q18 0 34 -12q22 -16 22 -44q0 -18 -10 -34q-46 -60 -89 -84t-83 -24q-46 0 -89 21t-89 47q-30 16 -62 16q-74 0 -144 -100 q-16 -24 -46 -24q-16 0 -32 10q-24 18 -24 46z" />
<glyph unicode="&#xe4;" d="M92 534q0 120 36 213t93 163t128 118t139 78t126 43t92 13q60 0 104 -23t73 -52t43 -54t14 -27q6 -10 6 -22q0 -20 -18 -42q18 -94 18 -248q0 -32 -3 -64t-7 -66q18 -124 42 -222t45 -166t36 -105t15 -39q2 -6 3 -11t1 -11q0 -36 -32 -52q-16 -4 -24 -4q-38 0 -50 32 q-4 8 -37 95t-69 243q-32 -78 -75 -144t-92 -114t-102 -75t-105 -27q-204 0 -302 140t-98 430zM204 534q0 -152 25 -242t66 -138t92 -63t105 -15q42 0 92 39t97 105t85 155t56 189q-14 96 -22 202t-10 226q-22 18 -22 44q-14 6 -29 10t-33 4q-26 0 -74 -11t-104 -36 t-113 -65t-104 -98t-77 -134t-30 -172zM368 1400q0 34 23 56t57 22t56 -22t22 -56t-22 -57t-56 -23t-57 23t-23 57zM668 1400q0 34 22 56t56 22t56 -22t22 -56t-22 -57t-56 -23t-56 23t-22 57z" />
<glyph unicode="&#xe5;" d="M92 534q0 128 41 225t104 168t139 118t148 75q-60 22 -103 88t-43 144q0 112 60 178t162 66h20q104 -10 154 -90q20 -30 28 -64t8 -68q0 -60 -18 -102q-24 -64 -82 -110q60 0 103 -24t71 -53t42 -53t14 -26q6 -10 6 -22q0 -20 -18 -42q18 -94 18 -248q0 -32 -3 -64 t-7 -66q18 -124 42 -222t45 -166t36 -105t15 -39q2 -6 3 -11t1 -11q0 -36 -32 -52q-16 -4 -24 -4q-38 0 -50 32q-4 8 -37 95t-69 243q-32 -78 -75 -144t-92 -114t-102 -75t-105 -27q-204 0 -302 140t-98 430zM204 534q0 -152 25 -242t66 -138t92 -63t105 -15q42 0 92 39 t97 105t85 155t56 189q-14 96 -22 202t-10 226q-22 18 -22 44q-14 6 -29 10t-33 4q-26 0 -74 -11t-104 -36t-113 -65t-104 -98t-77 -134t-30 -172zM490 1352q0 -28 9 -51t21 -40t26 -27t24 -10q32 0 67 22t51 66q10 30 10 62q0 20 -4 38t-14 34q-20 36 -68 38q-40 0 -63 -12 t-37 -31t-18 -43t-4 -46z" />
<glyph unicode="&#xe6;" horiz-adv-x="1830" d="M92 554q0 118 35 209t89 160t121 116t133 77t122 43t88 13q58 0 100 -23t69 -52t41 -53t14 -26q4 -8 4 -22q0 -22 -16 -42q6 -36 10 -81t6 -101q40 122 105 199t133 122t125 62t81 17q54 0 116 -28t116 -87t92 -148t46 -211q12 -12 12 -34t-12 -34q-10 -44 -54 -44 q-18 0 -36 14q-28 -6 -59 -16t-59 -20q-58 -20 -109 -35t-95 -15q-22 0 -63 -7t-89 -18t-96 -24t-84 -23q8 -138 59 -222t123 -129t152 -60t146 -15q34 0 82 5t93 10t79 11l32 4h8q22 0 37 -14t19 -42q0 -20 -13 -35t-33 -19q-4 0 -38 -5t-81 -11t-98 -11t-87 -5 q-134 0 -241 35t-183 99q0 -36 -32 -52q-16 -4 -22 -4q-16 0 -31 9t-21 25q-4 6 -34 89t-64 233q-32 -74 -72 -137t-87 -110t-97 -73t-100 -26q-382 0 -382 562zM204 554q0 -148 23 -237t61 -136t87 -62t99 -15q38 0 86 38t93 103t81 152t52 185q-14 94 -22 199t-8 223 q-22 16 -22 42q-28 14 -54 14t-71 -11t-98 -36t-107 -64t-99 -95t-73 -131t-28 -169zM980 560q36 10 83 21t93 21t87 17t67 7q28 0 74 14t92 30q34 12 68 23t64 17q-8 90 -36 155t-65 109t-78 65t-77 21q-20 0 -76 -21t-118 -77t-114 -153t-64 -249z" />
<glyph unicode="&#xe7;" horiz-adv-x="842" d="M102 571v23q0 130 47 234t113 177t137 114t121 45q10 2 21 2h21q58 0 101 -11t59 -19q22 -4 46 -31t24 -103q0 -24 -17 -40t-39 -16q-24 0 -40 16t-16 40q0 16 -4 32q-12 4 -42 12t-72 8h-15t-17 -2q-32 -4 -85 -36t-104 -91t-89 -143t-38 -190v-18t2 -18q8 -136 46 -228 t87 -149t98 -82t83 -25q24 0 46 6t40 13t28 15l10 6q14 8 32 8q30 0 46 -24q10 -16 10 -32q0 -26 -26 -46q-2 -2 -43 -24t-103 -30q-22 -30 -44 -56t-44 -50q56 -8 117 -26t101 -56q48 -46 48 -110q0 -90 -80 -134q-64 -36 -158 -36q-76 0 -153 20t-135 54q-28 16 -28 48 q0 12 8 28q16 28 48 28q18 0 28 -8q48 -28 112 -43t122 -15q30 0 57 5t43 15t20 19t4 19q0 16 -14 30q-16 16 -46 27t-64 18t-70 10t-66 3l-150 -4l92 98l12 12q12 12 30 32t40 43t40 45q-50 18 -106 60t-104 110t-83 167t-43 231q-2 12 -2 23z" />
<glyph unicode="&#xe8;" horiz-adv-x="1010" d="M92 488q-4 130 23 228t72 168t101 116t109 72t96 37t63 11q52 0 111 -26t110 -79t87 -135t44 -194q12 -16 12 -36t-12 -34q-10 -40 -54 -40q-20 0 -34 12q-54 -12 -112 -34q-52 -18 -102 -32t-90 -14q-22 0 -59 -6t-81 -16t-89 -21t-81 -21q8 -124 57 -199t116 -116 t142 -54t135 -13q32 0 78 4t88 10t74 10l30 4l8 2q22 0 37 -14t19 -42q0 -22 -13 -37t-35 -19q-4 0 -36 -5t-76 -11t-92 -10t-82 -4q-266 0 -408 141t-156 397zM208 562q34 8 77 18t86 19t82 15t63 6q28 0 71 13t85 27q34 12 64 21t58 17q-8 80 -34 138t-60 96t-72 57 t-72 19q-18 0 -71 -19t-110 -68t-106 -136t-61 -223zM322 1616q0 18 12 36q20 20 44 20q14 0 36 -14q28 -24 45 -36t33 -22q20 -10 41 -25t55 -45q34 -32 52 -54t30 -40q10 -16 22 -32t38 -40q18 -16 18 -40t-14 -38q-18 -18 -42 -18q-22 0 -38 14q-32 30 -48 52t-28 40 l-24 32t-40 40q-28 26 -46 38t-34 22q-18 10 -39 24t-55 42q-18 18 -18 44z" />
<glyph unicode="&#xe9;" horiz-adv-x="1010" d="M92 488q-4 130 23 228t72 168t101 116t109 72t96 37t63 11q52 0 111 -26t110 -79t87 -135t44 -194q12 -16 12 -36t-12 -34q-10 -40 -54 -40q-20 0 -34 12q-54 -12 -112 -34q-52 -18 -102 -32t-90 -14q-22 0 -59 -6t-81 -16t-89 -21t-81 -21q8 -124 57 -199t116 -116 t142 -54t135 -13q32 0 78 4t88 10t74 10l30 4l8 2q22 0 37 -14t19 -42q0 -22 -13 -37t-35 -19q-4 0 -36 -5t-76 -11t-92 -10t-82 -4q-266 0 -408 141t-156 397zM208 562q34 8 77 18t86 19t82 15t63 6q28 0 71 13t85 27q34 12 64 21t58 17q-8 80 -34 138t-60 96t-72 57 t-72 19q-18 0 -71 -19t-110 -68t-106 -136t-61 -223zM362 1306q0 24 18 40q28 26 41 41t25 31q14 18 31 38t51 50t54 46t38 30q16 12 32 26t42 36q18 12 38 12q24 0 42 -18q14 -22 14 -38q0 -22 -20 -42q-28 -24 -46 -38t-32 -26q-18 -14 -36 -29t-52 -43q-28 -26 -42 -42 t-26 -32q-14 -16 -30 -35t-48 -49q-14 -14 -38 -14q-26 0 -40 18q-16 16 -16 38z" />
<glyph unicode="&#xea;" horiz-adv-x="1010" d="M92 488q-4 130 23 228t72 168t101 116t109 72t96 37t63 11q52 0 111 -26t110 -79t87 -135t44 -194q12 -16 12 -36t-12 -34q-10 -40 -54 -40q-20 0 -34 12q-54 -12 -112 -34q-52 -18 -102 -32t-90 -14q-22 0 -59 -6t-81 -16t-89 -21t-81 -21q8 -124 57 -199t116 -116 t142 -54t135 -13q32 0 78 4t88 10t74 10l30 4l8 2q22 0 37 -14t19 -42q0 -22 -13 -37t-35 -19q-4 0 -36 -5t-76 -11t-92 -10t-82 -4q-266 0 -408 141t-156 397zM198 1348q0 20 16 40l124 130l130 118q16 14 38 14q16 0 22 -4q18 0 34 -12l144 -112l144 -114q22 -18 22 -44 q0 -22 -14 -36q-14 -20 -42 -20q-22 0 -36 12l-142 114l-122 94l-100 -92l-122 -126q-16 -18 -40 -18q-22 0 -38 16q-18 18 -18 40zM208 562q34 8 77 18t86 19t82 15t63 6q28 0 71 13t85 27q34 12 64 21t58 17q-8 80 -34 138t-60 96t-72 57t-72 19q-18 0 -71 -19t-110 -68 t-106 -136t-61 -223z" />
<glyph unicode="&#xeb;" horiz-adv-x="1010" d="M92 488q-4 130 23 228t72 168t101 116t109 72t96 37t63 11q52 0 111 -26t110 -79t87 -135t44 -194q12 -16 12 -36t-12 -34q-10 -40 -54 -40q-20 0 -34 12q-54 -12 -112 -34q-52 -18 -102 -32t-90 -14q-22 0 -59 -6t-81 -16t-89 -21t-81 -21q8 -124 57 -199t116 -116 t142 -54t135 -13q32 0 78 4t88 10t74 10l30 4l8 2q22 0 37 -14t19 -42q0 -22 -13 -37t-35 -19q-4 0 -36 -5t-76 -11t-92 -10t-82 -4q-266 0 -408 141t-156 397zM208 562q34 8 77 18t86 19t82 15t63 6q28 0 71 13t85 27q34 12 64 21t58 17q-8 80 -34 138t-60 96t-72 57 t-72 19q-18 0 -71 -19t-110 -68t-106 -136t-61 -223zM306 1338q0 34 23 56t57 22t56 -22t22 -56t-22 -57t-56 -23t-57 23t-23 57zM606 1338q0 34 22 56t56 22t56 -22t22 -56t-22 -57t-56 -23t-56 23t-22 57z" />
<glyph unicode="&#xec;" horiz-adv-x="490" d="M-210 1656q0 18 12 36q20 20 44 20q14 0 36 -14q28 -24 45 -36t33 -22q20 -10 41 -25t55 -45q34 -32 52 -54t30 -40q10 -16 22 -32t38 -40q18 -16 18 -40t-14 -38q-18 -18 -42 -18q-22 0 -38 14q-32 30 -48 52t-28 40l-24 32t-40 40q-28 26 -46 38t-34 22q-18 10 -39 24 t-55 42q-18 18 -18 44zM144 1056q0 20 12 36t34 20h8q22 0 37 -13t19 -33q0 -6 9 -62t21 -136t23 -171t15 -163q4 -70 14 -164t22 -179t21 -146t9 -65q0 -22 -14 -37t-42 -19q-22 0 -37 13t-19 35q0 6 -9 66t-21 145t-22 179t-14 166q-4 70 -15 160t-22 170t-20 137t-9 61z " />
<glyph unicode="&#xed;" horiz-adv-x="490" d="M138 1346q0 24 18 40q28 26 41 41t25 31q14 18 31 38t51 50t54 46t38 30q16 12 32 26t42 36q18 12 38 12q24 0 42 -18q14 -22 14 -38q0 -22 -20 -42q-28 -24 -46 -38t-32 -26q-18 -14 -36 -29t-52 -43q-28 -26 -42 -42t-26 -32q-14 -16 -30 -35t-48 -49q-14 -14 -38 -14 q-26 0 -40 18q-16 16 -16 38zM144 1056q0 20 12 36t34 20h8q22 0 37 -13t19 -33q0 -6 9 -62t21 -136t23 -171t15 -163q4 -70 14 -164t22 -179t21 -146t9 -65q0 -22 -14 -37t-42 -19q-22 0 -37 13t-19 35q0 6 -9 66t-21 145t-22 179t-14 166q-4 70 -15 160t-22 170t-20 137 t-9 61z" />
<glyph unicode="&#xee;" horiz-adv-x="490" d="M-150 1328q0 20 16 40l124 130l130 118q16 14 38 14q16 0 22 -4q18 0 34 -12l144 -112l144 -114q22 -18 22 -44q0 -22 -14 -36q-14 -20 -42 -20q-22 0 -36 12l-142 114l-122 94l-100 -92l-122 -126q-16 -18 -40 -18q-22 0 -38 16q-18 18 -18 40zM144 1056q0 20 12 36 t34 20h8q22 0 37 -13t19 -33q0 -6 9 -62t21 -136t23 -171t15 -163q4 -70 14 -164t22 -179t21 -146t9 -65q0 -22 -14 -37t-42 -19q-22 0 -37 13t-19 35q0 6 -9 66t-21 145t-22 179t-14 166q-4 70 -15 160t-22 170t-20 137t-9 61z" />
<glyph unicode="&#xef;" horiz-adv-x="490" d="M-62 1360q0 34 23 56t57 22t56 -22t22 -56t-22 -57t-56 -23t-57 23t-23 57zM144 1056q0 20 12 36t34 20h8q22 0 37 -13t19 -33q0 -6 9 -62t21 -136t23 -171t15 -163q4 -70 14 -164t22 -179t21 -146t9 -65q0 -22 -14 -37t-42 -19q-22 0 -37 13t-19 35q0 6 -9 66t-21 145 t-22 179t-14 166q-4 70 -15 160t-22 170t-20 137t-9 61zM238 1360q0 34 22 56t56 22t56 -22t22 -56t-22 -57t-56 -23t-56 23t-22 57z" />
<glyph unicode="&#xf0;" horiz-adv-x="1054" d="M92 410q0 70 18 154t49 169t74 164t93 141t106 99t114 37q22 0 39 -5t31 -13q10 0 20 1t22 1q20 0 38 -6t36 -19t40 -35t50 -54q-2 26 -11 70t-27 96t-45 109t-65 113q-82 -40 -132 -72t-52 -32q-18 -10 -35 -2t-27 26q-22 54 8 74q4 2 49 31t117 65q-30 32 -63 58 t-73 48q-42 22 -26 66q12 22 32 30t42 0q50 -22 100 -59t96 -93q108 46 159 55t55 11q16 2 31 -9t23 -29q14 -54 -18 -68q-6 -2 -50 -10t-134 -44q90 -144 146 -360t56 -508q0 -146 -46 -266t-115 -206t-150 -133t-149 -47q-78 0 -154 30t-136 87t-98 141t-38 194zM204 410 q0 -92 32 -157t80 -105t102 -59t100 -19q38 0 97 37t114 104t95 161t40 210q0 112 -26 197t-61 144t-70 89t-51 34q-34 0 -59 -5t-27 -5q-22 -2 -34 3t-22 15q-50 -20 -104 -90t-100 -163t-76 -198t-30 -193z" />
<glyph unicode="&#xf1;" horiz-adv-x="1222" d="M112 1118q0 20 14 36t42 20q22 0 37 -13t19 -35q0 -4 4 -25t8 -56t10 -79t12 -92q30 56 71 110t96 96t123 68t152 26q82 0 149 -33t115 -87t75 -122t27 -136q0 -60 5 -114t11 -100q4 -40 8 -78t4 -72q0 -80 6 -128q2 -18 3 -33t1 -31q0 -28 7 -58t17 -57t20 -49t16 -34 t6 -28q0 -32 -28 -48q-8 -4 -14 -6t-14 -2q-32 0 -48 30q-2 2 -14 25t-25 59t-24 80t-11 88q0 10 -1 23t-3 29q-2 28 -4 61t-2 79q0 30 -4 63t-8 73q-6 50 -11 107t-5 121q0 40 -17 87t-49 87t-79 66t-109 26q-78 0 -139 -29t-105 -73t-75 -95t-49 -96t-27 -77t-9 -36 q-6 -18 -16 -28v-36q0 -48 14 -110t32 -132q22 -90 43 -188t21 -200q0 -24 -16 -40t-40 -16q-22 0 -39 16t-17 40q0 92 -19 184t-41 176q-20 74 -35 143t-15 127t-8 146t-19 171t-20 144t-9 65zM262 1386q0 16 12 32q104 150 234 150q58 0 116 -34q46 -24 73 -38t49 -14 t41 15t43 49q16 22 44 22q18 0 34 -12q22 -16 22 -44q0 -18 -10 -34q-46 -60 -89 -84t-83 -24q-46 0 -89 21t-89 47q-30 16 -62 16q-74 0 -144 -100q-16 -24 -46 -24q-16 0 -32 10q-24 18 -24 46z" />
<glyph unicode="&#xf2;" horiz-adv-x="1040" d="M92 410q0 70 18 154t49 169t74 164t93 141t106 99t114 37q22 0 39 -5t31 -13q10 0 20 1t22 1q42 0 97 -41t104 -116t84 -181t35 -238q0 -134 -46 -248t-115 -198t-150 -131t-149 -47q-78 0 -154 30t-136 87t-98 141t-38 194zM204 410q0 -92 32 -157t80 -105t102 -59 t100 -19q38 0 97 37t115 104t96 161t40 210q0 112 -27 197t-62 144t-70 89t-51 34q-34 0 -61 -5t-37 -7q-24 0 -44 20q-50 -20 -104 -90t-100 -163t-76 -198t-30 -193zM322 1636q0 18 12 36q20 20 44 20q14 0 36 -14q28 -24 45 -36t33 -22q20 -10 41 -25t55 -45 q34 -32 52 -54t30 -40q10 -16 22 -32t38 -40q18 -16 18 -40t-14 -38q-18 -18 -42 -18q-22 0 -38 14q-32 30 -48 52t-28 40l-24 32t-40 40q-28 26 -46 38t-34 22q-18 10 -39 24t-55 42q-18 18 -18 44z" />
<glyph unicode="&#xf3;" horiz-adv-x="1040" d="M92 410q0 70 18 154t49 169t74 164t93 141t106 99t114 37q22 0 39 -5t31 -13q10 0 20 1t22 1q42 0 97 -41t104 -116t84 -181t35 -238q0 -134 -46 -248t-115 -198t-150 -131t-149 -47q-78 0 -154 30t-136 87t-98 141t-38 194zM204 410q0 -92 32 -157t80 -105t102 -59 t100 -19q38 0 97 37t115 104t96 161t40 210q0 112 -27 197t-62 144t-70 89t-51 34q-34 0 -61 -5t-37 -7q-24 0 -44 20q-50 -20 -104 -90t-100 -163t-76 -198t-30 -193zM362 1326q0 24 18 40q28 26 41 41t25 31q14 18 31 38t51 50t54 46t38 30q16 12 32 26t42 36q18 12 38 12 q24 0 42 -18q14 -22 14 -38q0 -22 -20 -42q-28 -24 -46 -38t-32 -26q-18 -14 -36 -29t-52 -43q-28 -26 -42 -42t-26 -32q-14 -16 -30 -35t-48 -49q-14 -14 -38 -14q-26 0 -40 18q-16 16 -16 38z" />
<glyph unicode="&#xf4;" horiz-adv-x="1040" d="M92 410q0 70 18 154t49 169t74 164t93 141t106 99t114 37q22 0 39 -5t31 -13q10 0 20 1t22 1q42 0 97 -41t104 -116t84 -181t35 -238q0 -134 -46 -248t-115 -198t-150 -131t-149 -47q-78 0 -154 30t-136 87t-98 141t-38 194zM204 410q0 -92 32 -157t80 -105t102 -59 t100 -19q38 0 97 37t115 104t96 161t40 210q0 112 -27 197t-62 144t-70 89t-51 34q-34 0 -61 -5t-37 -7q-24 0 -44 20q-50 -20 -104 -90t-100 -163t-76 -198t-30 -193zM260 1348q0 20 16 40l124 130l130 118q16 14 38 14q16 0 22 -4q18 0 34 -12l144 -112l144 -114 q22 -18 22 -44q0 -22 -14 -36q-14 -20 -42 -20q-22 0 -36 12l-142 114l-122 94l-100 -92l-122 -126q-16 -18 -40 -18q-22 0 -38 16q-18 18 -18 40z" />
<glyph unicode="&#xf5;" horiz-adv-x="1040" d="M92 410q0 70 18 154t49 169t74 164t93 141t106 99t114 37q22 0 39 -5t31 -13q10 0 20 1t22 1q42 0 97 -41t104 -116t84 -181t35 -238q0 -134 -46 -248t-115 -198t-150 -131t-149 -47q-78 0 -154 30t-136 87t-98 141t-38 194zM204 410q0 -92 32 -157t80 -105t102 -59 t100 -19q38 0 97 37t115 104t96 161t40 210q0 112 -27 197t-62 144t-70 89t-51 34q-34 0 -61 -5t-37 -7q-24 0 -44 20q-50 -20 -104 -90t-100 -163t-76 -198t-30 -193zM240 1346q0 16 12 32q104 150 234 150q58 0 116 -34q46 -24 73 -38t49 -14t41 15t43 49q16 22 44 22 q18 0 34 -12q22 -16 22 -44q0 -18 -10 -34q-46 -60 -89 -84t-83 -24q-46 0 -89 21t-89 47q-30 16 -62 16q-74 0 -144 -100q-16 -24 -46 -24q-16 0 -32 10q-24 18 -24 46z" />
<glyph unicode="&#xf6;" horiz-adv-x="1040" d="M92 410q0 70 18 154t49 169t74 164t93 141t106 99t114 37q22 0 39 -5t31 -13q10 0 20 1t22 1q42 0 97 -41t104 -116t84 -181t35 -238q0 -134 -46 -248t-115 -198t-150 -131t-149 -47q-78 0 -154 30t-136 87t-98 141t-38 194zM204 410q0 -92 32 -157t80 -105t102 -59 t100 -19q38 0 97 37t115 104t96 161t40 210q0 112 -27 197t-62 144t-70 89t-51 34q-34 0 -61 -5t-37 -7q-24 0 -44 20q-50 -20 -104 -90t-100 -163t-76 -198t-30 -193zM346 1400q0 34 23 56t57 22t56 -22t22 -56t-22 -57t-56 -23t-57 23t-23 57zM646 1400q0 34 22 56t56 22 t56 -22t22 -56t-22 -57t-56 -23t-56 23t-22 57z" />
<glyph unicode="&#xf7;" horiz-adv-x="1038" d="M40 640q0 22 14 37t36 19q4 0 49 6t114 13t153 13t166 6q164 0 260 -14t100 -16q46 -10 44 -66q-10 -44 -66 -44q-2 0 -93 14t-245 14q-78 0 -160 -6t-151 -13t-115 -13t-50 -6q-20 0 -36 14t-20 42zM418 312q0 32 23 55t57 23q32 0 55 -23t23 -55q0 -34 -23 -57t-55 -23 q-34 0 -57 23t-23 57zM418 936q0 34 23 56t57 22q32 0 55 -22t23 -56t-23 -56t-55 -22q-34 0 -57 22t-23 56z" />
<glyph unicode="&#xf8;" horiz-adv-x="1086" d="M82 92q0 18 12 34q2 2 18 21t44 53q-22 46 -34 98t-12 112q0 70 18 154t49 169t74 164t93 141t106 99t114 37q22 0 39 -5t31 -13q10 0 20 1t22 1q40 0 90 -36t98 -104q28 34 44 54t18 20q16 22 44 22q18 0 34 -12q22 -18 22 -44q0 -18 -14 -36q-4 -4 -27 -32t-59 -74 q32 -68 51 -152t19 -182q0 -134 -46 -248t-115 -198t-150 -131t-149 -47q-86 0 -170 37t-146 107l-38 -46q-18 -20 -44 -20q-22 0 -36 12q-20 18 -20 44zM222 410q0 -58 16 -112q66 80 144 169t142 157q64 66 135 149t133 157q-34 54 -68 83t-50 33q-34 0 -61 -5t-37 -7 q-24 0 -44 20q-50 -20 -104 -90t-100 -163t-76 -198t-30 -193zM294 190q50 -64 118 -92t124 -28q38 0 97 37t115 104t96 161t40 210q0 70 -11 129t-29 109q-56 -68 -119 -141t-119 -131q-34 -38 -75 -83t-82 -93t-81 -95t-74 -87z" />
<glyph unicode="&#xf9;" horiz-adv-x="1160" d="M102 1090q0 34 30 50q12 6 26 6q34 0 50 -28q0 -2 12 -25t25 -59t24 -80t11 -88q0 -10 1 -24t3 -30q4 -26 6 -59t2 -79q0 -30 4 -63t8 -73q4 -52 10 -108t6 -120q0 -42 17 -88t49 -86t79 -66t109 -26t112 18t90 48t71 67t53 77q-10 74 -17 148t-11 134q-4 70 -15 160 t-22 170t-20 137t-9 61q0 20 14 36t42 20q20 0 35 -13t19 -33q0 -6 9 -62t21 -136t23 -171t15 -163q0 -16 1 -33t3 -37q10 10 22 16t34 4q44 -10 44 -66q-10 -40 -27 -91t-45 -103q12 -96 22 -166t12 -78q0 -22 -14 -37t-42 -19q-22 0 -37 13t-19 35q0 4 -5 35t-11 79 q-62 -70 -148 -116t-200 -46q-82 0 -150 33t-116 87t-74 121t-26 137q0 60 -5 114t-11 100q-4 40 -8 77t-4 73q0 40 -2 72t-6 56q-2 18 -3 33t-1 31q0 28 -7 58t-16 57t-19 49t-16 34q-8 10 -8 26zM260 1534q0 18 12 36q20 20 44 20q14 0 36 -14q28 -24 45 -36t33 -22 q20 -10 41 -25t55 -45q34 -32 52 -54t30 -40q10 -16 22 -32t38 -40q18 -16 18 -40t-14 -38q-18 -18 -42 -18q-22 0 -38 14q-32 30 -48 52t-28 40l-24 32t-40 40q-28 26 -46 38t-34 22q-18 10 -39 24t-55 42q-18 18 -18 44z" />
<glyph unicode="&#xfa;" horiz-adv-x="1160" d="M102 1090q0 34 30 50q12 6 26 6q34 0 50 -28q0 -2 12 -25t25 -59t24 -80t11 -88q0 -10 1 -24t3 -30q4 -26 6 -59t2 -79q0 -30 4 -63t8 -73q4 -52 10 -108t6 -120q0 -42 17 -88t49 -86t79 -66t109 -26t112 18t90 48t71 67t53 77q-10 74 -17 148t-11 134q-4 70 -15 160 t-22 170t-20 137t-9 61q0 20 14 36t42 20q20 0 35 -13t19 -33q0 -6 9 -62t21 -136t23 -171t15 -163q0 -16 1 -33t3 -37q10 10 22 16t34 4q44 -10 44 -66q-10 -40 -27 -91t-45 -103q12 -96 22 -166t12 -78q0 -22 -14 -37t-42 -19q-22 0 -37 13t-19 35q0 4 -5 35t-11 79 q-62 -70 -148 -116t-200 -46q-82 0 -150 33t-116 87t-74 121t-26 137q0 60 -5 114t-11 100q-4 40 -8 77t-4 73q0 40 -2 72t-6 56q-2 18 -3 33t-1 31q0 28 -7 58t-16 57t-19 49t-16 34q-8 10 -8 26zM424 1306q0 24 18 40q28 26 41 41t25 31q14 18 31 38t51 50t54 46t38 30 q16 12 32 26t42 36q18 12 38 12q24 0 42 -18q14 -22 14 -38q0 -22 -20 -42q-28 -24 -46 -38t-32 -26q-18 -14 -36 -29t-52 -43q-28 -26 -42 -42t-26 -32q-14 -16 -30 -35t-48 -49q-14 -14 -38 -14q-26 0 -40 18q-16 16 -16 38z" />
<glyph unicode="&#xfb;" horiz-adv-x="1160" d="M102 1090q0 34 30 50q12 6 26 6q34 0 50 -28q0 -2 12 -25t25 -59t24 -80t11 -88q0 -10 1 -24t3 -30q4 -26 6 -59t2 -79q0 -30 4 -63t8 -73q4 -52 10 -108t6 -120q0 -42 17 -88t49 -86t79 -66t109 -26t112 18t90 48t71 67t53 77q-10 74 -17 148t-11 134q-4 70 -15 160 t-22 170t-20 137t-9 61q0 20 14 36t42 20q20 0 35 -13t19 -33q0 -6 9 -62t21 -136t23 -171t15 -163q0 -16 1 -33t3 -37q10 10 22 16t34 4q44 -10 44 -66q-10 -40 -27 -91t-45 -103q12 -96 22 -166t12 -78q0 -22 -14 -37t-42 -19q-22 0 -37 13t-19 35q0 4 -5 35t-11 79 q-62 -70 -148 -116t-200 -46q-82 0 -150 33t-116 87t-74 121t-26 137q0 60 -5 114t-11 100q-4 40 -8 77t-4 73q0 40 -2 72t-6 56q-2 18 -3 33t-1 31q0 28 -7 58t-16 57t-19 49t-16 34q-8 10 -8 26zM178 1348q0 20 16 40l124 130l130 118q16 14 38 14q16 0 22 -4q18 0 34 -12 l144 -112l144 -114q22 -18 22 -44q0 -22 -14 -36q-14 -20 -42 -20q-22 0 -36 12l-142 114l-122 94l-100 -92l-122 -126q-16 -18 -40 -18q-22 0 -38 16q-18 18 -18 40z" />
<glyph unicode="&#xfc;" horiz-adv-x="1160" d="M102 1090q0 34 30 50q12 6 26 6q34 0 50 -28q0 -2 12 -25t25 -59t24 -80t11 -88q0 -10 1 -24t3 -30q4 -26 6 -59t2 -79q0 -30 4 -63t8 -73q4 -52 10 -108t6 -120q0 -42 17 -88t49 -86t79 -66t109 -26t112 18t90 48t71 67t53 77q-10 74 -17 148t-11 134q-4 70 -15 160 t-22 170t-20 137t-9 61q0 20 14 36t42 20q20 0 35 -13t19 -33q0 -6 9 -62t21 -136t23 -171t15 -163q0 -16 1 -33t3 -37q10 10 22 16t34 4q44 -10 44 -66q-10 -40 -27 -91t-45 -103q12 -96 22 -166t12 -78q0 -22 -14 -37t-42 -19q-22 0 -37 13t-19 35q0 4 -5 35t-11 79 q-62 -70 -148 -116t-200 -46q-82 0 -150 33t-116 87t-74 121t-26 137q0 60 -5 114t-11 100q-4 40 -8 77t-4 73q0 40 -2 72t-6 56q-2 18 -3 33t-1 31q0 28 -7 58t-16 57t-19 49t-16 34q-8 10 -8 26zM306 1318q0 34 23 56t57 22t56 -22t22 -56t-22 -57t-56 -23t-57 23t-23 57z M606 1318q0 34 22 56t56 22t56 -22t22 -56t-22 -57t-56 -23t-56 23t-22 57z" />
<glyph unicode="&#xfd;" horiz-adv-x="1070" d="M20 1110q0 32 28 48q10 8 28 8q34 0 48 -26q22 -38 56 -117t68 -167q12 -28 23 -57t22 -54t19 -45t12 -26l16 -22q20 -30 55 -80t73 -106t72 -108t54 -84q10 -20 23 -39t25 -39q10 48 25 105t47 133q34 84 45 131t17 83q4 34 12 70t32 88q24 50 52 104t53 99t42 75t19 34 q16 28 48 28q18 0 28 -8q28 -16 28 -48q0 -18 -8 -28l-16 -28l-40 -75t-52 -98t-52 -103q-20 -42 -26 -69t-10 -57q-4 -20 -7 -42t-10 -51t-19 -65t-32 -82q-44 -100 -56 -165t-20 -129l-4 -54q0 -14 -6 -26q-4 -22 -8 -45t-10 -51q-16 -68 -29 -111t-27 -83 q-16 -46 -33 -102t-37 -154q-18 -90 -32 -167t-22 -133t-12 -88l-4 -32q-4 -22 -20 -35t-42 -13q-50 6 -50 62q0 2 5 35t13 90t22 134t32 169q10 52 20 92t19 72t18 58t17 50q14 38 26 78t26 102q6 24 9 45t7 41q-20 28 -55 79t-67 107q-18 32 -52 83t-71 105t-72 103 t-55 79l-16 24q-12 16 -31 62t-57 142q-16 38 -32 78t-31 77t-29 66t-24 45q-8 20 -8 28zM444 1284q0 24 18 40q28 26 41 41t25 31q14 18 31 38t51 50t54 46t38 30q16 12 32 26t42 36q18 12 38 12q24 0 42 -18q14 -22 14 -38q0 -22 -20 -42q-28 -24 -46 -38t-32 -26 q-18 -14 -36 -29t-52 -43q-28 -26 -42 -42t-26 -32q-14 -16 -30 -35t-48 -49q-14 -14 -38 -14q-26 0 -40 18q-16 16 -16 38z" />
<glyph unicode="&#xfe;" horiz-adv-x="966" d="M82 1366q-2 22 11 37t35 17q20 4 36 -9t18 -35q0 -4 5 -47t10 -109t10 -148t7 -162q50 36 107 55t112 23t104 -6t85 -32q64 -40 120 -101t92 -136t46 -159t-16 -168q-18 -58 -56 -115t-87 -108t-106 -90t-117 -61q-66 -22 -116 -22q-58 0 -108 28v-32q2 -40 5 -96t7 -118 t8 -123t7 -110t5 -79l2 -32q2 -22 -12 -37t-38 -17q-20 0 -34 13t-16 33l-2 32q-2 30 -5 80t-7 111t-8 123t-7 120t-5 98q0 22 -1 42t-1 40q-4 92 -7 168t-13 156q-6 56 -13 115t-12 114t-8 104t-3 87q0 86 -5 183t-12 179t-12 137t-5 57zM216 788q2 -74 13 -181t23 -205 q6 -58 9 -112t7 -112q20 -14 24 -38q0 -2 5 -13t23 -21q34 -20 73 -15t69 15q48 18 97 51t90 75t72 90t47 96q24 70 12 138t-44 127t-77 106t-89 75q-28 18 -70 23t-88 -2t-92 -28t-84 -57q-10 -10 -20 -12z" />
<glyph unicode="&#xff;" horiz-adv-x="1070" d="M20 1110q0 32 28 48q10 8 28 8q34 0 48 -26q22 -38 56 -117t68 -167q12 -28 23 -57t22 -54t19 -45t12 -26l16 -22q20 -30 55 -80t73 -106t72 -108t54 -84q10 -20 23 -39t25 -39q10 48 25 105t47 133q34 84 45 131t17 83q4 34 12 70t32 88q24 50 52 104t53 99t42 75t19 34 q16 28 48 28q18 0 28 -8q28 -16 28 -48q0 -18 -8 -28l-16 -28l-40 -75t-52 -98t-52 -103q-20 -42 -26 -69t-10 -57q-4 -20 -7 -42t-10 -51t-19 -65t-32 -82q-44 -100 -56 -165t-20 -129l-4 -54q0 -14 -6 -26q-4 -22 -8 -45t-10 -51q-16 -68 -29 -111t-27 -83 q-16 -46 -33 -102t-37 -154q-18 -90 -32 -167t-22 -133t-12 -88l-4 -32q-4 -22 -20 -35t-42 -13q-50 6 -50 62q0 2 5 35t13 90t22 134t32 169q10 52 20 92t19 72t18 58t17 50q14 38 26 78t26 102q6 24 9 45t7 41q-20 28 -55 79t-67 107q-18 32 -52 83t-71 105t-72 103 t-55 79l-16 24q-12 16 -31 62t-57 142q-16 38 -32 78t-31 77t-29 66t-24 45q-8 20 -8 28zM346 1318q0 34 23 56t57 22t56 -22t22 -56t-22 -57t-56 -23t-57 23t-23 57zM646 1318q0 34 22 56t56 22t56 -22t22 -56t-22 -57t-56 -23t-56 23t-22 57z" />
<glyph unicode="&#x152;" horiz-adv-x="2124" d="M92 634q0 96 15 199t45 205q56 192 147 314t199 156q30 8 62 8q10 0 20 -1t20 -3q26 10 70 24q20 6 48 6q64 0 147 -33t169 -99q-2 8 -3 15l-3 21q0 20 14 36t42 20q18 0 34 -11t20 -31q14 20 38 24q4 0 49 6t114 13t153 13t166 6q164 0 261 -14t101 -16q44 -10 42 -66 q-6 -44 -66 -44q-40 6 -92 14q-44 4 -107 9t-139 5q-78 0 -160 -6t-151 -13t-114 -13t-49 -6q-18 0 -34 10q4 -24 7 -52t7 -62q6 -66 12 -137t11 -139t7 -126t2 -98q18 2 58 7t95 10t121 9t136 8q22 0 38 -16t18 -40q0 -22 -16 -39t-38 -17q-72 -4 -143 -9t-127 -10t-94 -10 t-44 -5q4 -68 12 -151l16 -166t15 -155t13 -116q24 2 73 8t112 12t135 10t142 4q164 0 261 -14t101 -14q44 -10 44 -66q-4 -22 -21 -34t-45 -10q-2 0 -93 13t-247 13q-78 0 -160 -6t-151 -12t-114 -12t-49 -6q-14 0 -20 2q-4 0 -7 -1t-13 -1q-22 0 -37 14t-17 36q-2 6 -7 55 t-13 121q-56 -62 -116 -105t-118 -59q-100 -30 -204 -30q-120 0 -234 40q-44 16 -92 43t-94 69t-85 101t-63 141q-32 108 -32 254zM204 634q0 -126 28 -222q20 -64 50 -112t66 -81t75 -54t73 -33q92 -34 196 -34q90 0 172 24q60 18 128 78t122 144q-6 62 -11 124t-10 118 t-7 103t-2 77q0 40 -2 96t-6 119t-10 130t-12 127q-48 54 -99 91t-96 60t-82 33t-59 10q-6 0 -24 -6q-4 -22 -20 -36q-14 -14 -36 -14t-38 16q-16 -10 -24 -12q-6 -2 -10 -4q-12 -6 -26 -6q-26 0 -40 18q-70 -38 -134 -138t-106 -244q-28 -94 -42 -188t-14 -184z" />
<glyph unicode="&#x153;" horiz-adv-x="1772" d="M92 454q0 108 34 205t94 177t144 137t184 87q-24 0 -40 17t-16 39q0 24 16 40t40 16q68 0 125 -22t101 -60t77 -88t55 -104q48 82 107 135t115 84t102 43t66 12q54 0 116 -28t116 -87t92 -148t46 -211q12 -12 12 -34t-12 -34q-10 -44 -54 -44q-18 0 -36 14 q-28 -6 -59 -16t-61 -20q-56 -20 -107 -35t-95 -15q-22 0 -60 -7t-82 -17t-89 -21t-83 -21q-4 -14 -7 -27t-7 -27q16 -122 69 -196t123 -115t146 -54t138 -13q32 0 81 5t94 10t79 11l32 4h8q22 0 37 -14t19 -42q0 -20 -13 -35t-35 -19q-4 0 -37 -5t-80 -11t-98 -11t-87 -5 q-204 0 -342 82t-202 236q-52 -96 -128 -160t-182 -64q-112 0 -198 39t-143 103t-86 146t-29 168zM204 454q0 -62 21 -124t63 -111t107 -79t153 -30q50 0 91 26t74 69t58 97t41 108q-2 16 -2 35v41q-4 70 5 130t23 112q-10 62 -35 129t-71 119q-112 -4 -208 -45t-167 -111 t-112 -164t-41 -202zM954 722q4 -28 6 -53t2 -47q0 -12 -1 -25t-1 -29q36 10 77 20t82 19t76 14t59 5q28 0 74 14t92 30q34 12 68 23t64 17q-8 90 -36 155t-65 109t-78 65t-77 21q-18 0 -62 -15t-96 -53t-103 -103t-81 -167z" />
<glyph unicode="&#x178;" horiz-adv-x="1062" d="M-82 1474q0 28 22 46q16 10 34 10q12 0 24 -5t20 -17q38 -50 102 -145t134 -203t135 -213t105 -175q18 30 30 48q20 38 53 94t73 120t83 132t85 132t79 119t65 91q16 22 46 22q16 0 32 -10q22 -16 22 -46q0 -20 -10 -34q-38 -50 -97 -138t-122 -187t-121 -193t-92 -156 q-10 -22 -29 -53t-47 -75q2 -48 8 -112t13 -132t14 -134t14 -119t11 -87t4 -36q0 -22 -15 -37t-41 -19q-22 0 -37 13t-19 35q0 4 -4 36t-10 81t-13 111t-14 126t-13 127t-8 115q-12 12 -12 32q0 18 8 28q-6 4 -14 16q-34 60 -99 166t-139 221t-142 217t-106 154 q-12 18 -12 34zM286 1666q0 34 23 56t57 22t56 -22t22 -56t-22 -57t-56 -23t-57 23t-23 57zM586 1666q0 34 22 56t56 22t56 -22t22 -56t-22 -57t-56 -23t-56 23t-22 57z" />
<glyph unicode="&#x2c6;" horiz-adv-x="1434" d="M380 980q0 20 16 40l124 130l130 118q16 14 38 14q16 0 22 -4q18 0 34 -12l144 -112l144 -114q22 -18 22 -44q0 -22 -14 -36q-14 -20 -42 -20q-22 0 -36 12l-142 114l-122 94l-100 -92l-122 -126q-16 -18 -40 -18q-22 0 -38 16q-18 18 -18 40z" />
<glyph unicode="&#x2dc;" horiz-adv-x="1434" d="M382 1100q0 16 12 32q104 150 234 150q58 0 116 -34q46 -24 73 -38t49 -14t41 15t43 49q16 22 44 22q18 0 34 -12q22 -16 22 -44q0 -18 -10 -34q-46 -60 -89 -84t-83 -24q-46 0 -89 21t-89 47q-30 16 -62 16q-74 0 -144 -100q-16 -24 -46 -24q-16 0 -32 10q-24 18 -24 46 z" />
<glyph unicode="&#x2000;" horiz-adv-x="1053" />
<glyph unicode="&#x2001;" horiz-adv-x="2106" />
<glyph unicode="&#x2002;" horiz-adv-x="1053" />
<glyph unicode="&#x2003;" horiz-adv-x="2106" />
<glyph unicode="&#x2004;" horiz-adv-x="702" />
<glyph unicode="&#x2005;" horiz-adv-x="526" />
<glyph unicode="&#x2006;" horiz-adv-x="351" />
<glyph unicode="&#x2007;" horiz-adv-x="351" />
<glyph unicode="&#x2008;" horiz-adv-x="263" />
<glyph unicode="&#x2009;" horiz-adv-x="421" />
<glyph unicode="&#x200a;" horiz-adv-x="117" />
<glyph unicode="&#x2010;" horiz-adv-x="804" d="M40 640q0 22 10 37t26 19q4 0 38 6t86 13t115 13t123 6q124 0 196 -14t76 -16q34 -10 32 -66q-6 -44 -50 -44q-32 6 -70 14q-34 4 -80 9t-104 5t-120 -6t-113 -13t-86 -13t-37 -6q-16 0 -27 14t-15 42z" />
<glyph unicode="&#x2011;" horiz-adv-x="804" d="M40 640q0 22 10 37t26 19q4 0 38 6t86 13t115 13t123 6q124 0 196 -14t76 -16q34 -10 32 -66q-6 -44 -50 -44q-32 6 -70 14q-34 4 -80 9t-104 5t-120 -6t-113 -13t-86 -13t-37 -6q-16 0 -27 14t-15 42z" />
<glyph unicode="&#x2012;" horiz-adv-x="804" d="M40 640q0 22 10 37t26 19q4 0 38 6t86 13t115 13t123 6q124 0 196 -14t76 -16q34 -10 32 -66q-6 -44 -50 -44q-32 6 -70 14q-34 4 -80 9t-104 5t-120 -6t-113 -13t-86 -13t-37 -6q-16 0 -27 14t-15 42z" />
<glyph unicode="&#x2013;" horiz-adv-x="804" d="M40 640q0 22 10 37t26 19q4 0 38 6t86 13t115 13t123 6q124 0 196 -14t76 -16q34 -10 32 -66q-6 -44 -50 -44q-32 6 -70 14q-34 4 -80 9t-104 5t-120 -6t-113 -13t-86 -13t-37 -6q-16 0 -27 14t-15 42z" />
<glyph unicode="&#x2014;" horiz-adv-x="1472" d="M40 646q4 -26 19 -41t37 -15q4 0 72 6t173 13t232 13t247 6t217 -4t166 -10t107 -10l38 -4q26 0 42 13t20 35q2 28 -12 44t-36 20q-4 0 -42 4t-109 10t-170 10t-221 4t-251 -6t-234 -13t-173 -13t-70 -6q-22 -2 -37 -18t-15 -38zM40 646q4 -26 19 -41t37 -15q4 0 72 6 t173 13t232 13t247 6t217 -4t166 -10t107 -10l38 -4q26 0 42 13t20 35q2 28 -12 44t-36 20q-4 0 -42 4t-109 10t-170 10t-221 4t-251 -6t-234 -13t-173 -13t-70 -6q-22 -2 -37 -18t-15 -38z" />
<glyph unicode="&#x2018;" horiz-adv-x="244" d="M-20 1442q-4 24 9 43t35 23q24 4 43 -8t23 -34q22 -102 43 -180t37 -120q4 -28 -6 -46t-28 -26q-58 -10 -72 34q-12 30 -23 72t-22 85t-21 85t-18 72z" />
<glyph unicode="&#x2019;" horiz-adv-x="210" d="M-20 1148q2 30 6 72t9 86t11 87t12 75q4 22 21 34t45 10q44 -6 44 -66q-10 -44 -19 -124t-17 -184q-4 -22 -20 -37t-42 -15q-22 2 -36 19t-14 43z" />
<glyph unicode="&#x201a;" horiz-adv-x="210" d="M-20 -122q2 32 6 74t9 86t11 87t12 75q4 20 21 33t45 11q44 -10 44 -66q-10 -44 -19 -124t-17 -184q-4 -22 -20 -38t-42 -14q-22 2 -36 19t-14 41z" />
<glyph unicode="&#x201c;" horiz-adv-x="470" d="M-20 1442q-4 24 9 43t35 23q24 4 43 -8t23 -34q22 -102 43 -180t37 -120q4 -28 -6 -46t-28 -26q-58 -10 -72 34q-12 30 -23 72t-22 85t-21 85t-18 72zM206 1442q-4 24 8 43t34 23q26 4 44 -8t24 -34q22 -102 42 -180t36 -120q6 -28 -4 -46t-30 -26q-56 -10 -70 34 q-12 30 -24 72t-23 85t-21 85t-16 72z" />
<glyph unicode="&#x201d;" horiz-adv-x="436" d="M-20 1148q2 30 6 72t9 86t11 87t12 75q4 22 21 34t45 10q44 -6 44 -66q-10 -44 -19 -124t-17 -184q-4 -22 -20 -37t-42 -15q-22 2 -36 19t-14 43zM204 1148q2 30 7 72t9 86t10 87t12 75q4 22 21 34t45 10q22 -4 34 -21t10 -45q-8 -44 -17 -124t-19 -184q-2 -22 -18 -37 t-42 -15q-22 2 -37 19t-15 43z" />
<glyph unicode="&#x201e;" horiz-adv-x="436" d="M-20 -122q2 32 6 74t9 86t11 87t12 75q4 20 21 33t45 11q44 -10 44 -66q-10 -44 -19 -124t-17 -184q-4 -22 -20 -38t-42 -14q-22 2 -36 19t-14 41zM204 -122q2 32 7 74t9 86t10 87t12 75q4 20 21 33t45 11q46 -10 44 -66q-8 -44 -17 -124t-19 -184q-2 -22 -18 -38 t-42 -14q-22 2 -37 19t-15 41z" />
<glyph unicode="&#x2022;" horiz-adv-x="486" d="M72 594q0 34 9 68t30 61t56 43t87 16q38 -2 64 -17t42 -39t24 -52t8 -58q0 -46 -14 -80q-22 -60 -71 -92t-99 -32q-24 0 -48 15t-44 41t-32 58t-12 68z" />
<glyph unicode="&#x2026;" horiz-adv-x="916" d="M82 30q0 34 23 57t55 23q34 0 57 -23t23 -57t-23 -56t-57 -22q-32 0 -55 22t-23 56zM410 30q0 34 22 57t56 23t57 -23t23 -57t-23 -56t-57 -22t-56 22t-22 56zM738 30q0 34 22 57t56 23t57 -23t23 -57t-23 -56t-57 -22t-56 22t-22 56z" />
<glyph unicode="&#x202f;" horiz-adv-x="421" />
<glyph unicode="&#x2039;" horiz-adv-x="450" d="M40 322q0 30 28 48l18 10q26 16 62 40t76 58q12 12 25 24t27 26l45 45t51 45q16 14 36 14q26 0 44 -22q12 -16 12 -34q0 -28 -20 -44q-48 -40 -88 -82l-29 -29t-29 -27q-30 -28 -58 -47t-52 -35q4 -8 10 -14t12 -14q16 -20 36 -41t42 -43q16 -14 36 -27t42 -29t42 -30 t42 -30q20 -18 20 -44q0 -22 -12 -36q-14 -20 -44 -20q-20 0 -34 12q-34 28 -76 54q-24 16 -47 32t-43 36q-28 24 -50 48t-40 46q-12 16 -24 30t-18 18t-12 10t-20 22q-10 16 -10 30z" />
<glyph unicode="&#x203a;" horiz-adv-x="450" d="M40 28q0 28 22 44q22 18 42 32t42 28q22 16 42 29t36 29q22 22 42 43t36 41q6 8 12 14t10 12q-24 16 -52 36t-58 48q-16 14 -29 27l-29 29q-20 20 -42 41t-46 41q-20 16 -20 42q0 20 12 36q18 20 44 20q18 0 36 -12q28 -22 51 -45l45 -45l27 -27t25 -23q40 -36 76 -59 t62 -39l18 -12q26 -14 26 -48q0 -18 -8 -28q-8 -12 -14 -16q-6 -10 -18 -18q-6 -4 -18 -17t-24 -29q-18 -22 -40 -46t-50 -50q-20 -18 -43 -34t-47 -32q-20 -14 -39 -27t-37 -27q-14 -14 -34 -14q-28 0 -44 22q-14 18 -14 34z" />
<glyph unicode="&#x205f;" horiz-adv-x="526" />
<glyph unicode="&#x20ac;" horiz-adv-x="998" d="M-40 386q0 20 12 35t34 19q2 0 24 4t58 9t81 10t93 7q-4 34 -7 70t-3 76q-90 -6 -159 -17t-79 -11q-20 0 -35 14t-19 42q0 20 12 35t34 19q2 0 24 4t56 9t78 9t92 8q4 50 14 83t26 67l22 44t45 80t59 85t66 61q40 22 80 31t76 9t70 -10q10 -2 31 -10t45 -20t44 -26 t30 -28q20 -30 20 -88q0 -24 -17 -40t-39 -16q-24 0 -40 16t-16 40q0 6 -1 13t-1 11q-14 10 -40 22t-48 20q-20 4 -36 4q-24 0 -51 -6t-51 -20q-14 -8 -32 -30t-38 -53t-40 -67t-36 -70q-10 -22 -17 -44t-11 -54q110 -2 175 -13t69 -13q18 -4 30 -22t10 -46q-10 -44 -68 -40 q-26 4 -60 10q-28 4 -70 7t-92 3q0 -82 12 -144q108 -2 171 -13t67 -13q18 -4 30 -22t10 -46q-10 -44 -68 -40q-22 4 -48 8q-22 4 -55 7t-73 5q30 -70 71 -114t84 -71t83 -37t68 -10q40 0 74 14t58 31t38 31l14 14q16 22 42 22q22 0 36 -14q20 -14 20 -42q0 -22 -12 -36 q-2 -2 -21 -23t-54 -45t-85 -44t-110 -20q-54 0 -116 19t-120 60t-109 106t-81 159q-48 -2 -96 -7t-86 -10t-64 -9t-30 -4q-20 0 -35 14t-19 42z" />
<glyph unicode="&#x25fc;" d="M0 0v1120h1120v-1120h-1120z" />
<glyph unicode="&#xfb01;" horiz-adv-x="1266" d="M40 720q0 22 15 38t37 18q22 0 48 4q22 2 54 5t72 7q-4 30 -4 58t-2 52l-8 294q0 54 24 108t68 100q46 48 108 75t126 27q98 0 172 -37t126 -91t82 -116t42 -110q0 -44 -42 -56h-14q-18 0 -34 11t-20 31q0 4 -15 44t-51 87t-96 86t-150 39q-42 0 -82 -17t-72 -51 q-60 -60 -60 -134l8 -288q2 -22 2 -49t4 -55q54 4 112 7t120 5q22 0 39 -16t17 -40q0 -22 -16 -39t-38 -17q-58 -2 -115 -5t-109 -7q12 -108 31 -226t37 -217t31 -166t13 -73q0 -20 -14 -36t-42 -20q-20 0 -36 12t-20 34q-2 8 -15 75t-30 166t-36 217t-31 226 q-76 -6 -125 -11t-55 -5q-22 -2 -37 14t-19 42zM912 944q0 46 56 56q46 0 56 -44q0 -4 10 -53t22 -119t23 -149t15 -143q4 -62 15 -143t23 -156t22 -128t10 -59q0 -20 -14 -36t-42 -20q-20 0 -36 13t-20 33q0 6 -10 59t-22 127t-23 156t-15 146q-4 60 -15 138t-23 148 t-22 119t-10 55z" />
<glyph unicode="&#xfb02;" horiz-adv-x="1170" d="M40 720q0 22 14 37t36 19q2 0 43 5t109 11q-2 30 -3 58t-1 52l-8 292q0 58 25 117t69 105q90 90 204 90q90 0 158 -37t115 -90t74 -112t37 -103q0 -2 7 -31t14 -71t13 -93t6 -95q0 -24 6 -83t16 -140t23 -175t26 -186t25 -174t20 -138q0 -22 -14 -37t-42 -19 q-22 0 -37 13t-19 35q-2 8 -10 70t-21 152t-28 197t-28 205t-21 174t-8 106q0 40 -6 86t-13 85t-13 67l-6 26q0 4 -13 45t-44 88t-84 85t-133 38q-68 0 -124 -56q-28 -30 -45 -68t-17 -78l8 -288q0 -22 1 -49t3 -55q96 6 204 12q24 0 39 -16t17 -40q0 -22 -16 -39t-38 -17 q-104 -4 -196 -12q12 -108 28 -226t32 -218t28 -166t12 -72q0 -20 -14 -36t-42 -20q-20 0 -36 13t-20 33q0 8 -12 75t-28 166t-32 217t-28 226q-66 -6 -108 -11t-48 -5q-22 0 -37 15t-19 41z" />
</font>
</defs>
</svg>
